<?xml version="1.0" encoding="UTF-8" standalone="no"?><svg xmlns="http://www.w3.org/2000/svg" xmlns:xlink="http://www.w3.org/1999/xlink" contentScriptType="application/ecmascript" contentStyleType="text/css" height="472px" preserveAspectRatio="none" style="width:517px;height:472px;" version="1.1" viewBox="0 0 517 472" width="517px" zoomAndPan="magnify"><defs><filter height="300%" id="fwkwa3rflg4tu" width="300%" x="-1" y="-1"><feGaussianBlur result="blurOut" stdDeviation="2.0"/><feColorMatrix in="blurOut" result="blurOut2" type="matrix" values="0 0 0 0 0 0 0 0 0 0 0 0 0 0 0 0 0 0 .4 0"/><feOffset dx="4.0" dy="4.0" in="blurOut2" result="blurOut3"/><feBlend in="SourceGraphic" in2="blurOut3" mode="normal"/></filter></defs><g><!--cluster QAManager::Gui--><rect fill="#FFFFFF" filter="url(#fwkwa3rflg4tu)" height="445" style="stroke: #000000; stroke-width: 1.5;" width="325" x="181.5" y="16"/><text fill="#000000" font-family="sans-serif" font-size="14" font-weight="bold" lengthAdjust="spacingAndGlyphs" textLength="129" x="279.5" y="30.9951">QAManager::Gui</text><!--class QAManager::Gui::Frame--><rect fill="#FEFECE" filter="url(#fwkwa3rflg4tu)" height="32" id="QAManager::Gui::Frame" style="stroke: #A80036; stroke-width: 1.5;" width="71" x="427" y="53.5"/><ellipse cx="442" cy="69.5" fill="#80FFFF" rx="11" ry="11" style="stroke: #A80036; stroke-width: 1.0;"/><path d="M443.2031,69.6406 Q443.5625,69.7188 443.8281,70 Q444.1094,70.2656 444.5,71.0469 L446.7344,75.5 L444.0469,75.5 L442.5469,72.375 Q442.4844,72.2344 442.375,72 Q441.7188,70.6094 440.8281,70.6094 L440.0469,70.6094 L440.0469,75.5 L437.6094,75.5 L437.6094,63.1094 L441.1406,63.1094 Q443.5313,63.1094 444.5625,63.9531 Q445.6094,64.7969 445.6094,66.7031 Q445.6094,67.9844 444.9844,68.75 Q444.375,69.5 443.2031,69.6406 Z M440.0469,65.1719 L440.0469,68.5469 L441.2031,68.5469 Q442.2188,68.5469 442.6406,68.1563 Q443.0781,67.75 443.0781,66.8438 Q443.0781,65.9531 442.6406,65.5625 Q442.2188,65.1719 441.2031,65.1719 L440.0469,65.1719 Z "/><text fill="#000000" font-family="sans-serif" font-size="12" lengthAdjust="spacingAndGlyphs" textLength="39" x="456" y="73.6807">Frame</text><!--class QAManager::Gui::Repeat--><rect fill="#FEFECE" filter="url(#fwkwa3rflg4tu)" height="32" id="QAManager::Gui::Repeat" style="stroke: #A80036; stroke-width: 1.5;" width="77" x="315" y="53.5"/><ellipse cx="330" cy="69.5" fill="#80FFFF" rx="11" ry="11" style="stroke: #A80036; stroke-width: 1.0;"/><path d="M331.2031,69.6406 Q331.5625,69.7188 331.8281,70 Q332.1094,70.2656 332.5,71.0469 L334.7344,75.5 L332.0469,75.5 L330.5469,72.375 Q330.4844,72.2344 330.375,72 Q329.7188,70.6094 328.8281,70.6094 L328.0469,70.6094 L328.0469,75.5 L325.6094,75.5 L325.6094,63.1094 L329.1406,63.1094 Q331.5313,63.1094 332.5625,63.9531 Q333.6094,64.7969 333.6094,66.7031 Q333.6094,67.9844 332.9844,68.75 Q332.375,69.5 331.2031,69.6406 Z M328.0469,65.1719 L328.0469,68.5469 L329.2031,68.5469 Q330.2188,68.5469 330.6406,68.1563 Q331.0781,67.75 331.0781,66.8438 Q331.0781,65.9531 330.6406,65.5625 Q330.2188,65.1719 329.2031,65.1719 L328.0469,65.1719 Z "/><text fill="#000000" font-family="sans-serif" font-size="12" lengthAdjust="spacingAndGlyphs" textLength="45" x="344" y="73.6807">Repeat</text><!--class QAManager::Gui::Value--><rect fill="#FEFECE" filter="url(#fwkwa3rflg4tu)" height="52.896" id="QAManager::Gui::Value" style="stroke: #A80036; stroke-width: 1.5;" width="90" x="189.5" y="43"/><ellipse cx="214.85" cy="59" fill="#80FFFF" rx="11" ry="11" style="stroke: #A80036; stroke-width: 1.0;"/><path d="M217.8188,64.6406 Q217.2406,64.9375 216.6,65.0781 Q215.9594,65.2344 215.2563,65.2344 Q212.7563,65.2344 211.4281,63.5938 Q210.1156,61.9375 210.1156,58.8125 Q210.1156,55.6875 211.4281,54.0313 Q212.7563,52.375 215.2563,52.375 Q215.9594,52.375 216.6,52.5313 Q217.2563,52.6875 217.8188,52.9844 L217.8188,55.7031 Q217.1938,55.125 216.6,54.8594 Q216.0063,54.5781 215.3813,54.5781 Q214.0375,54.5781 213.35,55.6563 Q212.6625,56.7188 212.6625,58.8125 Q212.6625,60.9063 213.35,61.9844 Q214.0375,63.0469 215.3813,63.0469 Q216.0063,63.0469 216.6,62.7813 Q217.1938,62.5 217.8188,61.9219 L217.8188,64.6406 Z "/><text fill="#000000" font-family="sans-serif" font-size="12" lengthAdjust="spacingAndGlyphs" textLength="35" x="231.15" y="63.1807">Value</text><line style="stroke: #A80036; stroke-width: 1.5;" x1="190.5" x2="278.5" y1="75" y2="75"/><text fill="#000000" font-family="sans-serif" font-size="11" lengthAdjust="spacingAndGlyphs" textLength="78" x="195.5" y="89.2803">Array $values</text><!--class QAManager::Gui::QAEntry--><rect fill="#FEFECE" filter="url(#fwkwa3rflg4tu)" height="78.688" id="QAManager::Gui::QAEntry" style="stroke: #A80036; stroke-width: 1.5;" width="81" x="313" y="219"/><ellipse cx="328" cy="235" fill="#80FFFF" rx="11" ry="11" style="stroke: #A80036; stroke-width: 1.0;"/><path d="M329.2031,235.1406 Q329.5625,235.2188 329.8281,235.5 Q330.1094,235.7656 330.5,236.5469 L332.7344,241 L330.0469,241 L328.5469,237.875 Q328.4844,237.7344 328.375,237.5 Q327.7188,236.1094 326.8281,236.1094 L326.0469,236.1094 L326.0469,241 L323.6094,241 L323.6094,228.6094 L327.1406,228.6094 Q329.5313,228.6094 330.5625,229.4531 Q331.6094,230.2969 331.6094,232.2031 Q331.6094,233.4844 330.9844,234.25 Q330.375,235 329.2031,235.1406 Z M326.0469,230.6719 L326.0469,234.0469 L327.2031,234.0469 Q328.2188,234.0469 328.6406,233.6563 Q329.0781,233.25 329.0781,232.3438 Q329.0781,231.4531 328.6406,231.0625 Q328.2188,230.6719 327.2031,230.6719 L326.0469,230.6719 Z "/><text fill="#000000" font-family="sans-serif" font-size="12" lengthAdjust="spacingAndGlyphs" textLength="49" x="342" y="239.1807">QAEntry</text><line style="stroke: #A80036; stroke-width: 1.5;" x1="314" x2="393" y1="251" y2="251"/><text fill="#000000" font-family="sans-serif" font-size="11" lengthAdjust="spacingAndGlyphs" textLength="60" x="319" y="265.2803">set-value()</text><text fill="#000000" font-family="sans-serif" font-size="11" lengthAdjust="spacingAndGlyphs" textLength="60" x="319" y="278.1763">get-value()</text><text fill="#000000" font-family="sans-serif" font-size="11" lengthAdjust="spacingAndGlyphs" textLength="48" x="319" y="291.0723">display()</text><!--class QAManager::Gui::Question--><rect fill="#FEFECE" filter="url(#fwkwa3rflg4tu)" height="32" id="QAManager::Gui::Question" style="stroke: #A80036; stroke-width: 1.5;" width="88" x="349.5" y="421"/><ellipse cx="364.5" cy="437" fill="#80FFFF" rx="11" ry="11" style="stroke: #A80036; stroke-width: 1.0;"/><path d="M367.4688,442.6406 Q366.8906,442.9375 366.25,443.0781 Q365.6094,443.2344 364.9063,443.2344 Q362.4063,443.2344 361.0781,441.5938 Q359.7656,439.9375 359.7656,436.8125 Q359.7656,433.6875 361.0781,432.0313 Q362.4063,430.375 364.9063,430.375 Q365.6094,430.375 366.25,430.5313 Q366.9063,430.6875 367.4688,430.9844 L367.4688,433.7031 Q366.8438,433.125 366.25,432.8594 Q365.6563,432.5781 365.0313,432.5781 Q363.6875,432.5781 363,433.6563 Q362.3125,434.7188 362.3125,436.8125 Q362.3125,438.9063 363,439.9844 Q363.6875,441.0469 365.0313,441.0469 Q365.6563,441.0469 366.25,440.7813 Q366.8438,440.5 367.4688,439.9219 L367.4688,442.6406 Z "/><text fill="#000000" font-family="sans-serif" font-size="12" lengthAdjust="spacingAndGlyphs" textLength="56" x="378.5" y="441.1807">Question</text><!--class QAManager::Gui::Set--><rect fill="#FEFECE" filter="url(#fwkwa3rflg4tu)" height="32" id="QAManager::Gui::Set" style="stroke: #A80036; stroke-width: 1.5;" width="53" x="190" y="421"/><ellipse cx="205" cy="437" fill="#80FFFF" rx="11" ry="11" style="stroke: #A80036; stroke-width: 1.0;"/><path d="M207.9688,442.6406 Q207.3906,442.9375 206.75,443.0781 Q206.1094,443.2344 205.4063,443.2344 Q202.9063,443.2344 201.5781,441.5938 Q200.2656,439.9375 200.2656,436.8125 Q200.2656,433.6875 201.5781,432.0313 Q202.9063,430.375 205.4063,430.375 Q206.1094,430.375 206.75,430.5313 Q207.4063,430.6875 207.9688,430.9844 L207.9688,433.7031 Q207.3438,433.125 206.75,432.8594 Q206.1563,432.5781 205.5313,432.5781 Q204.1875,432.5781 203.5,433.6563 Q202.8125,434.7188 202.8125,436.8125 Q202.8125,438.9063 203.5,439.9844 Q204.1875,441.0469 205.5313,441.0469 Q206.1563,441.0469 206.75,440.7813 Q207.3438,440.5 207.9688,439.9219 L207.9688,442.6406 Z "/><text fill="#000000" font-family="sans-serif" font-size="12" lengthAdjust="spacingAndGlyphs" textLength="21" x="219" y="441.1807">Set</text><path d="M6,230.5 L6,286.2222 A0,0 0 0 0 6,286.2222 L173,286.2222 A0,0 0 0 0 173,286.2222 L173,262.5 L312.965,258.5 L173,254.5 L173,240.5 L163,230.5 L6,230.5 A0,0 0 0 0 6,230.5 " fill="#FBFB77" filter="url(#fwkwa3rflg4tu)" style="stroke: #A80036; stroke-width: 1.0;"/><path d="M163,230.5 L163,240.5 L173,240.5 L163,230.5 " fill="#FBFB77" style="stroke: #A80036; stroke-width: 1.0;"/><text fill="#000000" font-family="sans-serif" font-size="13" lengthAdjust="spacingAndGlyphs" textLength="135" x="12" y="247.6494">QAEntry is one of the</text><text fill="#000000" font-family="sans-serif" font-size="13" lengthAdjust="spacingAndGlyphs" textLength="146" x="12" y="262.8901">possible types and can</text><text fill="#000000" font-family="sans-serif" font-size="13" lengthAdjust="spacingAndGlyphs" textLength="111" x="12" y="278.1309">be set at runtime</text><!--link QAManager::Gui::Value to QAManager::Gui::QAEntry--><path d="M253.9649,100.4149 C274.3065,132.7221 306.2933,183.5246 328.4936,218.784 " fill="none" id="QAManager::Gui::Value-QAManager::Gui::QAEntry" style="stroke: #A80036; stroke-width: 1.0;"/><polygon fill="#A80036" points="251.2974,96.1782,252.7077,105.9256,253.9614,100.4094,259.4776,101.6631,251.2974,96.1782" style="stroke: #A80036; stroke-width: 1.0;"/><!--link QAManager::Gui::Frame to QAManager::Gui::QAEntry--><path d="M442.9513,103.3964 C424.2517,135.8204 396.0565,184.7094 376.3334,218.9082 " fill="none" id="QAManager::Gui::Frame-QAManager::Gui::QAEntry" style="stroke: #A80036; stroke-width: 1.0; stroke-dasharray: 7.0,7.0;"/><polygon fill="none" points="437.151,99.4421,453.2067,85.614,449.2787,106.4364,437.151,99.4421" style="stroke: #A80036; stroke-width: 1.0;"/><!--link QAManager::Gui::Repeat to QAManager::Gui::QAEntry--><path d="M353.5,105.7176 C353.5,138.1184 353.5,185.516 353.5,218.9082 " fill="none" id="QAManager::Gui::Repeat-QAManager::Gui::QAEntry" style="stroke: #A80036; stroke-width: 1.0; stroke-dasharray: 7.0,7.0;"/><polygon fill="none" points="346.5001,105.6141,353.5,85.614,360.5001,105.614,346.5001,105.6141" style="stroke: #A80036; stroke-width: 1.0;"/><!--link QAManager::Gui::QAEntry to QAManager::Gui::Question--><path d="M365.239,310.8851 C372.3628,342.6751 381.183,382.0355 387.0564,408.2455 " fill="none" id="QAManager::Gui::QAEntry-QAManager::Gui::Question" style="stroke: #A80036; stroke-width: 1.0;"/><polygon fill="#A80036" points="389.9107,420.9825,392.5019,414.253,387.2867,409.2729,384.6955,416.0024,389.9107,420.9825" style="stroke: #A80036; stroke-width: 1.0;"/><polygon fill="#A80036" points="362.3773,298.1149,360.4422,307.7718,363.4707,302.9939,368.2485,306.0224,362.3773,298.1149" style="stroke: #A80036; stroke-width: 1.0;"/><line style="stroke: #A80036; stroke-width: 1.0;" x1="363.4707" x2="365.2201" y1="302.9939" y2="310.8004"/><!--link QAManager::Gui::Set to QAManager::Gui::Question--><path d="M256.535,437 C280.0876,437 310.262,437 336.2914,437 " fill="none" id="QAManager::Gui::Set-QAManager::Gui::Question" style="stroke: #A80036; stroke-width: 1.0;"/><polygon fill="#A80036" points="349.4682,437,340.4682,433,344.4682,437,340.4682,441,349.4682,437" style="stroke: #A80036; stroke-width: 1.0;"/><line style="stroke: #A80036; stroke-width: 1.0;" x1="344.4682" x2="336.4682" y1="437" y2="436.9999"/><polygon fill="#A80036" points="243.3825,437,249.3825,441,255.3825,437,249.3825,433,243.3825,437" style="stroke: #A80036; stroke-width: 1.0;"/><text fill="#000000" font-family="sans-serif" font-size="13" lengthAdjust="spacingAndGlyphs" textLength="70" x="261.25" y="430.1494">$questions</text><text fill="#000000" font-family="sans-serif" font-size="13" lengthAdjust="spacingAndGlyphs" textLength="7" x="334.5957" y="432.9272">*</text><!--
@startuml
skinparam packageStyle rectangle
skinparam stereotypeCBackgroundColor #80ffff
set namespaceSeparator ::
hide empty members

class QAManager::Gui::Frame <<(R,#80ffff)>>
class QAManager::Gui::Repeat <<(R,#80ffff)>>

class QAManager::Gui::Value {
  Array $values
}


class QAManager::Gui::QAEntry <<(R,#80ffff)>> {
  set-value()
  get-value()
  display()
}

note left of QAManager::Gui::QAEntry : QAEntry is one of the\npossible types and can\nbe set at runtime

QAManager::Gui::Value <- - QAManager::Gui::QAEntry

QAManager::Gui::Frame <|.. QAManager::Gui::QAEntry
QAManager::Gui::Repeat <|.. QAManager::Gui::QAEntry

QAManager::Gui::QAEntry <- -* QAManager::Gui::Question

QAManager::Gui::Set *-> "*" QAManager::Gui::Question : $questions

@enduml

PlantUML version 1.2019.01(Sat Feb 09 16:32:04 CET 2019)
(LGPL source distribution)
Java Runtime: OpenJDK Runtime Environment
JVM: OpenJDK 64-Bit Server VM
Java Version: 1.8.0_265-b01
Operating System: Linux
OS Version: 5.8.8-100.fc31.x86_64
Default Encoding: UTF-8
Language: en
Country: null
--></g></svg>