<?xml version="1.0" encoding="UTF-8" standalone="no"?><svg xmlns="http://www.w3.org/2000/svg" xmlns:xlink="http://www.w3.org/1999/xlink" contentScriptType="application/ecmascript" contentStyleType="text/css" height="741px" preserveAspectRatio="none" style="width:517px;height:741px;" version="1.1" viewBox="0 0 517 741" width="517px" zoomAndPan="magnify"><defs><filter height="300%" id="f1uazkd31cc58q" width="300%" x="-1" y="-1"><feGaussianBlur result="blurOut" stdDeviation="2.0"/><feColorMatrix in="blurOut" result="blurOut2" type="matrix" values="0 0 0 0 0 0 0 0 0 0 0 0 0 0 0 0 0 0 .4 0"/><feOffset dx="4.0" dy="4.0" in="blurOut2" result="blurOut3"/><feBlend in="SourceGraphic" in2="blurOut3" mode="normal"/></filter></defs><g><!--cluster QAManager::Gui--><rect fill="#FFFFFF" filter="url(#f1uazkd31cc58q)" height="616" style="stroke: #000000; stroke-width: 1.5;" width="325" x="181.5" y="16"/><text fill="#000000" font-family="sans-serif" font-size="14" font-weight="bold" lengthAdjust="spacingAndGlyphs" textLength="129" x="279.5" y="30.9951">QAManager::Gui</text><!--cluster QAManager--><rect fill="#FFFFFF" filter="url(#f1uazkd31cc58q)" height="67" style="stroke: #000000; stroke-width: 1.5;" width="107" x="202.5" y="663"/><text fill="#000000" font-family="sans-serif" font-size="14" font-weight="bold" lengthAdjust="spacingAndGlyphs" textLength="91" x="210.5" y="677.9951">QAManager</text><!--class QAManager::Gui::Frame--><rect fill="#FEFECE" filter="url(#f1uazkd31cc58q)" height="32" id="QAManager::Gui::Frame" style="stroke: #A80036; stroke-width: 1.5;" width="71" x="427" y="53.5"/><ellipse cx="442" cy="69.5" fill="#80FFFF" rx="11" ry="11" style="stroke: #A80036; stroke-width: 1.0;"/><path d="M443.2031,69.6406 Q443.5625,69.7188 443.8281,70 Q444.1094,70.2656 444.5,71.0469 L446.7344,75.5 L444.0469,75.5 L442.5469,72.375 Q442.4844,72.2344 442.375,72 Q441.7188,70.6094 440.8281,70.6094 L440.0469,70.6094 L440.0469,75.5 L437.6094,75.5 L437.6094,63.1094 L441.1406,63.1094 Q443.5313,63.1094 444.5625,63.9531 Q445.6094,64.7969 445.6094,66.7031 Q445.6094,67.9844 444.9844,68.75 Q444.375,69.5 443.2031,69.6406 Z M440.0469,65.1719 L440.0469,68.5469 L441.2031,68.5469 Q442.2188,68.5469 442.6406,68.1563 Q443.0781,67.75 443.0781,66.8438 Q443.0781,65.9531 442.6406,65.5625 Q442.2188,65.1719 441.2031,65.1719 L440.0469,65.1719 Z "/><text fill="#000000" font-family="sans-serif" font-size="12" lengthAdjust="spacingAndGlyphs" textLength="39" x="456" y="73.6807">Frame</text><!--class QAManager::Gui::Repeat--><rect fill="#FEFECE" filter="url(#f1uazkd31cc58q)" height="32" id="QAManager::Gui::Repeat" style="stroke: #A80036; stroke-width: 1.5;" width="77" x="315" y="53.5"/><ellipse cx="330" cy="69.5" fill="#80FFFF" rx="11" ry="11" style="stroke: #A80036; stroke-width: 1.0;"/><path d="M331.2031,69.6406 Q331.5625,69.7188 331.8281,70 Q332.1094,70.2656 332.5,71.0469 L334.7344,75.5 L332.0469,75.5 L330.5469,72.375 Q330.4844,72.2344 330.375,72 Q329.7188,70.6094 328.8281,70.6094 L328.0469,70.6094 L328.0469,75.5 L325.6094,75.5 L325.6094,63.1094 L329.1406,63.1094 Q331.5313,63.1094 332.5625,63.9531 Q333.6094,64.7969 333.6094,66.7031 Q333.6094,67.9844 332.9844,68.75 Q332.375,69.5 331.2031,69.6406 Z M328.0469,65.1719 L328.0469,68.5469 L329.2031,68.5469 Q330.2188,68.5469 330.6406,68.1563 Q331.0781,67.75 331.0781,66.8438 Q331.0781,65.9531 330.6406,65.5625 Q330.2188,65.1719 329.2031,65.1719 L328.0469,65.1719 Z "/><text fill="#000000" font-family="sans-serif" font-size="12" lengthAdjust="spacingAndGlyphs" textLength="45" x="344" y="73.6807">Repeat</text><!--class QAManager::Gui::Value--><rect fill="#FEFECE" filter="url(#f1uazkd31cc58q)" height="52.896" id="QAManager::Gui::Value" style="stroke: #A80036; stroke-width: 1.5;" width="90" x="189.5" y="43"/><ellipse cx="214.85" cy="59" fill="#80FFFF" rx="11" ry="11" style="stroke: #A80036; stroke-width: 1.0;"/><path d="M217.8188,64.6406 Q217.2406,64.9375 216.6,65.0781 Q215.9594,65.2344 215.2563,65.2344 Q212.7563,65.2344 211.4281,63.5938 Q210.1156,61.9375 210.1156,58.8125 Q210.1156,55.6875 211.4281,54.0313 Q212.7563,52.375 215.2563,52.375 Q215.9594,52.375 216.6,52.5313 Q217.2563,52.6875 217.8188,52.9844 L217.8188,55.7031 Q217.1938,55.125 216.6,54.8594 Q216.0063,54.5781 215.3813,54.5781 Q214.0375,54.5781 213.35,55.6563 Q212.6625,56.7188 212.6625,58.8125 Q212.6625,60.9063 213.35,61.9844 Q214.0375,63.0469 215.3813,63.0469 Q216.0063,63.0469 216.6,62.7813 Q217.1938,62.5 217.8188,61.9219 L217.8188,64.6406 Z "/><text fill="#000000" font-family="sans-serif" font-size="12" lengthAdjust="spacingAndGlyphs" textLength="35" x="231.15" y="63.1807">Value</text><line style="stroke: #A80036; stroke-width: 1.5;" x1="190.5" x2="278.5" y1="75" y2="75"/><text fill="#000000" font-family="sans-serif" font-size="11" lengthAdjust="spacingAndGlyphs" textLength="78" x="195.5" y="89.2803">Array $values</text><!--class QAManager::Gui::QAEntry--><rect fill="#FEFECE" filter="url(#f1uazkd31cc58q)" height="78.688" id="QAManager::Gui::QAEntry" style="stroke: #A80036; stroke-width: 1.5;" width="81" x="219" y="219"/><ellipse cx="234" cy="235" fill="#80FFFF" rx="11" ry="11" style="stroke: #A80036; stroke-width: 1.0;"/><path d="M235.2031,235.1406 Q235.5625,235.2188 235.8281,235.5 Q236.1094,235.7656 236.5,236.5469 L238.7344,241 L236.0469,241 L234.5469,237.875 Q234.4844,237.7344 234.375,237.5 Q233.7188,236.1094 232.8281,236.1094 L232.0469,236.1094 L232.0469,241 L229.6094,241 L229.6094,228.6094 L233.1406,228.6094 Q235.5313,228.6094 236.5625,229.4531 Q237.6094,230.2969 237.6094,232.2031 Q237.6094,233.4844 236.9844,234.25 Q236.375,235 235.2031,235.1406 Z M232.0469,230.6719 L232.0469,234.0469 L233.2031,234.0469 Q234.2188,234.0469 234.6406,233.6563 Q235.0781,233.25 235.0781,232.3438 Q235.0781,231.4531 234.6406,231.0625 Q234.2188,230.6719 233.2031,230.6719 L232.0469,230.6719 Z "/><text fill="#000000" font-family="sans-serif" font-size="12" lengthAdjust="spacingAndGlyphs" textLength="49" x="248" y="239.1807">QAEntry</text><line style="stroke: #A80036; stroke-width: 1.5;" x1="220" x2="299" y1="251" y2="251"/><text fill="#000000" font-family="sans-serif" font-size="11" lengthAdjust="spacingAndGlyphs" textLength="60" x="225" y="265.2803">set-value()</text><text fill="#000000" font-family="sans-serif" font-size="11" lengthAdjust="spacingAndGlyphs" textLength="60" x="225" y="278.1763">get-value()</text><text fill="#000000" font-family="sans-serif" font-size="11" lengthAdjust="spacingAndGlyphs" textLength="48" x="225" y="291.0723">display()</text><!--class QAManager::Gui::Dialog--><rect fill="#FEFECE" filter="url(#f1uazkd31cc58q)" height="32" id="QAManager::Gui::Dialog" style="stroke: #A80036; stroke-width: 1.5;" width="71" x="340" y="421"/><ellipse cx="355" cy="437" fill="#80FFFF" rx="11" ry="11" style="stroke: #A80036; stroke-width: 1.0;"/><path d="M357.9688,442.6406 Q357.3906,442.9375 356.75,443.0781 Q356.1094,443.2344 355.4063,443.2344 Q352.9063,443.2344 351.5781,441.5938 Q350.2656,439.9375 350.2656,436.8125 Q350.2656,433.6875 351.5781,432.0313 Q352.9063,430.375 355.4063,430.375 Q356.1094,430.375 356.75,430.5313 Q357.4063,430.6875 357.9688,430.9844 L357.9688,433.7031 Q357.3438,433.125 356.75,432.8594 Q356.1563,432.5781 355.5313,432.5781 Q354.1875,432.5781 353.5,433.6563 Q352.8125,434.7188 352.8125,436.8125 Q352.8125,438.9063 353.5,439.9844 Q354.1875,441.0469 355.5313,441.0469 Q356.1563,441.0469 356.75,440.7813 Q357.3438,440.5 357.9688,439.9219 L357.9688,442.6406 Z "/><text fill="#000000" font-family="sans-serif" font-size="12" lengthAdjust="spacingAndGlyphs" textLength="39" x="369" y="441.1807">Dialog</text><!--class QAManager::Gui::SheetDialog--><rect fill="#FEFECE" filter="url(#f1uazkd31cc58q)" height="32" id="QAManager::Gui::SheetDialog" style="stroke: #A80036; stroke-width: 1.5;" width="108" x="321.5" y="592"/><ellipse cx="336.5" cy="608" fill="#80FFFF" rx="11" ry="11" style="stroke: #A80036; stroke-width: 1.0;"/><path d="M339.4688,613.6406 Q338.8906,613.9375 338.25,614.0781 Q337.6094,614.2344 336.9063,614.2344 Q334.4063,614.2344 333.0781,612.5938 Q331.7656,610.9375 331.7656,607.8125 Q331.7656,604.6875 333.0781,603.0313 Q334.4063,601.375 336.9063,601.375 Q337.6094,601.375 338.25,601.5313 Q338.9063,601.6875 339.4688,601.9844 L339.4688,604.7031 Q338.8438,604.125 338.25,603.8594 Q337.6563,603.5781 337.0313,603.5781 Q335.6875,603.5781 335,604.6563 Q334.3125,605.7188 334.3125,607.8125 Q334.3125,609.9063 335,610.9844 Q335.6875,612.0469 337.0313,612.0469 Q337.6563,612.0469 338.25,611.7813 Q338.8438,611.5 339.4688,610.9219 L339.4688,613.6406 Z "/><text fill="#000000" font-family="sans-serif" font-size="12" lengthAdjust="spacingAndGlyphs" textLength="76" x="350.5" y="612.1807">SheetDialog</text><!--class QAManager::Gui::Set--><rect fill="#FEFECE" filter="url(#f1uazkd31cc58q)" height="32" id="QAManager::Gui::Set" style="stroke: #A80036; stroke-width: 1.5;" width="53" x="233" y="592"/><ellipse cx="248" cy="608" fill="#80FFFF" rx="11" ry="11" style="stroke: #A80036; stroke-width: 1.0;"/><path d="M250.9688,613.6406 Q250.3906,613.9375 249.75,614.0781 Q249.1094,614.2344 248.4063,614.2344 Q245.9063,614.2344 244.5781,612.5938 Q243.2656,610.9375 243.2656,607.8125 Q243.2656,604.6875 244.5781,603.0313 Q245.9063,601.375 248.4063,601.375 Q249.1094,601.375 249.75,601.5313 Q250.4063,601.6875 250.9688,601.9844 L250.9688,604.7031 Q250.3438,604.125 249.75,603.8594 Q249.1563,603.5781 248.5313,603.5781 Q247.1875,603.5781 246.5,604.6563 Q245.8125,605.7188 245.8125,607.8125 Q245.8125,609.9063 246.5,610.9844 Q247.1875,612.0469 248.5313,612.0469 Q249.1563,612.0469 249.75,611.7813 Q250.3438,611.5 250.9688,610.9219 L250.9688,613.6406 Z "/><text fill="#000000" font-family="sans-serif" font-size="12" lengthAdjust="spacingAndGlyphs" textLength="21" x="262" y="612.1807">Set</text><!--class QAManager::Gui::Question--><rect fill="#FEFECE" filter="url(#f1uazkd31cc58q)" height="32" id="QAManager::Gui::Question" style="stroke: #A80036; stroke-width: 1.5;" width="88" x="215.5" y="421"/><ellipse cx="230.5" cy="437" fill="#80FFFF" rx="11" ry="11" style="stroke: #A80036; stroke-width: 1.0;"/><path d="M233.4688,442.6406 Q232.8906,442.9375 232.25,443.0781 Q231.6094,443.2344 230.9063,443.2344 Q228.4063,443.2344 227.0781,441.5938 Q225.7656,439.9375 225.7656,436.8125 Q225.7656,433.6875 227.0781,432.0313 Q228.4063,430.375 230.9063,430.375 Q231.6094,430.375 232.25,430.5313 Q232.9063,430.6875 233.4688,430.9844 L233.4688,433.7031 Q232.8438,433.125 232.25,432.8594 Q231.6563,432.5781 231.0313,432.5781 Q229.6875,432.5781 229,433.6563 Q228.3125,434.7188 228.3125,436.8125 Q228.3125,438.9063 229,439.9844 Q229.6875,441.0469 231.0313,441.0469 Q231.6563,441.0469 232.25,440.7813 Q232.8438,440.5 233.4688,439.9219 L233.4688,442.6406 Z "/><text fill="#000000" font-family="sans-serif" font-size="12" lengthAdjust="spacingAndGlyphs" textLength="56" x="244.5" y="441.1807">Question</text><!--class QAManager::Set--><rect fill="#FEFECE" filter="url(#f1uazkd31cc58q)" height="32" id="QAManager::Set" style="stroke: #A80036; stroke-width: 1.5;" width="53" x="233" y="690"/><ellipse cx="248" cy="706" fill="#80FFFF" rx="11" ry="11" style="stroke: #A80036; stroke-width: 1.0;"/><path d="M250.9688,711.6406 Q250.3906,711.9375 249.75,712.0781 Q249.1094,712.2344 248.4063,712.2344 Q245.9063,712.2344 244.5781,710.5938 Q243.2656,708.9375 243.2656,705.8125 Q243.2656,702.6875 244.5781,701.0313 Q245.9063,699.375 248.4063,699.375 Q249.1094,699.375 249.75,699.5313 Q250.4063,699.6875 250.9688,699.9844 L250.9688,702.7031 Q250.3438,702.125 249.75,701.8594 Q249.1563,701.5781 248.5313,701.5781 Q247.1875,701.5781 246.5,702.6563 Q245.8125,703.7188 245.8125,705.8125 Q245.8125,707.9063 246.5,708.9844 Q247.1875,710.0469 248.5313,710.0469 Q249.1563,710.0469 249.75,709.7813 Q250.3438,709.5 250.9688,708.9219 L250.9688,711.6406 Z "/><text fill="#000000" font-family="sans-serif" font-size="12" lengthAdjust="spacingAndGlyphs" textLength="21" x="262" y="710.1807">Set</text><path d="M6,230.5 L6,286.2222 A0,0 0 0 0 6,286.2222 L173,286.2222 A0,0 0 0 0 173,286.2222 L173,262.5 L218.6965,258.5 L173,254.5 L173,240.5 L163,230.5 L6,230.5 A0,0 0 0 0 6,230.5 " fill="#FBFB77" filter="url(#f1uazkd31cc58q)" style="stroke: #A80036; stroke-width: 1.0;"/><path d="M163,230.5 L163,240.5 L173,240.5 L163,230.5 " fill="#FBFB77" style="stroke: #A80036; stroke-width: 1.0;"/><text fill="#000000" font-family="sans-serif" font-size="13" lengthAdjust="spacingAndGlyphs" textLength="135" x="12" y="247.6494">QAEntry is one of the</text><text fill="#000000" font-family="sans-serif" font-size="13" lengthAdjust="spacingAndGlyphs" textLength="146" x="12" y="262.8901">possible types and can</text><text fill="#000000" font-family="sans-serif" font-size="13" lengthAdjust="spacingAndGlyphs" textLength="111" x="12" y="278.1309">be set at runtime</text><!--class UserApp--><rect fill="#FEFECE" filter="url(#f1uazkd31cc58q)" height="32" id="UserApp" style="stroke: #A80036; stroke-width: 1.5;" width="85" x="333" y="690"/><ellipse cx="348" cy="706" fill="#80FFFF" rx="11" ry="11" style="stroke: #A80036; stroke-width: 1.0;"/><path d="M350.9688,711.6406 Q350.3906,711.9375 349.75,712.0781 Q349.1094,712.2344 348.4063,712.2344 Q345.9063,712.2344 344.5781,710.5938 Q343.2656,708.9375 343.2656,705.8125 Q343.2656,702.6875 344.5781,701.0313 Q345.9063,699.375 348.4063,699.375 Q349.1094,699.375 349.75,699.5313 Q350.4063,699.6875 350.9688,699.9844 L350.9688,702.7031 Q350.3438,702.125 349.75,701.8594 Q349.1563,701.5781 348.5313,701.5781 Q347.1875,701.5781 346.5,702.6563 Q345.8125,703.7188 345.8125,705.8125 Q345.8125,707.9063 346.5,708.9844 Q347.1875,710.0469 348.5313,710.0469 Q349.1563,710.0469 349.75,709.7813 Q350.3438,709.5 350.9688,708.9219 L350.9688,711.6406 Z "/><text fill="#000000" font-family="sans-serif" font-size="12" lengthAdjust="spacingAndGlyphs" textLength="53" x="362" y="710.1807">UserApp</text><!--link QAManager::Gui::Dialog to QAManager::Gui::SheetDialog--><path d="M375.5,473.1019 C375.5,509.7354 375.5,564.7847 375.5,591.8309 " fill="none" id="QAManager::Gui::Dialog-QAManager::Gui::SheetDialog" style="stroke: #A80036; stroke-width: 1.0;"/><polygon fill="none" points="368.5001,473.0873,375.5,453.0873,382.5001,473.0872,368.5001,473.0873" style="stroke: #A80036; stroke-width: 1.0;"/><!--link QAManager::Gui::Set to QAManager::Gui::SheetDialog--><path d="M291.4621,608 C301.4589,608 311.4557,608 321.4525,608 " fill="none" id="QAManager::Gui::Set-QAManager::Gui::SheetDialog" style="stroke: #A80036; stroke-width: 1.0;"/><polygon fill="#A80036" points="286.2344,608,295.2344,612,291.2344,608,295.2344,604,286.2344,608" style="stroke: #A80036; stroke-width: 1.0;"/><!--link QAManager::Gui::Set to QAManager::Set--><path d="M259.5,637.2062 C259.5,649.7064 259.5,664.2725 259.5,676.7748 " fill="none" id="QAManager::Gui::Set-QAManager::Set" style="stroke: #A80036; stroke-width: 1.0;"/><polygon fill="#A80036" points="259.5,689.7933,263.5,680.7933,259.5,684.7933,255.5,680.7933,259.5,689.7933" style="stroke: #A80036; stroke-width: 1.0;"/><line style="stroke: #A80036; stroke-width: 1.0;" x1="259.5" x2="259.5001" y1="684.7933" y2="676.7933"/><polygon fill="#A80036" points="259.5,624.1827,255.5,630.1827,259.5,636.1827,263.5,630.1827,259.5,624.1827" style="stroke: #A80036; stroke-width: 1.0;"/><!--link QAManager::Gui::SheetDialog to UserApp--><path d="M375.5,637.2062 C375.5,649.7064 375.5,664.2725 375.5,676.7748 " fill="none" id="QAManager::Gui::SheetDialog-UserApp" style="stroke: #A80036; stroke-width: 1.0;"/><polygon fill="#A80036" points="375.5,689.7933,379.5,683.7933,375.5,677.7933,371.5,683.7933,375.5,689.7933" style="stroke: #A80036; stroke-width: 1.0;"/><polygon fill="#A80036" points="375.5,624.1827,371.5,633.1827,375.5,629.1827,379.5,633.1827,375.5,624.1827" style="stroke: #A80036; stroke-width: 1.0;"/><line style="stroke: #A80036; stroke-width: 1.0;" x1="375.5" x2="375.5001" y1="629.1827" y2="637.1827"/><!--link QAManager::Gui::Value to QAManager::Gui::QAEntry--><path d="M238.6944,101.2098 C242.9723,133.5505 249.6207,183.8125 254.2466,218.784 " fill="none" id="QAManager::Gui::Value-QAManager::Gui::QAEntry" style="stroke: #A80036; stroke-width: 1.0;"/><polygon fill="#A80036" points="238.0289,96.1782,235.244,105.6251,238.6847,101.135,243.1749,104.5758,238.0289,96.1782" style="stroke: #A80036; stroke-width: 1.0;"/><!--link QAManager::Gui::Frame to QAManager::Gui::QAEntry--><path d="M430.1785,99.5924 C394.8721,132.4639 338.2607,185.1711 300.0123,220.7816 " fill="none" id="QAManager::Gui::Frame-QAManager::Gui::QAEntry" style="stroke: #A80036; stroke-width: 1.0; stroke-dasharray: 7.0,7.0;"/><polygon fill="none" points="425.7845,94.1192,445.1923,85.614,435.3244,104.3657,425.7845,94.1192" style="stroke: #A80036; stroke-width: 1.0;"/><!--link QAManager::Gui::Repeat to QAManager::Gui::QAEntry--><path d="M336.4127,103.8563 C320.286,136.2813 296.1198,184.8707 279.1912,218.9082 " fill="none" id="QAManager::Gui::Repeat-QAManager::Gui::QAEntry" style="stroke: #A80036; stroke-width: 1.0; stroke-dasharray: 7.0,7.0;"/><polygon fill="none" points="330.3116,100.4043,345.4856,85.614,342.8468,106.6387,330.3116,100.4043" style="stroke: #A80036; stroke-width: 1.0;"/><!--link QAManager::Gui::QAEntry to QAManager::Gui::Question--><path d="M259.5,311.3771 C259.5,342.9591 259.5,381.8717 259.5,407.9458 " fill="none" id="QAManager::Gui::QAEntry-QAManager::Gui::Question" style="stroke: #A80036; stroke-width: 1.0;"/><polygon fill="#A80036" points="259.5,420.9825,263.5,414.9825,259.5,408.9825,255.5,414.9825,259.5,420.9825" style="stroke: #A80036; stroke-width: 1.0;"/><polygon fill="#A80036" points="259.5,298.1149,255.5,307.1149,259.5,303.1149,263.5,307.1149,259.5,298.1149" style="stroke: #A80036; stroke-width: 1.0;"/><line style="stroke: #A80036; stroke-width: 1.0;" x1="259.5" x2="259.5001" y1="303.1149" y2="311.115"/><!--link QAManager::Gui::Question to QAManager::Gui::Set--><path d="M259.5,466.0987 C259.5,497.529 259.5,547.3175 259.5,578.7908 " fill="none" id="QAManager::Gui::Question-QAManager::Gui::Set" style="stroke: #A80036; stroke-width: 1.0;"/><polygon fill="#A80036" points="259.5,591.8309,263.5,585.8309,259.5,579.8309,255.5,585.8309,259.5,591.8309" style="stroke: #A80036; stroke-width: 1.0;"/><polygon fill="#A80036" points="259.5,453.0873,255.5,462.0873,259.5,458.0873,263.5,462.0873,259.5,453.0873" style="stroke: #A80036; stroke-width: 1.0;"/><line style="stroke: #A80036; stroke-width: 1.0;" x1="259.5" x2="259.5001" y1="458.0873" y2="466.0873"/><text fill="#000000" font-family="sans-serif" font-size="13" lengthAdjust="spacingAndGlyphs" textLength="70" x="260.5" y="527.1494">$questions</text><text fill="#000000" font-family="sans-serif" font-size="13" lengthAdjust="spacingAndGlyphs" textLength="7" x="251.3406" y="473.0899">*</text><!--
@startuml
skinparam packageStyle rectangle
skinparam stereotypeCBackgroundColor #80ffff
set namespaceSeparator ::
hide empty members

class QAManager::Gui::Frame <<(R,#80ffff)>>
class QAManager::Gui::Repeat <<(R,#80ffff)>>

class QAManager::Gui::Value {
  Array $values
}


class QAManager::Gui::QAEntry <<(R,#80ffff)>> {
  set-value()
  get-value()
  display()
}

note left of QAManager::Gui::QAEntry : QAEntry is one of the\npossible types and can\nbe set at runtime




QAManager::Gui::Dialog <|- - QAManager::Gui::SheetDialog
QAManager::Gui::Set <- QAManager::Gui::SheetDialog
QAManager::Gui::Set *- -> QAManager::Set
QAManager::Gui::SheetDialog <- -* UserApp

QAManager::Gui::Value <- - QAManager::Gui::QAEntry

QAManager::Gui::Frame <|.. QAManager::Gui::QAEntry
QAManager::Gui::Repeat <|.. QAManager::Gui::QAEntry

QAManager::Gui::QAEntry <- -* QAManager::Gui::Question

QAManager::Gui::Question "*" <- -* QAManager::Gui::Set : $questions

@enduml

PlantUML version 1.2019.01(Sat Feb 09 16:32:04 CET 2019)
(LGPL source distribution)
Java Runtime: OpenJDK Runtime Environment
JVM: OpenJDK 64-Bit Server VM
Java Version: 1.8.0_265-b01
Operating System: Linux
OS Version: 5.8.8-100.fc31.x86_64
Default Encoding: UTF-8
Language: en
Country: null
--></g></svg>