<?xml version="1.0" encoding="UTF-8" standalone="no"?><svg xmlns="http://www.w3.org/2000/svg" xmlns:xlink="http://www.w3.org/1999/xlink" contentScriptType="application/ecmascript" contentStyleType="text/css" height="835px" preserveAspectRatio="none" style="width:601px;height:835px;" version="1.1" viewBox="0 0 601 835" width="601px" zoomAndPan="magnify"><defs><filter height="300%" id="f63d9tuw4n7kj" width="300%" x="-1" y="-1"><feGaussianBlur result="blurOut" stdDeviation="2.0"/><feColorMatrix in="blurOut" result="blurOut2" type="matrix" values="0 0 0 0 0 0 0 0 0 0 0 0 0 0 0 0 0 0 .4 0"/><feOffset dx="4.0" dy="4.0" in="blurOut2" result="blurOut3"/><feBlend in="SourceGraphic" in2="blurOut3" mode="normal"/></filter></defs><g><!--cluster QAManager::Gui--><rect fill="#FFFFFF" filter="url(#f63d9tuw4n7kj)" height="724" style="stroke: #000000; stroke-width: 1.5;" width="309" x="14" y="16"/><text fill="#000000" font-family="sans-serif" font-size="14" font-weight="bold" lengthAdjust="spacingAndGlyphs" textLength="129" x="104" y="30.9951">QAManager::Gui</text><!--class QAManager::Gui::Value--><rect fill="#FEFECE" filter="url(#f63d9tuw4n7kj)" height="228.27" id="QAManager::Gui::Value" style="stroke: #A80036; stroke-width: 1.5;" width="213" x="101.5" y="141"/><ellipse cx="186.25" cy="157" fill="#80FFFF" rx="11" ry="11" style="stroke: #A80036; stroke-width: 1.0;"/><path d="M187.4531,157.1406 Q187.8125,157.2188 188.0781,157.5 Q188.3594,157.7656 188.75,158.5469 L190.9844,163 L188.2969,163 L186.7969,159.875 Q186.7344,159.7344 186.625,159.5 Q185.9688,158.1094 185.0781,158.1094 L184.2969,158.1094 L184.2969,163 L181.8594,163 L181.8594,150.6094 L185.3906,150.6094 Q187.7813,150.6094 188.8125,151.4531 Q189.8594,152.2969 189.8594,154.2031 Q189.8594,155.4844 189.2344,156.25 Q188.625,157 187.4531,157.1406 Z M184.2969,152.6719 L184.2969,156.0469 L185.4531,156.0469 Q186.4688,156.0469 186.8906,155.6563 Q187.3281,155.25 187.3281,154.3438 Q187.3281,153.4531 186.8906,153.0625 Q186.4688,152.6719 185.4531,152.6719 L184.2969,152.6719 Z "/><text fill="#000000" font-family="sans-serif" font-size="12" lengthAdjust="spacingAndGlyphs" textLength="35" x="206.75" y="161.1807">Value</text><line style="stroke: #A80036; stroke-width: 1.5;" x1="102.5" x2="313.5" y1="173" y2="173"/><rect fill="none" height="6" style="stroke: #C82930; stroke-width: 1.0;" width="6" x="109.5" y="181.948"/><text fill="#000000" font-family="sans-serif" font-size="11" lengthAdjust="spacingAndGlyphs" textLength="81" x="121.5" y="187.2803">Array $!values</text><rect fill="none" height="6" style="stroke: #C82930; stroke-width: 1.0;" width="6" x="109.5" y="194.844"/><text fill="#000000" font-family="sans-serif" font-size="11" lengthAdjust="spacingAndGlyphs" textLength="187" x="121.5" y="200.1763">QAManager::Question $!question</text><rect fill="none" height="6" style="stroke: #C82930; stroke-width: 1.0;" width="6" x="109.5" y="207.74"/><text fill="#000000" font-family="sans-serif" font-size="11" lengthAdjust="spacingAndGlyphs" textLength="147" x="121.5" y="213.0723">Hash $!user-data-set-part</text><rect fill="none" height="6" style="stroke: #C82930; stroke-width: 1.0;" width="6" x="109.5" y="220.636"/><text fill="#000000" font-family="sans-serif" font-size="11" lengthAdjust="spacingAndGlyphs" textLength="120" x="121.5" y="225.9683">Array $!input-widgets</text><line style="stroke: #A80036; stroke-width: 1.5;" x1="102.5" x2="313.5" y1="232.584" y2="232.584"/><ellipse cx="112.5" cy="244.532" fill="#84BE84" rx="3" ry="3" style="stroke: #038048; stroke-width: 1.0;"/><text fill="#000000" font-family="sans-serif" font-size="11" lengthAdjust="spacingAndGlyphs" textLength="53" x="121.5" y="246.8643">initialize()</text><text fill="#000000" font-family="sans-serif" font-size="11" lengthAdjust="spacingAndGlyphs" textLength="0" x="125.5" y="259.7603"/><rect fill="#F24D5C" height="6" style="stroke: #C82930; stroke-width: 1.0;" width="6" x="109.5" y="267.324"/><text fill="#000000" font-family="sans-serif" font-size="11" lengthAdjust="spacingAndGlyphs" textLength="67" x="121.5" y="272.6563">set-values()</text><rect fill="#F24D5C" height="6" style="stroke: #C82930; stroke-width: 1.0;" width="6" x="109.5" y="280.22"/><text fill="#000000" font-family="sans-serif" font-size="11" lengthAdjust="spacingAndGlyphs" textLength="101" x="121.5" y="285.5522">create-input-row()</text><rect fill="#F24D5C" height="6" style="stroke: #C82930; stroke-width: 1.0;" width="6" x="109.5" y="293.116"/><text fill="#000000" font-family="sans-serif" font-size="11" lengthAdjust="spacingAndGlyphs" textLength="91" x="121.5" y="298.4482">set-status-hint()</text><rect fill="#F24D5C" height="6" style="stroke: #C82930; stroke-width: 1.0;" width="6" x="109.5" y="306.012"/><text fill="#000000" font-family="sans-serif" font-size="11" lengthAdjust="spacingAndGlyphs" textLength="138" x="121.5" y="311.3442">check-on-focus-change()</text><text fill="#000000" font-family="sans-serif" font-size="11" lengthAdjust="spacingAndGlyphs" textLength="0" x="125.5" y="324.2402"/><ellipse cx="112.5" cy="334.7583" fill="#84BE84" rx="3" ry="3" style="stroke: #038048; stroke-width: 1.0;"/><text fill="#000000" font-family="sans-serif" font-size="11" font-style="italic" lengthAdjust="spacingAndGlyphs" textLength="60" x="121.5" y="337.0664">set-value()</text><ellipse cx="112.5" cy="347.563" fill="#84BE84" rx="3" ry="3" style="stroke: #038048; stroke-width: 1.0;"/><text fill="#000000" font-family="sans-serif" font-size="11" font-style="italic" lengthAdjust="spacingAndGlyphs" textLength="61" x="121.5" y="349.8711">get-value()</text><ellipse cx="112.5" cy="360.3677" fill="#84BE84" rx="3" ry="3" style="stroke: #038048; stroke-width: 1.0;"/><text fill="#000000" font-family="sans-serif" font-size="11" font-style="italic" lengthAdjust="spacingAndGlyphs" textLength="85" x="121.5" y="362.6758">create-widget()</text><!--class QAManager::Gui::GtkIOWidget--><rect fill="#FEFECE" filter="url(#f63d9tuw4n7kj)" height="38.1367" id="QAManager::Gui::GtkIOWidget" style="stroke: #A80036; stroke-width: 1.5;" width="111" x="177.5" y="43"/><ellipse cx="192.5" cy="62.0684" fill="#80FFFF" rx="11" ry="11" style="stroke: #A80036; stroke-width: 1.0;"/><path d="M195.4688,67.709 Q194.8906,68.0059 194.25,68.1465 Q193.6094,68.3027 192.9063,68.3027 Q190.4063,68.3027 189.0781,66.6621 Q187.7656,65.0059 187.7656,61.8809 Q187.7656,58.7559 189.0781,57.0996 Q190.4063,55.4434 192.9063,55.4434 Q193.6094,55.4434 194.25,55.5996 Q194.9063,55.7559 195.4688,56.0527 L195.4688,58.7715 Q194.8438,58.1934 194.25,57.9277 Q193.6563,57.6465 193.0313,57.6465 Q191.6875,57.6465 191,58.7246 Q190.3125,59.7871 190.3125,61.8809 Q190.3125,63.9746 191,65.0527 Q191.6875,66.1152 193.0313,66.1152 Q193.6563,66.1152 194.25,65.8496 Q194.8438,65.5684 195.4688,64.9902 L195.4688,67.709 Z "/><text fill="#000000" font-family="sans-serif" font-size="12" lengthAdjust="spacingAndGlyphs" textLength="60" x="216" y="59.2148">Some Gtk</text><text fill="#000000" font-family="sans-serif" font-size="12" lengthAdjust="spacingAndGlyphs" textLength="79" x="206.5" y="73.2832">Input Widget</text><!--class QAManager::Gui::QAIOWidget--><rect fill="#FEFECE" filter="url(#f63d9tuw4n7kj)" height="84.8247" id="QAManager::Gui::QAIOWidget" style="stroke: #A80036; stroke-width: 1.5;" width="111" x="162.5" y="429"/><ellipse cx="177.5" cy="448.0684" fill="#80FFFF" rx="11" ry="11" style="stroke: #A80036; stroke-width: 1.0;"/><path d="M180.4688,453.709 Q179.8906,454.0059 179.25,454.1465 Q178.6094,454.3027 177.9063,454.3027 Q175.4063,454.3027 174.0781,452.6621 Q172.7656,451.0059 172.7656,447.8809 Q172.7656,444.7559 174.0781,443.0996 Q175.4063,441.4434 177.9063,441.4434 Q178.6094,441.4434 179.25,441.5996 Q179.9063,441.7559 180.4688,442.0527 L180.4688,444.7715 Q179.8438,444.1934 179.25,443.9277 Q178.6563,443.6465 178.0313,443.6465 Q176.6875,443.6465 176,444.7246 Q175.3125,445.7871 175.3125,447.8809 Q175.3125,449.9746 176,451.0527 Q176.6875,452.1152 178.0313,452.1152 Q178.6563,452.1152 179.25,451.8496 Q179.8438,451.5684 180.4688,450.9902 L180.4688,453.709 Z "/><text fill="#000000" font-family="sans-serif" font-size="12" lengthAdjust="spacingAndGlyphs" textLength="56" x="203" y="445.2148">Some QA</text><text fill="#000000" font-family="sans-serif" font-size="12" lengthAdjust="spacingAndGlyphs" textLength="79" x="191.5" y="459.2832">Input Widget</text><line style="stroke: #A80036; stroke-width: 1.5;" x1="163.5" x2="272.5" y1="467.1367" y2="467.1367"/><ellipse cx="173.5" cy="479.0847" fill="#84BE84" rx="3" ry="3" style="stroke: #038048; stroke-width: 1.0;"/><text fill="#000000" font-family="sans-serif" font-size="11" lengthAdjust="spacingAndGlyphs" textLength="60" x="182.5" y="481.417">set-value()</text><ellipse cx="173.5" cy="491.9807" fill="#84BE84" rx="3" ry="3" style="stroke: #038048; stroke-width: 1.0;"/><text fill="#000000" font-family="sans-serif" font-size="11" lengthAdjust="spacingAndGlyphs" textLength="60" x="182.5" y="494.313">get-value()</text><ellipse cx="173.5" cy="504.8767" fill="#84BE84" rx="3" ry="3" style="stroke: #038048; stroke-width: 1.0;"/><text fill="#000000" font-family="sans-serif" font-size="11" lengthAdjust="spacingAndGlyphs" textLength="85" x="182.5" y="507.209">create-widget()</text><!--class QAManager::Gui::Set--><rect fill="#FEFECE" filter="url(#f63d9tuw4n7kj)" height="65.792" id="QAManager::Gui::Set" style="stroke: #A80036; stroke-width: 1.5;" width="150" x="22" y="666"/><ellipse cx="82.25" cy="682" fill="#80FFFF" rx="11" ry="11" style="stroke: #A80036; stroke-width: 1.0;"/><path d="M85.2188,687.6406 Q84.6406,687.9375 84,688.0781 Q83.3594,688.2344 82.6563,688.2344 Q80.1563,688.2344 78.8281,686.5938 Q77.5156,684.9375 77.5156,681.8125 Q77.5156,678.6875 78.8281,677.0313 Q80.1563,675.375 82.6563,675.375 Q83.3594,675.375 84,675.5313 Q84.6563,675.6875 85.2188,675.9844 L85.2188,678.7031 Q84.5938,678.125 84,677.8594 Q83.4063,677.5781 82.7813,677.5781 Q81.4375,677.5781 80.75,678.6563 Q80.0625,679.7188 80.0625,681.8125 Q80.0625,683.9063 80.75,684.9844 Q81.4375,686.0469 82.7813,686.0469 Q83.4063,686.0469 84,685.7813 Q84.5938,685.5 85.2188,684.9219 L85.2188,687.6406 Z "/><text fill="#000000" font-family="sans-serif" font-size="12" lengthAdjust="spacingAndGlyphs" textLength="21" x="102.75" y="686.1807">Set</text><line style="stroke: #A80036; stroke-width: 1.5;" x1="23" x2="171" y1="698" y2="698"/><rect fill="none" height="6" style="stroke: #C82930; stroke-width: 1.0;" width="6" x="30" y="706.948"/><text fill="#000000" font-family="sans-serif" font-size="11" lengthAdjust="spacingAndGlyphs" textLength="97" x="42" y="712.2803">Array $questions</text><rect fill="none" height="6" style="stroke: #C82930; stroke-width: 1.0;" width="6" x="30" y="719.844"/><text fill="#000000" font-family="sans-serif" font-size="11" lengthAdjust="spacingAndGlyphs" textLength="124" x="42" y="725.1763">QAManager::Set $!set</text><!--class QAManager::Gui::SheetDialog--><rect fill="#FEFECE" filter="url(#f63d9tuw4n7kj)" height="52.896" id="QAManager::Gui::SheetDialog" style="stroke: #A80036; stroke-width: 1.5;" width="108" x="207" y="672.5"/><ellipse cx="222" cy="688.5" fill="#80FFFF" rx="11" ry="11" style="stroke: #A80036; stroke-width: 1.0;"/><path d="M224.9688,694.1406 Q224.3906,694.4375 223.75,694.5781 Q223.1094,694.7344 222.4063,694.7344 Q219.9063,694.7344 218.5781,693.0938 Q217.2656,691.4375 217.2656,688.3125 Q217.2656,685.1875 218.5781,683.5313 Q219.9063,681.875 222.4063,681.875 Q223.1094,681.875 223.75,682.0313 Q224.4063,682.1875 224.9688,682.4844 L224.9688,685.2031 Q224.3438,684.625 223.75,684.3594 Q223.1563,684.0781 222.5313,684.0781 Q221.1875,684.0781 220.5,685.1563 Q219.8125,686.2188 219.8125,688.3125 Q219.8125,690.4063 220.5,691.4844 Q221.1875,692.5469 222.5313,692.5469 Q223.1563,692.5469 223.75,692.2813 Q224.3438,692 224.9688,691.4219 L224.9688,694.1406 Z "/><text fill="#000000" font-family="sans-serif" font-size="12" lengthAdjust="spacingAndGlyphs" textLength="76" x="236" y="692.6807">SheetDialog</text><line style="stroke: #A80036; stroke-width: 1.5;" x1="208" x2="314" y1="704.5" y2="704.5"/><rect fill="none" height="6" style="stroke: #C82930; stroke-width: 1.0;" width="6" x="215" y="713.448"/><text fill="#000000" font-family="sans-serif" font-size="11" lengthAdjust="spacingAndGlyphs" textLength="66" x="227" y="718.7803">Array $sets</text><!--class QAManager::Gui::Dialog--><rect fill="#FEFECE" filter="url(#f63d9tuw4n7kj)" height="32" id="QAManager::Gui::Dialog" style="stroke: #A80036; stroke-width: 1.5;" width="71" x="225.5" y="574"/><ellipse cx="240.5" cy="590" fill="#80FFFF" rx="11" ry="11" style="stroke: #A80036; stroke-width: 1.0;"/><path d="M243.4688,595.6406 Q242.8906,595.9375 242.25,596.0781 Q241.6094,596.2344 240.9063,596.2344 Q238.4063,596.2344 237.0781,594.5938 Q235.7656,592.9375 235.7656,589.8125 Q235.7656,586.6875 237.0781,585.0313 Q238.4063,583.375 240.9063,583.375 Q241.6094,583.375 242.25,583.5313 Q242.9063,583.6875 243.4688,583.9844 L243.4688,586.7031 Q242.8438,586.125 242.25,585.8594 Q241.6563,585.5781 241.0313,585.5781 Q239.6875,585.5781 239,586.6563 Q238.3125,587.7188 238.3125,589.8125 Q238.3125,591.9063 239,592.9844 Q239.6875,594.0469 241.0313,594.0469 Q241.6563,594.0469 242.25,593.7813 Q242.8438,593.5 243.4688,592.9219 L243.4688,595.6406 Z "/><text fill="#000000" font-family="sans-serif" font-size="12" lengthAdjust="spacingAndGlyphs" textLength="39" x="254.5" y="594.1807">Dialog</text><!--class QAManager::Gui::Frame--><rect fill="#FEFECE" filter="url(#f63d9tuw4n7kj)" height="32" id="QAManager::Gui::Frame" style="stroke: #A80036; stroke-width: 1.5;" width="71" x="71.5" y="46"/><ellipse cx="86.5" cy="62" fill="#80FFFF" rx="11" ry="11" style="stroke: #A80036; stroke-width: 1.0;"/><path d="M89.4688,67.6406 Q88.8906,67.9375 88.25,68.0781 Q87.6094,68.2344 86.9063,68.2344 Q84.4063,68.2344 83.0781,66.5938 Q81.7656,64.9375 81.7656,61.8125 Q81.7656,58.6875 83.0781,57.0313 Q84.4063,55.375 86.9063,55.375 Q87.6094,55.375 88.25,55.5313 Q88.9063,55.6875 89.4688,55.9844 L89.4688,58.7031 Q88.8438,58.125 88.25,57.8594 Q87.6563,57.5781 87.0313,57.5781 Q85.6875,57.5781 85,58.6563 Q84.3125,59.7188 84.3125,61.8125 Q84.3125,63.9063 85,64.9844 Q85.6875,66.0469 87.0313,66.0469 Q87.6563,66.0469 88.25,65.7813 Q88.8438,65.5 89.4688,64.9219 L89.4688,67.6406 Z "/><text fill="#000000" font-family="sans-serif" font-size="12" lengthAdjust="spacingAndGlyphs" textLength="39" x="100.5" y="66.1807">Frame</text><!--class QAManager::Gui::Question--><rect fill="#FEFECE" filter="url(#f63d9tuw4n7kj)" height="32" id="QAManager::Gui::Question" style="stroke: #A80036; stroke-width: 1.5;" width="88" x="53" y="574"/><ellipse cx="68" cy="590" fill="#80FFFF" rx="11" ry="11" style="stroke: #A80036; stroke-width: 1.0;"/><path d="M70.9688,595.6406 Q70.3906,595.9375 69.75,596.0781 Q69.1094,596.2344 68.4063,596.2344 Q65.9063,596.2344 64.5781,594.5938 Q63.2656,592.9375 63.2656,589.8125 Q63.2656,586.6875 64.5781,585.0313 Q65.9063,583.375 68.4063,583.375 Q69.1094,583.375 69.75,583.5313 Q70.4063,583.6875 70.9688,583.9844 L70.9688,586.7031 Q70.3438,586.125 69.75,585.8594 Q69.1563,585.5781 68.5313,585.5781 Q67.1875,585.5781 66.5,586.6563 Q65.8125,587.7188 65.8125,589.8125 Q65.8125,591.9063 66.5,592.9844 Q67.1875,594.0469 68.5313,594.0469 Q69.1563,594.0469 69.75,593.7813 Q70.3438,593.5 70.9688,592.9219 L70.9688,595.6406 Z "/><text fill="#000000" font-family="sans-serif" font-size="12" lengthAdjust="spacingAndGlyphs" textLength="56" x="82" y="594.1807">Question</text><!--class QAManager::Gui::QALabel--><rect fill="#FEFECE" filter="url(#f63d9tuw4n7kj)" height="32" id="QAManager::Gui::QALabel" style="stroke: #A80036; stroke-width: 1.5;" width="82" x="45" y="455.5"/><ellipse cx="60" cy="471.5" fill="#80FFFF" rx="11" ry="11" style="stroke: #A80036; stroke-width: 1.0;"/><path d="M62.9688,477.1406 Q62.3906,477.4375 61.75,477.5781 Q61.1094,477.7344 60.4063,477.7344 Q57.9063,477.7344 56.5781,476.0938 Q55.2656,474.4375 55.2656,471.3125 Q55.2656,468.1875 56.5781,466.5313 Q57.9063,464.875 60.4063,464.875 Q61.1094,464.875 61.75,465.0313 Q62.4063,465.1875 62.9688,465.4844 L62.9688,468.2031 Q62.3438,467.625 61.75,467.3594 Q61.1563,467.0781 60.5313,467.0781 Q59.1875,467.0781 58.5,468.1563 Q57.8125,469.2188 57.8125,471.3125 Q57.8125,473.4063 58.5,474.4844 Q59.1875,475.5469 60.5313,475.5469 Q61.1563,475.5469 61.75,475.2813 Q62.3438,475 62.9688,474.4219 L62.9688,477.1406 Z "/><text fill="#000000" font-family="sans-serif" font-size="12" lengthAdjust="spacingAndGlyphs" textLength="50" x="74" y="475.6807">QALabel</text><path d="M331,436 L331,467.5 L273.7734,471.5 L331,475.5 L331,506.9629 A0,0 0 0 0 331,506.9629 L589,506.9629 A0,0 0 0 0 589,506.9629 L589,446 L579,436 L331,436 A0,0 0 0 0 331,436 " fill="#FBFB77" filter="url(#f63d9tuw4n7kj)" style="stroke: #A80036; stroke-width: 1.0;"/><path d="M579,436 L579,446 L589,446 L579,436 " fill="#FBFB77" style="stroke: #A80036; stroke-width: 1.0;"/><text fill="#000000" font-family="sans-serif" font-size="13" font-weight="bold" lengthAdjust="spacingAndGlyphs" textLength="59" x="337" y="453.1748">QAEntry</text><text fill="#000000" font-family="sans-serif" font-size="13" lengthAdjust="spacingAndGlyphs" textLength="174" x="400" y="453.1494">is one of the possible types</text><text fill="#000000" font-family="sans-serif" font-size="13" lengthAdjust="spacingAndGlyphs" textLength="223" x="337" y="468.3901">and is created at runtime. Also it is</text><text fill="#000000" font-family="sans-serif" font-size="13" lengthAdjust="spacingAndGlyphs" textLength="201" x="337" y="483.6309">responsible for creating the Gtk</text><text fill="#000000" font-family="sans-serif" font-size="13" lengthAdjust="spacingAndGlyphs" textLength="173" x="337" y="498.8716">widgets which are saved by</text><text fill="#000000" font-family="sans-serif" font-size="13" font-weight="bold" lengthAdjust="spacingAndGlyphs" textLength="41" x="514" y="498.897">Value</text><text fill="#000000" font-family="sans-serif" font-size="13" lengthAdjust="spacingAndGlyphs" textLength="4" x="555" y="498.8716">.</text><!--class UserApp--><rect fill="#FEFECE" filter="url(#f63d9tuw4n7kj)" height="32" id="UserApp" style="stroke: #A80036; stroke-width: 1.5;" width="85" x="218.5" y="792"/><ellipse cx="233.5" cy="808" fill="#80FFFF" rx="11" ry="11" style="stroke: #A80036; stroke-width: 1.0;"/><path d="M236.4688,813.6406 Q235.8906,813.9375 235.25,814.0781 Q234.6094,814.2344 233.9063,814.2344 Q231.4063,814.2344 230.0781,812.5938 Q228.7656,810.9375 228.7656,807.8125 Q228.7656,804.6875 230.0781,803.0313 Q231.4063,801.375 233.9063,801.375 Q234.6094,801.375 235.25,801.5313 Q235.9063,801.6875 236.4688,801.9844 L236.4688,804.7031 Q235.8438,804.125 235.25,803.8594 Q234.6563,803.5781 234.0313,803.5781 Q232.6875,803.5781 232,804.6563 Q231.3125,805.7188 231.3125,807.8125 Q231.3125,809.9063 232,810.9844 Q232.6875,812.0469 234.0313,812.0469 Q234.6563,812.0469 235.25,811.7813 Q235.8438,811.5 236.4688,810.9219 L236.4688,813.6406 Z "/><text fill="#000000" font-family="sans-serif" font-size="12" lengthAdjust="spacingAndGlyphs" textLength="53" x="247.5" y="812.1807">UserApp</text><!--link QAManager::Gui::Dialog to QAManager::Gui::SheetDialog--><path d="M261,626.288 C261,641.3155 261,658.4303 261,672.2789 " fill="none" id="QAManager::Gui::Dialog-QAManager::Gui::SheetDialog" style="stroke: #A80036; stroke-width: 1.0;"/><polygon fill="none" points="254.0001,626.0834,261,606.0833,268.0001,626.0833,254.0001,626.0834" style="stroke: #A80036; stroke-width: 1.0;"/><!--link QAManager::Gui::Set to QAManager::Gui::SheetDialog--><path d="M185.5413,699 C188.3265,699 191.1118,699 193.8971,699 " fill="none" id="QAManager::Gui::Set-QAManager::Gui::SheetDialog" style="stroke: #A80036; stroke-width: 1.0;"/><polygon fill="#A80036" points="206.9323,699,200.9323,695,194.9323,699,200.9323,703,206.9323,699" style="stroke: #A80036; stroke-width: 1.0;"/><polygon fill="#A80036" points="172.2734,699,181.2734,703,177.2734,699,181.2734,695,172.2734,699" style="stroke: #A80036; stroke-width: 1.0;"/><line style="stroke: #A80036; stroke-width: 1.0;" x1="177.2734" x2="185.2735" y1="699" y2="698.9999"/><text fill="#000000" font-family="sans-serif" font-size="13" lengthAdjust="spacingAndGlyphs" textLength="7" x="180.0277" y="695.4332">*</text><!--link QAManager::Gui::SheetDialog to UserApp--><path d="M261,738.748 C261,751.9137 261,766.3215 261,778.5695 " fill="none" id="QAManager::Gui::SheetDialog-UserApp" style="stroke: #A80036; stroke-width: 1.0;"/><polygon fill="#A80036" points="261,791.7515,265,785.7515,261,779.7515,257,785.7515,261,791.7515" style="stroke: #A80036; stroke-width: 1.0;"/><polygon fill="#A80036" points="261,725.6644,257,734.6644,261,730.6644,265,734.6644,261,725.6644" style="stroke: #A80036; stroke-width: 1.0;"/><line style="stroke: #A80036; stroke-width: 1.0;" x1="261" x2="261.0001" y1="730.6644" y2="738.6644"/><!--link QAManager::Gui::Value to QAManager::Gui::QAIOWidget--><path d="M214.2073,389.389 C214.8545,403.4 215.473,416.7896 216.0157,428.5406 " fill="none" id="QAManager::Gui::Value-QAManager::Gui::QAIOWidget" style="stroke: #A80036; stroke-width: 1.0; stroke-dasharray: 7.0,7.0;"/><polygon fill="none" points="207.2085,389.5746,213.2782,369.2729,221.1936,388.9286,207.2085,389.5746" style="stroke: #A80036; stroke-width: 1.0;"/><!--link QAManager::Gui::Frame to QAManager::Gui::Value--><path d="M124.7756,95.9672 C131.5281,108.8705 139.6517,124.3938 148.1409,140.6157 " fill="none" id="QAManager::Gui::Frame-QAManager::Gui::Value" style="stroke: #A80036; stroke-width: 1.0;"/><polygon fill="none" points="118.5087,99.089,115.4375,78.1231,130.9129,92.5977,118.5087,99.089" style="stroke: #A80036; stroke-width: 1.0;"/><!--link QAManager::Gui::GtkIOWidget to QAManager::Gui::Value--><path d="M228.8082,94.3606 C227.5308,104.222 226.0419,115.7163 224.4585,127.9402 " fill="none" id="QAManager::Gui::GtkIOWidget-QAManager::Gui::Value" style="stroke: #A80036; stroke-width: 1.0;"/><polygon fill="#A80036" points="222.7791,140.905,227.5168,135.4686,224.3208,129.0044,219.5831,134.4408,222.7791,140.905" style="stroke: #A80036; stroke-width: 1.0;"/><polygon fill="#A80036" points="230.5115,81.2112,225.3884,89.6227,229.8691,86.1698,233.3221,90.6505,230.5115,81.2112" style="stroke: #A80036; stroke-width: 1.0;"/><line style="stroke: #A80036; stroke-width: 1.0;" x1="229.8691" x2="228.8414" y1="86.1698" y2="94.1035"/><text fill="#000000" font-family="sans-serif" font-size="13" lengthAdjust="spacingAndGlyphs" textLength="7" x="221.7524" y="101.2223">*</text><!--link QAManager::Gui::QAIOWidget to QAManager::Gui::Question--><path d="M165.0071,523.398 C150.4779,537.6271 135.362,552.4306 123.0814,564.4575 " fill="none" id="QAManager::Gui::QAIOWidget-QAManager::Gui::Question" style="stroke: #A80036; stroke-width: 1.0;"/><polygon fill="#A80036" points="113.5076,573.8334,120.593,572.4931,122.081,565.4371,114.9955,566.7775,113.5076,573.8334" style="stroke: #A80036; stroke-width: 1.0;"/><polygon fill="#A80036" points="174.3162,514.2812,165.0874,517.7205,170.7439,517.7796,170.6849,523.4362,174.3162,514.2812" style="stroke: #A80036; stroke-width: 1.0;"/><line style="stroke: #A80036; stroke-width: 1.0;" x1="170.7439" x2="165.0284" y1="517.7796" y2="523.3772"/><!--link QAManager::Gui::QALabel to QAManager::Gui::Question--><path d="M88.743,501.0501 C90.4326,519.2507 92.5902,542.4946 94.2762,560.6568 " fill="none" id="QAManager::Gui::QALabel-QAManager::Gui::Question" style="stroke: #A80036; stroke-width: 1.0;"/><polygon fill="#A80036" points="95.4835,573.663,98.9117,567.3189,94.3742,561.7144,90.946,568.0585,95.4835,573.663" style="stroke: #A80036; stroke-width: 1.0;"/><polygon fill="#A80036" points="87.5295,487.9769,84.3786,497.3081,87.9917,492.9555,92.3443,496.5686,87.5295,487.9769" style="stroke: #A80036; stroke-width: 1.0;"/><line style="stroke: #A80036; stroke-width: 1.0;" x1="87.9917" x2="88.7312" y1="492.9555" y2="500.9213"/><!--link QAManager::Gui::Question to QAManager::Gui::Set--><path d="M97,619.2145 C97,629.4048 97,641.1105 97,652.3598 " fill="none" id="QAManager::Gui::Question-QAManager::Gui::Set" style="stroke: #A80036; stroke-width: 1.0;"/><polygon fill="#A80036" points="97,665.7227,101,659.7227,97,653.7227,93,659.7227,97,665.7227" style="stroke: #A80036; stroke-width: 1.0;"/><polygon fill="#A80036" points="97,606.0833,93,615.0833,97,611.0833,101,615.0833,97,606.0833" style="stroke: #A80036; stroke-width: 1.0;"/><line style="stroke: #A80036; stroke-width: 1.0;" x1="97" x2="97.0001" y1="611.0833" y2="619.0834"/><text fill="#000000" font-family="sans-serif" font-size="13" lengthAdjust="spacingAndGlyphs" textLength="7" x="88.8406" y="626.0846">*</text><!--
@startuml
skinparam packageStyle rectangle
skinparam stereotypeCBackgroundColor #80ffff
set namespaceSeparator ::
hide empty members


class QAManager::Gui::Value <<(R,#80ffff)>> {
  +initialize()

  -set-values()
  -create-input-row()
  -set-status-hint()
  -check-on-focus-change()

  +{abstract} set-value()
  +{abstract} get-value()
  +{abstract} create-widget()

  -Array $!values
  -QAManager::Question $!question
  -Hash $!user-data-set-part
  -Array $!input-widgets
}

class "Some Gtk\nInput Widget" as QAManager::Gui::GtkIOWidget

class "Some QA\nInput Widget" as QAManager::Gui::QAIOWidget {
  +set-value()
  +get-value()
  +create-widget()
}

note right of QAManager::Gui::QAIOWidget : <b>QAEntry</b> is one of the possible types\nand is created at runtime. Also it is\nresponsible for creating the Gtk\nwidgets which are saved by <b>Value</b>.

class QAManager::Gui::Set {
  -Array $questions
  -QAManager::Set $!set
}

class QAManager::Gui::SheetDialog {
  -Array $sets
}



QAManager::Gui::Dialog <|- - QAManager::Gui::SheetDialog
QAManager::Gui::Set "*" <-* QAManager::Gui::SheetDialog
QAManager::Gui::SheetDialog <- -* UserApp

QAManager::Gui::Value <|.. QAManager::Gui::QAIOWidget
QAManager::Gui::Frame <|- - QAManager::Gui::Value
QAManager::Gui::GtkIOWidget "*" <- -* QAManager::Gui::Value

QAManager::Gui::QAIOWidget <- -* QAManager::Gui::Question
QAManager::Gui::QALabel <- -* QAManager::Gui::Question

QAManager::Gui::Question "*" <- -* QAManager::Gui::Set

@enduml

PlantUML version 1.2019.01(Sat Feb 09 16:32:04 CET 2019)
(LGPL source distribution)
Java Runtime: OpenJDK Runtime Environment
JVM: OpenJDK 64-Bit Server VM
Java Version: 1.8.0_265-b01
Operating System: Linux
OS Version: 5.8.8-100.fc31.x86_64
Default Encoding: UTF-8
Language: en
Country: null
--></g></svg>