<?xml version="1.0" encoding="UTF-8" standalone="no"?><svg xmlns="http://www.w3.org/2000/svg" xmlns:xlink="http://www.w3.org/1999/xlink" contentScriptType="application/ecmascript" contentStyleType="text/css" height="616px" preserveAspectRatio="none" style="width:563px;height:616px;" version="1.1" viewBox="0 0 563 616" width="563px" zoomAndPan="magnify"><defs><filter height="300%" id="f143nqnakb07io" width="300%" x="-1" y="-1"><feGaussianBlur result="blurOut" stdDeviation="2.0"/><feColorMatrix in="blurOut" result="blurOut2" type="matrix" values="0 0 0 0 0 0 0 0 0 0 0 0 0 0 0 0 0 0 .4 0"/><feOffset dx="4.0" dy="4.0" in="blurOut2" result="blurOut3"/><feBlend in="SourceGraphic" in2="blurOut3" mode="normal"/></filter></defs><g><!--cluster QAManager::Gui--><rect fill="#FFFFFF" filter="url(#f143nqnakb07io)" height="505" style="stroke: #000000; stroke-width: 1.5;" width="373" x="14" y="16"/><text fill="#000000" font-family="sans-serif" font-size="14" font-weight="bold" lengthAdjust="spacingAndGlyphs" textLength="129" x="136" y="30.9951">QAManager::Gui</text><!--class QAManager::Gui::Value--><rect fill="#FEFECE" filter="url(#f143nqnakb07io)" height="99.3101" id="QAManager::Gui::Value" style="stroke: #A80036; stroke-width: 1.5;" width="104" x="275" y="43"/><ellipse cx="306.65" cy="59" fill="#80FFFF" rx="11" ry="11" style="stroke: #A80036; stroke-width: 1.0;"/><path d="M307.8531,59.1406 Q308.2125,59.2188 308.4781,59.5 Q308.7594,59.7656 309.15,60.5469 L311.3844,65 L308.6969,65 L307.1969,61.875 Q307.1344,61.7344 307.025,61.5 Q306.3688,60.1094 305.4781,60.1094 L304.6969,60.1094 L304.6969,65 L302.2594,65 L302.2594,52.6094 L305.7906,52.6094 Q308.1813,52.6094 309.2125,53.4531 Q310.2594,54.2969 310.2594,56.2031 Q310.2594,57.4844 309.6344,58.25 Q309.025,59 307.8531,59.1406 Z M304.6969,54.6719 L304.6969,58.0469 L305.8531,58.0469 Q306.8688,58.0469 307.2906,57.6563 Q307.7281,57.25 307.7281,56.3438 Q307.7281,55.4531 307.2906,55.0625 Q306.8688,54.6719 305.8531,54.6719 L304.6969,54.6719 Z "/><text fill="#000000" font-family="sans-serif" font-size="12" lengthAdjust="spacingAndGlyphs" textLength="35" x="324.35" y="63.1807">Value</text><line style="stroke: #A80036; stroke-width: 1.5;" x1="276" x2="378" y1="75" y2="75"/><rect fill="none" height="6" style="stroke: #C82930; stroke-width: 1.0;" width="6" x="283" y="83.948"/><text fill="#000000" font-family="sans-serif" font-size="11" lengthAdjust="spacingAndGlyphs" textLength="78" x="295" y="89.2803">Array $values</text><line style="stroke: #A80036; stroke-width: 1.5;" x1="276" x2="378" y1="95.896" y2="95.896"/><ellipse cx="286" cy="107.7983" fill="#84BE84" rx="3" ry="3" style="stroke: #038048; stroke-width: 1.0;"/><text fill="#000000" font-family="sans-serif" font-size="11" font-style="italic" lengthAdjust="spacingAndGlyphs" textLength="60" x="295" y="110.1064">set-value()</text><ellipse cx="286" cy="120.603" fill="#84BE84" rx="3" ry="3" style="stroke: #038048; stroke-width: 1.0;"/><text fill="#000000" font-family="sans-serif" font-size="11" font-style="italic" lengthAdjust="spacingAndGlyphs" textLength="61" x="295" y="122.9111">get-value()</text><ellipse cx="286" cy="133.4077" fill="#84BE84" rx="3" ry="3" style="stroke: #038048; stroke-width: 1.0;"/><text fill="#000000" font-family="sans-serif" font-size="11" font-style="italic" lengthAdjust="spacingAndGlyphs" textLength="75" x="295" y="135.7158">check-value()</text><!--class QAManager::Gui::GtkIOWidget--><rect fill="#FEFECE" filter="url(#f143nqnakb07io)" height="38.1367" id="QAManager::Gui::GtkIOWidget" style="stroke: #A80036; stroke-width: 1.5;" width="111" x="128.5" y="73.5"/><ellipse cx="143.5" cy="92.5684" fill="#80FFFF" rx="11" ry="11" style="stroke: #A80036; stroke-width: 1.0;"/><path d="M146.4688,98.209 Q145.8906,98.5059 145.25,98.6465 Q144.6094,98.8027 143.9063,98.8027 Q141.4063,98.8027 140.0781,97.1621 Q138.7656,95.5059 138.7656,92.3809 Q138.7656,89.2559 140.0781,87.5996 Q141.4063,85.9434 143.9063,85.9434 Q144.6094,85.9434 145.25,86.0996 Q145.9063,86.2559 146.4688,86.5527 L146.4688,89.2715 Q145.8438,88.6934 145.25,88.4277 Q144.6563,88.1465 144.0313,88.1465 Q142.6875,88.1465 142,89.2246 Q141.3125,90.2871 141.3125,92.3809 Q141.3125,94.4746 142,95.5527 Q142.6875,96.6152 144.0313,96.6152 Q144.6563,96.6152 145.25,96.3496 Q145.8438,96.0684 146.4688,95.4902 L146.4688,98.209 Z "/><text fill="#000000" font-family="sans-serif" font-size="12" lengthAdjust="spacingAndGlyphs" textLength="60" x="167" y="89.7148">Some Gtk</text><text fill="#000000" font-family="sans-serif" font-size="12" lengthAdjust="spacingAndGlyphs" textLength="79" x="157.5" y="103.7832">Input Widget</text><!--class QAManager::Gui::QAIOWidget--><rect fill="#FEFECE" filter="url(#f143nqnakb07io)" height="105.7207" id="QAManager::Gui::QAIOWidget" style="stroke: #A80036; stroke-width: 1.5;" width="125" x="149.5" y="202"/><ellipse cx="170.8" cy="221.0684" fill="#80FFFF" rx="11" ry="11" style="stroke: #A80036; stroke-width: 1.0;"/><path d="M173.7688,226.709 Q173.1906,227.0059 172.55,227.1465 Q171.9094,227.3027 171.2063,227.3027 Q168.7063,227.3027 167.3781,225.6621 Q166.0656,224.0059 166.0656,220.8809 Q166.0656,217.7559 167.3781,216.0996 Q168.7063,214.4434 171.2063,214.4434 Q171.9094,214.4434 172.55,214.5996 Q173.2063,214.7559 173.7688,215.0527 L173.7688,217.7715 Q173.1438,217.1934 172.55,216.9277 Q171.9563,216.6465 171.3313,216.6465 Q169.9875,216.6465 169.3,217.7246 Q168.6125,218.7871 168.6125,220.8809 Q168.6125,222.9746 169.3,224.0527 Q169.9875,225.1152 171.3313,225.1152 Q171.9563,225.1152 172.55,224.8496 Q173.1438,224.5684 173.7688,223.9902 L173.7688,226.709 Z "/><text fill="#000000" font-family="sans-serif" font-size="12" lengthAdjust="spacingAndGlyphs" textLength="56" x="197.7" y="218.2148">Some QA</text><text fill="#000000" font-family="sans-serif" font-size="12" lengthAdjust="spacingAndGlyphs" textLength="79" x="186.2" y="232.2832">Input Widget</text><line style="stroke: #A80036; stroke-width: 1.5;" x1="150.5" x2="273.5" y1="240.1367" y2="240.1367"/><rect fill="none" height="6" style="stroke: #C82930; stroke-width: 1.0;" width="6" x="157.5" y="249.0847"/><text fill="#000000" font-family="sans-serif" font-size="11" lengthAdjust="spacingAndGlyphs" textLength="99" x="169.5" y="254.417">Array $io-widgets</text><line style="stroke: #A80036; stroke-width: 1.5;" x1="150.5" x2="273.5" y1="261.0327" y2="261.0327"/><ellipse cx="160.5" cy="272.9807" fill="#84BE84" rx="3" ry="3" style="stroke: #038048; stroke-width: 1.0;"/><text fill="#000000" font-family="sans-serif" font-size="11" lengthAdjust="spacingAndGlyphs" textLength="60" x="169.5" y="275.313">set-value()</text><ellipse cx="160.5" cy="285.8767" fill="#84BE84" rx="3" ry="3" style="stroke: #038048; stroke-width: 1.0;"/><text fill="#000000" font-family="sans-serif" font-size="11" lengthAdjust="spacingAndGlyphs" textLength="60" x="169.5" y="288.209">get-value()</text><ellipse cx="160.5" cy="298.7727" fill="#84BE84" rx="3" ry="3" style="stroke: #038048; stroke-width: 1.0;"/><text fill="#000000" font-family="sans-serif" font-size="11" lengthAdjust="spacingAndGlyphs" textLength="48" x="169.5" y="301.105">display()</text><!--class QAManager::Gui::Set--><rect fill="#FEFECE" filter="url(#f143nqnakb07io)" height="52.896" id="QAManager::Gui::Set" style="stroke: #A80036; stroke-width: 1.5;" width="123" x="67.5" y="460"/><ellipse cx="114.25" cy="476" fill="#80FFFF" rx="11" ry="11" style="stroke: #A80036; stroke-width: 1.0;"/><path d="M117.2188,481.6406 Q116.6406,481.9375 116,482.0781 Q115.3594,482.2344 114.6563,482.2344 Q112.1563,482.2344 110.8281,480.5938 Q109.5156,478.9375 109.5156,475.8125 Q109.5156,472.6875 110.8281,471.0313 Q112.1563,469.375 114.6563,469.375 Q115.3594,469.375 116,469.5313 Q116.6563,469.6875 117.2188,469.9844 L117.2188,472.7031 Q116.5938,472.125 116,471.8594 Q115.4063,471.5781 114.7813,471.5781 Q113.4375,471.5781 112.75,472.6563 Q112.0625,473.7188 112.0625,475.8125 Q112.0625,477.9063 112.75,478.9844 Q113.4375,480.0469 114.7813,480.0469 Q115.4063,480.0469 116,479.7813 Q116.5938,479.5 117.2188,478.9219 L117.2188,481.6406 Z "/><text fill="#000000" font-family="sans-serif" font-size="12" lengthAdjust="spacingAndGlyphs" textLength="21" x="134.75" y="480.1807">Set</text><line style="stroke: #A80036; stroke-width: 1.5;" x1="68.5" x2="189.5" y1="492" y2="492"/><rect fill="none" height="6" style="stroke: #C82930; stroke-width: 1.0;" width="6" x="75.5" y="500.948"/><text fill="#000000" font-family="sans-serif" font-size="11" lengthAdjust="spacingAndGlyphs" textLength="97" x="87.5" y="506.2803">Array $questions</text><!--class QAManager::Gui::SheetDialog--><rect fill="#FEFECE" filter="url(#f143nqnakb07io)" height="52.896" id="QAManager::Gui::SheetDialog" style="stroke: #A80036; stroke-width: 1.5;" width="108" x="226" y="460"/><ellipse cx="241" cy="476" fill="#80FFFF" rx="11" ry="11" style="stroke: #A80036; stroke-width: 1.0;"/><path d="M243.9688,481.6406 Q243.3906,481.9375 242.75,482.0781 Q242.1094,482.2344 241.4063,482.2344 Q238.9063,482.2344 237.5781,480.5938 Q236.2656,478.9375 236.2656,475.8125 Q236.2656,472.6875 237.5781,471.0313 Q238.9063,469.375 241.4063,469.375 Q242.1094,469.375 242.75,469.5313 Q243.4063,469.6875 243.9688,469.9844 L243.9688,472.7031 Q243.3438,472.125 242.75,471.8594 Q242.1563,471.5781 241.5313,471.5781 Q240.1875,471.5781 239.5,472.6563 Q238.8125,473.7188 238.8125,475.8125 Q238.8125,477.9063 239.5,478.9844 Q240.1875,480.0469 241.5313,480.0469 Q242.1563,480.0469 242.75,479.7813 Q243.3438,479.5 243.9688,478.9219 L243.9688,481.6406 Z "/><text fill="#000000" font-family="sans-serif" font-size="12" lengthAdjust="spacingAndGlyphs" textLength="76" x="255" y="480.1807">SheetDialog</text><line style="stroke: #A80036; stroke-width: 1.5;" x1="227" x2="333" y1="492" y2="492"/><rect fill="none" height="6" style="stroke: #C82930; stroke-width: 1.0;" width="6" x="234" y="500.948"/><text fill="#000000" font-family="sans-serif" font-size="11" lengthAdjust="spacingAndGlyphs" textLength="66" x="246" y="506.2803">Array $sets</text><!--class QAManager::Gui::Dialog--><rect fill="#FEFECE" filter="url(#f143nqnakb07io)" height="32" id="QAManager::Gui::Dialog" style="stroke: #A80036; stroke-width: 1.5;" width="71" x="244.5" y="368"/><ellipse cx="259.5" cy="384" fill="#80FFFF" rx="11" ry="11" style="stroke: #A80036; stroke-width: 1.0;"/><path d="M262.4688,389.6406 Q261.8906,389.9375 261.25,390.0781 Q260.6094,390.2344 259.9063,390.2344 Q257.4063,390.2344 256.0781,388.5938 Q254.7656,386.9375 254.7656,383.8125 Q254.7656,380.6875 256.0781,379.0313 Q257.4063,377.375 259.9063,377.375 Q260.6094,377.375 261.25,377.5313 Q261.9063,377.6875 262.4688,377.9844 L262.4688,380.7031 Q261.8438,380.125 261.25,379.8594 Q260.6563,379.5781 260.0313,379.5781 Q258.6875,379.5781 258,380.6563 Q257.3125,381.7188 257.3125,383.8125 Q257.3125,385.9063 258,386.9844 Q258.6875,388.0469 260.0313,388.0469 Q260.6563,388.0469 261.25,387.7813 Q261.8438,387.5 262.4688,386.9219 L262.4688,389.6406 Z "/><text fill="#000000" font-family="sans-serif" font-size="12" lengthAdjust="spacingAndGlyphs" textLength="39" x="273.5" y="388.1807">Dialog</text><!--class QAManager::Gui::Frame--><rect fill="#FEFECE" filter="url(#f143nqnakb07io)" height="32" id="QAManager::Gui::Frame" style="stroke: #A80036; stroke-width: 1.5;" width="71" x="22.5" y="76.5"/><ellipse cx="37.5" cy="92.5" fill="#80FFFF" rx="11" ry="11" style="stroke: #A80036; stroke-width: 1.0;"/><path d="M40.4688,98.1406 Q39.8906,98.4375 39.25,98.5781 Q38.6094,98.7344 37.9063,98.7344 Q35.4063,98.7344 34.0781,97.0938 Q32.7656,95.4375 32.7656,92.3125 Q32.7656,89.1875 34.0781,87.5313 Q35.4063,85.875 37.9063,85.875 Q38.6094,85.875 39.25,86.0313 Q39.9063,86.1875 40.4688,86.4844 L40.4688,89.2031 Q39.8438,88.625 39.25,88.3594 Q38.6563,88.0781 38.0313,88.0781 Q36.6875,88.0781 36,89.1563 Q35.3125,90.2188 35.3125,92.3125 Q35.3125,94.4063 36,95.4844 Q36.6875,96.5469 38.0313,96.5469 Q38.6563,96.5469 39.25,96.2813 Q39.8438,96 40.4688,95.4219 L40.4688,98.1406 Z "/><text fill="#000000" font-family="sans-serif" font-size="12" lengthAdjust="spacingAndGlyphs" textLength="39" x="51.5" y="96.6807">Frame</text><!--class QAManager::Gui::Question--><rect fill="#FEFECE" filter="url(#f143nqnakb07io)" height="32" id="QAManager::Gui::Question" style="stroke: #A80036; stroke-width: 1.5;" width="88" x="85" y="368"/><ellipse cx="100" cy="384" fill="#80FFFF" rx="11" ry="11" style="stroke: #A80036; stroke-width: 1.0;"/><path d="M102.9688,389.6406 Q102.3906,389.9375 101.75,390.0781 Q101.1094,390.2344 100.4063,390.2344 Q97.9063,390.2344 96.5781,388.5938 Q95.2656,386.9375 95.2656,383.8125 Q95.2656,380.6875 96.5781,379.0313 Q97.9063,377.375 100.4063,377.375 Q101.1094,377.375 101.75,377.5313 Q102.4063,377.6875 102.9688,377.9844 L102.9688,380.7031 Q102.3438,380.125 101.75,379.8594 Q101.1563,379.5781 100.5313,379.5781 Q99.1875,379.5781 98.5,380.6563 Q97.8125,381.7188 97.8125,383.8125 Q97.8125,385.9063 98.5,386.9844 Q99.1875,388.0469 100.5313,388.0469 Q101.1563,388.0469 101.75,387.7813 Q102.3438,387.5 102.9688,386.9219 L102.9688,389.6406 Z "/><text fill="#000000" font-family="sans-serif" font-size="12" lengthAdjust="spacingAndGlyphs" textLength="56" x="114" y="388.1807">Question</text><!--class QAManager::Gui::QALabel--><rect fill="#FEFECE" filter="url(#f143nqnakb07io)" height="32" id="QAManager::Gui::QALabel" style="stroke: #A80036; stroke-width: 1.5;" width="82" x="32" y="239"/><ellipse cx="47" cy="255" fill="#80FFFF" rx="11" ry="11" style="stroke: #A80036; stroke-width: 1.0;"/><path d="M49.9688,260.6406 Q49.3906,260.9375 48.75,261.0781 Q48.1094,261.2344 47.4063,261.2344 Q44.9063,261.2344 43.5781,259.5938 Q42.2656,257.9375 42.2656,254.8125 Q42.2656,251.6875 43.5781,250.0313 Q44.9063,248.375 47.4063,248.375 Q48.1094,248.375 48.75,248.5313 Q49.4063,248.6875 49.9688,248.9844 L49.9688,251.7031 Q49.3438,251.125 48.75,250.8594 Q48.1563,250.5781 47.5313,250.5781 Q46.1875,250.5781 45.5,251.6563 Q44.8125,252.7188 44.8125,254.8125 Q44.8125,256.9063 45.5,257.9844 Q46.1875,259.0469 47.5313,259.0469 Q48.1563,259.0469 48.75,258.7813 Q49.3438,258.5 49.9688,257.9219 L49.9688,260.6406 Z "/><text fill="#000000" font-family="sans-serif" font-size="12" lengthAdjust="spacingAndGlyphs" textLength="50" x="61" y="259.1807">QALabel</text><path d="M395,227 L395,251 L274.7012,255 L395,259 L395,282.7222 A0,0 0 0 0 395,282.7222 L551,282.7222 A0,0 0 0 0 551,282.7222 L551,237 L541,227 L395,227 A0,0 0 0 0 395,227 " fill="#FBFB77" filter="url(#f143nqnakb07io)" style="stroke: #A80036; stroke-width: 1.0;"/><path d="M541,227 L541,237 L551,237 L541,227 " fill="#FBFB77" style="stroke: #A80036; stroke-width: 1.0;"/><text fill="#000000" font-family="sans-serif" font-size="13" lengthAdjust="spacingAndGlyphs" textLength="135" x="401" y="244.1494">QAEntry is one of the</text><text fill="#000000" font-family="sans-serif" font-size="13" lengthAdjust="spacingAndGlyphs" textLength="133" x="401" y="259.3901">possible types and is</text><text fill="#000000" font-family="sans-serif" font-size="13" lengthAdjust="spacingAndGlyphs" textLength="120" x="401" y="274.6309">created at runtime</text><!--class UserApp--><rect fill="#FEFECE" filter="url(#f143nqnakb07io)" height="32" id="UserApp" style="stroke: #A80036; stroke-width: 1.5;" width="85" x="237.5" y="573"/><ellipse cx="252.5" cy="589" fill="#80FFFF" rx="11" ry="11" style="stroke: #A80036; stroke-width: 1.0;"/><path d="M255.4688,594.6406 Q254.8906,594.9375 254.25,595.0781 Q253.6094,595.2344 252.9063,595.2344 Q250.4063,595.2344 249.0781,593.5938 Q247.7656,591.9375 247.7656,588.8125 Q247.7656,585.6875 249.0781,584.0313 Q250.4063,582.375 252.9063,582.375 Q253.6094,582.375 254.25,582.5313 Q254.9063,582.6875 255.4688,582.9844 L255.4688,585.7031 Q254.8438,585.125 254.25,584.8594 Q253.6563,584.5781 253.0313,584.5781 Q251.6875,584.5781 251,585.6563 Q250.3125,586.7188 250.3125,588.8125 Q250.3125,590.9063 251,591.9844 Q251.6875,593.0469 253.0313,593.0469 Q253.6563,593.0469 254.25,592.7813 Q254.8438,592.5 255.4688,591.9219 L255.4688,594.6406 Z "/><text fill="#000000" font-family="sans-serif" font-size="12" lengthAdjust="spacingAndGlyphs" textLength="53" x="266.5" y="593.1807">UserApp</text><!--link QAManager::Gui::Dialog to QAManager::Gui::SheetDialog--><path d="M280,420.4872 C280,433.4689 280,447.8323 280,459.8369 " fill="none" id="QAManager::Gui::Dialog-QAManager::Gui::SheetDialog" style="stroke: #A80036; stroke-width: 1.0;"/><polygon fill="none" points="273.0001,420.0157,280,400.0156,287.0001,420.0156,273.0001,420.0157" style="stroke: #A80036; stroke-width: 1.0;"/><!--link QAManager::Gui::Set to QAManager::Gui::SheetDialog--><path d="M203.8596,486.5 C206.8435,486.5 209.8274,486.5 212.8113,486.5 " fill="none" id="QAManager::Gui::Set-QAManager::Gui::SheetDialog" style="stroke: #A80036; stroke-width: 1.0;"/><polygon fill="#A80036" points="225.8945,486.5,219.8945,482.5,213.8945,486.5,219.8945,490.5,225.8945,486.5" style="stroke: #A80036; stroke-width: 1.0;"/><polygon fill="#A80036" points="190.6387,486.5,199.6387,490.5,195.6387,486.5,199.6387,482.5,190.6387,486.5" style="stroke: #A80036; stroke-width: 1.0;"/><line style="stroke: #A80036; stroke-width: 1.0;" x1="195.6387" x2="203.6386" y1="486.5" y2="486.4999"/><text fill="#000000" font-family="sans-serif" font-size="13" lengthAdjust="spacingAndGlyphs" textLength="7" x="198.5775" y="482.7564">*</text><!--link QAManager::Gui::SheetDialog to UserApp--><path d="M280,526.2259 C280,537.3528 280,549.244 280,559.6511 " fill="none" id="QAManager::Gui::SheetDialog-UserApp" style="stroke: #A80036; stroke-width: 1.0;"/><polygon fill="#A80036" points="280,572.7117,284,566.7117,280,560.7117,276,566.7117,280,572.7117" style="stroke: #A80036; stroke-width: 1.0;"/><polygon fill="#A80036" points="280,513.1631,276,522.1631,280,518.1631,284,522.1631,280,513.1631" style="stroke: #A80036; stroke-width: 1.0;"/><line style="stroke: #A80036; stroke-width: 1.0;" x1="280" x2="280.0001" y1="518.1631" y2="526.1631"/><!--link QAManager::Gui::Value to QAManager::Gui::QAIOWidget--><path d="M280.1821,158.6557 C269.9736,173.0808 259.2995,188.1638 249.5086,201.9987 " fill="none" id="QAManager::Gui::Value-QAManager::Gui::QAIOWidget" style="stroke: #A80036; stroke-width: 1.0; stroke-dasharray: 7.0,7.0;"/><polygon fill="none" points="274.604,154.4201,291.8713,142.1383,286.0318,162.5075,274.604,154.4201" style="stroke: #A80036; stroke-width: 1.0;"/><!--link QAManager::Gui::GtkIOWidget to QAManager::Gui::QAIOWidget--><path d="M189.5426,124.6669 C192.6899,142.9325 196.7493,166.4912 200.5493,188.5448 " fill="none" id="QAManager::Gui::GtkIOWidget-QAManager::Gui::QAIOWidget" style="stroke: #A80036; stroke-width: 1.0;"/><polygon fill="#A80036" points="202.8093,201.6613,205.7323,195.0692,200.7715,189.8356,197.8485,196.4277,202.8093,201.6613" style="stroke: #A80036; stroke-width: 1.0;"/><polygon fill="#A80036" points="187.3219,111.779,184.9083,121.3275,188.171,116.7064,192.7921,119.969,187.3219,111.779" style="stroke: #A80036; stroke-width: 1.0;"/><line style="stroke: #A80036; stroke-width: 1.0;" x1="188.171" x2="189.5295" y1="116.7064" y2="124.5903"/><text fill="#000000" font-family="sans-serif" font-size="13" lengthAdjust="spacingAndGlyphs" textLength="7" x="180.2696" y="131.81">*</text><!--link QAManager::Gui::Frame to QAManager::Gui::QAIOWidget--><path d="M87.3734,123.4947 C108.3737,145.6541 137.1568,176.0258 161.7711,201.9987 " fill="none" id="QAManager::Gui::Frame-QAManager::Gui::QAIOWidget" style="stroke: #A80036; stroke-width: 1.0;"/><polygon fill="none" points="82.0057,128.007,73.3291,108.6752,92.1674,118.3769,82.0057,128.007" style="stroke: #A80036; stroke-width: 1.0;"/><!--link QAManager::Gui::QAIOWidget to QAManager::Gui::Question--><path d="M170.7222,319.1546 C162.1462,332.4837 153.5574,345.8324 146.4211,356.9238 " fill="none" id="QAManager::Gui::QAIOWidget-QAManager::Gui::Question" style="stroke: #A80036; stroke-width: 1.0;"/><polygon fill="#A80036" points="139.3168,367.9655,145.9272,365.0841,145.8098,357.8739,139.1995,360.7554,139.3168,367.9655" style="stroke: #A80036; stroke-width: 1.0;"/><polygon fill="#A80036" points="177.7615,308.214,169.5278,313.6183,175.056,312.4188,176.2555,317.947,177.7615,308.214" style="stroke: #A80036; stroke-width: 1.0;"/><line style="stroke: #A80036; stroke-width: 1.0;" x1="175.056" x2="170.7274" y1="312.4188" y2="319.1466"/><!--link QAManager::Gui::QALabel to QAManager::Gui::Question--><path d="M85.182,283.0622 C94.5296,304.595 107.3775,334.1911 116.7436,355.7665 " fill="none" id="QAManager::Gui::QALabel-QAManager::Gui::Question" style="stroke: #A80036; stroke-width: 1.0;"/><polygon fill="#A80036" points="121.9328,367.7203,123.2127,360.6237,117.1543,356.7128,115.8744,363.8094,121.9328,367.7203" style="stroke: #A80036; stroke-width: 1.0;"/><polygon fill="#A80036" points="79.9792,271.0771,79.8939,280.9256,81.9702,275.6636,87.2323,277.7399,79.9792,271.0771" style="stroke: #A80036; stroke-width: 1.0;"/><line style="stroke: #A80036; stroke-width: 1.0;" x1="81.9702" x2="85.1559" y1="275.6636" y2="283.0019"/><!--link QAManager::Gui::Question to QAManager::Gui::Set--><path d="M129,413.441 C129,423.8401 129,435.7118 129,446.8187 " fill="none" id="QAManager::Gui::Question-QAManager::Gui::Set" style="stroke: #A80036; stroke-width: 1.0;"/><polygon fill="#A80036" points="129,459.8369,133,453.8369,129,447.8369,125,453.8369,129,459.8369" style="stroke: #A80036; stroke-width: 1.0;"/><polygon fill="#A80036" points="129,400.0156,125,409.0156,129,405.0156,133,409.0156,129,400.0156" style="stroke: #A80036; stroke-width: 1.0;"/><line style="stroke: #A80036; stroke-width: 1.0;" x1="129" x2="129.0001" y1="405.0156" y2="413.0157"/><text fill="#000000" font-family="sans-serif" font-size="13" lengthAdjust="spacingAndGlyphs" textLength="7" x="120.7969" y="420.2899">*</text><!--
@startuml
skinparam packageStyle rectangle
skinparam stereotypeCBackgroundColor #80ffff
set namespaceSeparator ::
hide empty members


class QAManager::Gui::Value <<(R,#80ffff)>> {
  +{abstract} set-value()
  +{abstract} get-value()
  +{abstract} check-value()
  -Array $values
}

class "Some Gtk\nInput Widget" as QAManager::Gui::GtkIOWidget

class "Some QA\nInput Widget" as QAManager::Gui::QAIOWidget {
  -Array $io-widgets
  +set-value()
  +get-value()
  +display()
}

note right of QAManager::Gui::QAIOWidget : QAEntry is one of the\npossible types and is\ncreated at runtime

class QAManager::Gui::Set {
  -Array $questions
}

class QAManager::Gui::SheetDialog {
  -Array $sets
}


QAManager::Gui::Dialog <|- - QAManager::Gui::SheetDialog
QAManager::Gui::Set "*" <-* QAManager::Gui::SheetDialog
QAManager::Gui::SheetDialog <- -* UserApp

QAManager::Gui::Value <|.. QAManager::Gui::QAIOWidget
QAManager::Gui::GtkIOWidget "*" <- -* QAManager::Gui::QAIOWidget
QAManager::Gui::Frame <|- - QAManager::Gui::QAIOWidget

QAManager::Gui::QAIOWidget <- -* QAManager::Gui::Question
QAManager::Gui::QALabel <- -* QAManager::Gui::Question

QAManager::Gui::Question "*" <- -* QAManager::Gui::Set

@enduml

PlantUML version 1.2019.01(Sat Feb 09 16:32:04 CET 2019)
(LGPL source distribution)
Java Runtime: OpenJDK Runtime Environment
JVM: OpenJDK 64-Bit Server VM
Java Version: 1.8.0_265-b01
Operating System: Linux
OS Version: 5.8.8-100.fc31.x86_64
Default Encoding: UTF-8
Language: en
Country: null
--></g></svg>