<?xml version="1.0" encoding="UTF-8" standalone="no"?><svg xmlns="http://www.w3.org/2000/svg" xmlns:xlink="http://www.w3.org/1999/xlink" contentScriptType="application/ecmascript" contentStyleType="text/css" height="554px" preserveAspectRatio="none" style="width:614px;height:554px;" version="1.1" viewBox="0 0 614 554" width="614px" zoomAndPan="magnify"><defs><filter height="300%" id="fs9hj3qy2rle8" width="300%" x="-1" y="-1"><feGaussianBlur result="blurOut" stdDeviation="2.0"/><feColorMatrix in="blurOut" result="blurOut2" type="matrix" values="0 0 0 0 0 0 0 0 0 0 0 0 0 0 0 0 0 0 .4 0"/><feOffset dx="4.0" dy="4.0" in="blurOut2" result="blurOut3"/><feBlend in="SourceGraphic" in2="blurOut3" mode="normal"/></filter></defs><g><!--cluster QAManager--><rect fill="#FFFFFF" filter="url(#fs9hj3qy2rle8)" height="251" style="stroke: #000000; stroke-width: 1.5;" width="324" x="14" y="292"/><text fill="#000000" font-family="sans-serif" font-size="14" font-weight="bold" lengthAdjust="spacingAndGlyphs" textLength="91" x="130.5" y="306.9951">QAManager</text><!--cluster Gnome::Gtk3--><rect fill="#FFFFFF" filter="url(#fs9hj3qy2rle8)" height="67" style="stroke: #000000; stroke-width: 1.5;" width="194" x="323" y="16"/><text fill="#000000" font-family="sans-serif" font-size="14" font-weight="bold" lengthAdjust="spacingAndGlyphs" textLength="105" x="367.5" y="30.9951">Gnome::Gtk3</text><!--cluster QAManager::Gui--><rect fill="#FFFFFF" filter="url(#fs9hj3qy2rle8)" height="67" style="stroke: #000000; stroke-width: 1.5;" width="194" x="292" y="108"/><text fill="#000000" font-family="sans-serif" font-size="14" font-weight="bold" lengthAdjust="spacingAndGlyphs" textLength="129" x="324.5" y="122.9951">QAManager::Gui</text><!--cluster QAManager::Gui::Part--><rect fill="#FFFFFF" filter="url(#fs9hj3qy2rle8)" height="343" style="stroke: #000000; stroke-width: 1.5;" width="202" x="346" y="200"/><text fill="#000000" font-family="sans-serif" font-size="14" font-weight="bold" lengthAdjust="spacingAndGlyphs" textLength="173" x="360.5" y="214.9951">QAManager::Gui::Part</text><!--class QAManager::Category--><rect fill="#FEFECE" filter="url(#fs9hj3qy2rle8)" height="32" id="QAManager::Category" style="stroke: #A80036; stroke-width: 1.5;" width="88" x="22" y="319"/><ellipse cx="37" cy="335" fill="#ADD1B2" rx="11" ry="11" style="stroke: #A80036; stroke-width: 1.0;"/><path d="M39.9688,340.6406 Q39.3906,340.9375 38.75,341.0781 Q38.1094,341.2344 37.4063,341.2344 Q34.9063,341.2344 33.5781,339.5938 Q32.2656,337.9375 32.2656,334.8125 Q32.2656,331.6875 33.5781,330.0313 Q34.9063,328.375 37.4063,328.375 Q38.1094,328.375 38.75,328.5313 Q39.4063,328.6875 39.9688,328.9844 L39.9688,331.7031 Q39.3438,331.125 38.75,330.8594 Q38.1563,330.5781 37.5313,330.5781 Q36.1875,330.5781 35.5,331.6563 Q34.8125,332.7188 34.8125,334.8125 Q34.8125,336.9063 35.5,337.9844 Q36.1875,339.0469 37.5313,339.0469 Q38.1563,339.0469 38.75,338.7813 Q39.3438,338.5 39.9688,337.9219 L39.9688,340.6406 Z "/><text fill="#000000" font-family="sans-serif" font-size="12" lengthAdjust="spacingAndGlyphs" textLength="56" x="51" y="339.1807">Category</text><!--class QAManager::Set--><rect fill="#FEFECE" filter="url(#fs9hj3qy2rle8)" height="32" id="QAManager::Set" style="stroke: #A80036; stroke-width: 1.5;" width="53" x="145.5" y="319"/><ellipse cx="160.5" cy="335" fill="#ADD1B2" rx="11" ry="11" style="stroke: #A80036; stroke-width: 1.0;"/><path d="M163.4688,340.6406 Q162.8906,340.9375 162.25,341.0781 Q161.6094,341.2344 160.9063,341.2344 Q158.4063,341.2344 157.0781,339.5938 Q155.7656,337.9375 155.7656,334.8125 Q155.7656,331.6875 157.0781,330.0313 Q158.4063,328.375 160.9063,328.375 Q161.6094,328.375 162.25,328.5313 Q162.9063,328.6875 163.4688,328.9844 L163.4688,331.7031 Q162.8438,331.125 162.25,330.8594 Q161.6563,330.5781 161.0313,330.5781 Q159.6875,330.5781 159,331.6563 Q158.3125,332.7188 158.3125,334.8125 Q158.3125,336.9063 159,337.9844 Q159.6875,339.0469 161.0313,339.0469 Q161.6563,339.0469 162.25,338.7813 Q162.8438,338.5 163.4688,337.9219 L163.4688,340.6406 Z "/><text fill="#000000" font-family="sans-serif" font-size="12" lengthAdjust="spacingAndGlyphs" textLength="21" x="174.5" y="339.1807">Set</text><!--class QAManager::KV--><rect fill="#FEFECE" filter="url(#fs9hj3qy2rle8)" height="32" id="QAManager::KV" style="stroke: #A80036; stroke-width: 1.5;" width="47" x="179.5" y="411"/><ellipse cx="194.5" cy="427" fill="#ADD1B2" rx="11" ry="11" style="stroke: #A80036; stroke-width: 1.0;"/><path d="M197.4688,432.6406 Q196.8906,432.9375 196.25,433.0781 Q195.6094,433.2344 194.9063,433.2344 Q192.4063,433.2344 191.0781,431.5938 Q189.7656,429.9375 189.7656,426.8125 Q189.7656,423.6875 191.0781,422.0313 Q192.4063,420.375 194.9063,420.375 Q195.6094,420.375 196.25,420.5313 Q196.9063,420.6875 197.4688,420.9844 L197.4688,423.7031 Q196.8438,423.125 196.25,422.8594 Q195.6563,422.5781 195.0313,422.5781 Q193.6875,422.5781 193,423.6563 Q192.3125,424.7188 192.3125,426.8125 Q192.3125,428.9063 193,429.9844 Q193.6875,431.0469 195.0313,431.0469 Q195.6563,431.0469 196.25,430.7813 Q196.8438,430.5 197.4688,429.9219 L197.4688,432.6406 Z "/><text fill="#000000" font-family="sans-serif" font-size="12" lengthAdjust="spacingAndGlyphs" textLength="15" x="208.5" y="431.1807">KV</text><!--class QAManager::QATypes--><rect fill="#FEFECE" filter="url(#fs9hj3qy2rle8)" height="32" id="QAManager::QATypes" style="stroke: #A80036; stroke-width: 1.5;" width="85" x="212.5" y="503"/><ellipse cx="227.5" cy="519" fill="#ADD1B2" rx="11" ry="11" style="stroke: #A80036; stroke-width: 1.0;"/><path d="M230.4688,524.6406 Q229.8906,524.9375 229.25,525.0781 Q228.6094,525.2344 227.9063,525.2344 Q225.4063,525.2344 224.0781,523.5938 Q222.7656,521.9375 222.7656,518.8125 Q222.7656,515.6875 224.0781,514.0313 Q225.4063,512.375 227.9063,512.375 Q228.6094,512.375 229.25,512.5313 Q229.9063,512.6875 230.4688,512.9844 L230.4688,515.7031 Q229.8438,515.125 229.25,514.8594 Q228.6563,514.5781 228.0313,514.5781 Q226.6875,514.5781 226,515.6563 Q225.3125,516.7188 225.3125,518.8125 Q225.3125,520.9063 226,521.9844 Q226.6875,523.0469 228.0313,523.0469 Q228.6563,523.0469 229.25,522.7813 Q229.8438,522.5 230.4688,521.9219 L230.4688,524.6406 Z "/><text fill="#000000" font-family="sans-serif" font-size="12" lengthAdjust="spacingAndGlyphs" textLength="53" x="241.5" y="523.1807">QATypes</text><!--class QAManager::ValueRepr--><rect fill="#FEFECE" filter="url(#fs9hj3qy2rle8)" height="32" id="QAManager::ValueRepr" style="stroke: #A80036; stroke-width: 1.5;" width="96" x="234" y="319"/><ellipse cx="249" cy="335" fill="#ADD1B2" rx="11" ry="11" style="stroke: #A80036; stroke-width: 1.0;"/><path d="M251.9688,340.6406 Q251.3906,340.9375 250.75,341.0781 Q250.1094,341.2344 249.4063,341.2344 Q246.9063,341.2344 245.5781,339.5938 Q244.2656,337.9375 244.2656,334.8125 Q244.2656,331.6875 245.5781,330.0313 Q246.9063,328.375 249.4063,328.375 Q250.1094,328.375 250.75,328.5313 Q251.4063,328.6875 251.9688,328.9844 L251.9688,331.7031 Q251.3438,331.125 250.75,330.8594 Q250.1563,330.5781 249.5313,330.5781 Q248.1875,330.5781 247.5,331.6563 Q246.8125,332.7188 246.8125,334.8125 Q246.8125,336.9063 247.5,337.9844 Q248.1875,339.0469 249.5313,339.0469 Q250.1563,339.0469 250.75,338.7813 Q251.3438,338.5 251.9688,337.9219 L251.9688,340.6406 Z "/><text fill="#000000" font-family="sans-serif" font-size="12" lengthAdjust="spacingAndGlyphs" textLength="64" x="263" y="339.1807">ValueRepr</text><!--class Gnome::Gtk3::Dialog--><rect fill="#FEFECE" filter="url(#fs9hj3qy2rle8)" height="32" id="Gnome::Gtk3::Dialog" style="stroke: #A80036; stroke-width: 1.5;" width="71" x="331.5" y="43"/><ellipse cx="346.5" cy="59" fill="#ADD1B2" rx="11" ry="11" style="stroke: #A80036; stroke-width: 1.0;"/><path d="M349.4688,64.6406 Q348.8906,64.9375 348.25,65.0781 Q347.6094,65.2344 346.9063,65.2344 Q344.4063,65.2344 343.0781,63.5938 Q341.7656,61.9375 341.7656,58.8125 Q341.7656,55.6875 343.0781,54.0313 Q344.4063,52.375 346.9063,52.375 Q347.6094,52.375 348.25,52.5313 Q348.9063,52.6875 349.4688,52.9844 L349.4688,55.7031 Q348.8438,55.125 348.25,54.8594 Q347.6563,54.5781 347.0313,54.5781 Q345.6875,54.5781 345,55.6563 Q344.3125,56.7188 344.3125,58.8125 Q344.3125,60.9063 345,61.9844 Q345.6875,63.0469 347.0313,63.0469 Q347.6563,63.0469 348.25,62.7813 Q348.8438,62.5 349.4688,61.9219 L349.4688,64.6406 Z "/><text fill="#000000" font-family="sans-serif" font-size="12" lengthAdjust="spacingAndGlyphs" textLength="39" x="360.5" y="63.1807">Dialog</text><!--class Gnome::Gtk3::Frame--><rect fill="#FEFECE" filter="url(#fs9hj3qy2rle8)" height="32" id="Gnome::Gtk3::Frame" style="stroke: #A80036; stroke-width: 1.5;" width="71" x="437.5" y="43"/><ellipse cx="452.5" cy="59" fill="#ADD1B2" rx="11" ry="11" style="stroke: #A80036; stroke-width: 1.0;"/><path d="M455.4688,64.6406 Q454.8906,64.9375 454.25,65.0781 Q453.6094,65.2344 452.9063,65.2344 Q450.4063,65.2344 449.0781,63.5938 Q447.7656,61.9375 447.7656,58.8125 Q447.7656,55.6875 449.0781,54.0313 Q450.4063,52.375 452.9063,52.375 Q453.6094,52.375 454.25,52.5313 Q454.9063,52.6875 455.4688,52.9844 L455.4688,55.7031 Q454.8438,55.125 454.25,54.8594 Q453.6563,54.5781 453.0313,54.5781 Q451.6875,54.5781 451,55.6563 Q450.3125,56.7188 450.3125,58.8125 Q450.3125,60.9063 451,61.9844 Q451.6875,63.0469 453.0313,63.0469 Q453.6563,63.0469 454.25,62.7813 Q454.8438,62.5 455.4688,61.9219 L455.4688,64.6406 Z "/><text fill="#000000" font-family="sans-serif" font-size="12" lengthAdjust="spacingAndGlyphs" textLength="39" x="466.5" y="63.1807">Frame</text><!--class QAManager::Gui::Dialog--><rect fill="#FEFECE" filter="url(#fs9hj3qy2rle8)" height="32" id="QAManager::Gui::Dialog" style="stroke: #A80036; stroke-width: 1.5;" width="71" x="300.5" y="135"/><ellipse cx="315.5" cy="151" fill="#ADD1B2" rx="11" ry="11" style="stroke: #A80036; stroke-width: 1.0;"/><path d="M318.4688,156.6406 Q317.8906,156.9375 317.25,157.0781 Q316.6094,157.2344 315.9063,157.2344 Q313.4063,157.2344 312.0781,155.5938 Q310.7656,153.9375 310.7656,150.8125 Q310.7656,147.6875 312.0781,146.0313 Q313.4063,144.375 315.9063,144.375 Q316.6094,144.375 317.25,144.5313 Q317.9063,144.6875 318.4688,144.9844 L318.4688,147.7031 Q317.8438,147.125 317.25,146.8594 Q316.6563,146.5781 316.0313,146.5781 Q314.6875,146.5781 314,147.6563 Q313.3125,148.7188 313.3125,150.8125 Q313.3125,152.9063 314,153.9844 Q314.6875,155.0469 316.0313,155.0469 Q316.6563,155.0469 317.25,154.7813 Q317.8438,154.5 318.4688,153.9219 L318.4688,156.6406 Z "/><text fill="#000000" font-family="sans-serif" font-size="12" lengthAdjust="spacingAndGlyphs" textLength="39" x="329.5" y="155.1807">Dialog</text><!--class QAManager::Gui::Frame--><rect fill="#FEFECE" filter="url(#fs9hj3qy2rle8)" height="32" id="QAManager::Gui::Frame" style="stroke: #A80036; stroke-width: 1.5;" width="71" x="406.5" y="135"/><ellipse cx="421.5" cy="151" fill="#ADD1B2" rx="11" ry="11" style="stroke: #A80036; stroke-width: 1.0;"/><path d="M424.4688,156.6406 Q423.8906,156.9375 423.25,157.0781 Q422.6094,157.2344 421.9063,157.2344 Q419.4063,157.2344 418.0781,155.5938 Q416.7656,153.9375 416.7656,150.8125 Q416.7656,147.6875 418.0781,146.0313 Q419.4063,144.375 421.9063,144.375 Q422.6094,144.375 423.25,144.5313 Q423.9063,144.6875 424.4688,144.9844 L424.4688,147.7031 Q423.8438,147.125 423.25,146.8594 Q422.6563,146.5781 422.0313,146.5781 Q420.6875,146.5781 420,147.6563 Q419.3125,148.7188 419.3125,150.8125 Q419.3125,152.9063 420,153.9844 Q420.6875,155.0469 422.0313,155.0469 Q422.6563,155.0469 423.25,154.7813 Q423.8438,154.5 424.4688,153.9219 L424.4688,156.6406 Z "/><text fill="#000000" font-family="sans-serif" font-size="12" lengthAdjust="spacingAndGlyphs" textLength="39" x="435.5" y="155.1807">Frame</text><!--class QAManager::Gui::Part::Set--><rect fill="#FEFECE" filter="url(#fs9hj3qy2rle8)" height="32" id="QAManager::Gui::Part::Set" style="stroke: #A80036; stroke-width: 1.5;" width="53" x="354.5" y="227"/><ellipse cx="369.5" cy="243" fill="#ADD1B2" rx="11" ry="11" style="stroke: #A80036; stroke-width: 1.0;"/><path d="M372.4688,248.6406 Q371.8906,248.9375 371.25,249.0781 Q370.6094,249.2344 369.9063,249.2344 Q367.4063,249.2344 366.0781,247.5938 Q364.7656,245.9375 364.7656,242.8125 Q364.7656,239.6875 366.0781,238.0313 Q367.4063,236.375 369.9063,236.375 Q370.6094,236.375 371.25,236.5313 Q371.9063,236.6875 372.4688,236.9844 L372.4688,239.7031 Q371.8438,239.125 371.25,238.8594 Q370.6563,238.5781 370.0313,238.5781 Q368.6875,238.5781 368,239.6563 Q367.3125,240.7188 367.3125,242.8125 Q367.3125,244.9063 368,245.9844 Q368.6875,247.0469 370.0313,247.0469 Q370.6563,247.0469 371.25,246.7813 Q371.8438,246.5 372.4688,245.9219 L372.4688,248.6406 Z "/><text fill="#000000" font-family="sans-serif" font-size="12" lengthAdjust="spacingAndGlyphs" textLength="21" x="383.5" y="247.1807">Set</text><!--class QAManager::Gui::Part::KV--><rect fill="#FEFECE" filter="url(#fs9hj3qy2rle8)" height="32" id="QAManager::Gui::Part::KV" style="stroke: #A80036; stroke-width: 1.5;" width="47" x="354.5" y="411"/><ellipse cx="369.5" cy="427" fill="#ADD1B2" rx="11" ry="11" style="stroke: #A80036; stroke-width: 1.0;"/><path d="M372.4688,432.6406 Q371.8906,432.9375 371.25,433.0781 Q370.6094,433.2344 369.9063,433.2344 Q367.4063,433.2344 366.0781,431.5938 Q364.7656,429.9375 364.7656,426.8125 Q364.7656,423.6875 366.0781,422.0313 Q367.4063,420.375 369.9063,420.375 Q370.6094,420.375 371.25,420.5313 Q371.9063,420.6875 372.4688,420.9844 L372.4688,423.7031 Q371.8438,423.125 371.25,422.8594 Q370.6563,422.5781 370.0313,422.5781 Q368.6875,422.5781 368,423.6563 Q367.3125,424.7188 367.3125,426.8125 Q367.3125,428.9063 368,429.9844 Q368.6875,431.0469 370.0313,431.0469 Q370.6563,431.0469 371.25,430.7813 Q371.8438,430.5 372.4688,429.9219 L372.4688,432.6406 Z "/><text fill="#000000" font-family="sans-serif" font-size="12" lengthAdjust="spacingAndGlyphs" textLength="15" x="383.5" y="431.1807">KV</text><!--class QAManager::Gui::Part::GroupFrame--><rect fill="#FEFECE" filter="url(#fs9hj3qy2rle8)" height="32" id="QAManager::Gui::Part::GroupFrame" style="stroke: #A80036; stroke-width: 1.5;" width="109" x="392.5" y="503"/><ellipse cx="407.5" cy="519" fill="#ADD1B2" rx="11" ry="11" style="stroke: #A80036; stroke-width: 1.0;"/><path d="M410.4688,524.6406 Q409.8906,524.9375 409.25,525.0781 Q408.6094,525.2344 407.9063,525.2344 Q405.4063,525.2344 404.0781,523.5938 Q402.7656,521.9375 402.7656,518.8125 Q402.7656,515.6875 404.0781,514.0313 Q405.4063,512.375 407.9063,512.375 Q408.6094,512.375 409.25,512.5313 Q409.9063,512.6875 410.4688,512.9844 L410.4688,515.7031 Q409.8438,515.125 409.25,514.8594 Q408.6563,514.5781 408.0313,514.5781 Q406.6875,514.5781 406,515.6563 Q405.3125,516.7188 405.3125,518.8125 Q405.3125,520.9063 406,521.9844 Q406.6875,523.0469 408.0313,523.0469 Q408.6563,523.0469 409.25,522.7813 Q409.8438,522.5 410.4688,521.9219 L410.4688,524.6406 Z "/><text fill="#000000" font-family="sans-serif" font-size="12" lengthAdjust="spacingAndGlyphs" textLength="77" x="421.5" y="523.1807">GroupFrame</text><!--class QAManager::Gui::Part::EntryFrame--><rect fill="#FEFECE" filter="url(#fs9hj3qy2rle8)" height="32" id="QAManager::Gui::Part::EntryFrame" style="stroke: #A80036; stroke-width: 1.5;" width="103" x="436.5" y="411"/><ellipse cx="451.5" cy="427" fill="#ADD1B2" rx="11" ry="11" style="stroke: #A80036; stroke-width: 1.0;"/><path d="M454.4688,432.6406 Q453.8906,432.9375 453.25,433.0781 Q452.6094,433.2344 451.9063,433.2344 Q449.4063,433.2344 448.0781,431.5938 Q446.7656,429.9375 446.7656,426.8125 Q446.7656,423.6875 448.0781,422.0313 Q449.4063,420.375 451.9063,420.375 Q452.6094,420.375 453.25,420.5313 Q453.9063,420.6875 454.4688,420.9844 L454.4688,423.7031 Q453.8438,423.125 453.25,422.8594 Q452.6563,422.5781 452.0313,422.5781 Q450.6875,422.5781 450,423.6563 Q449.3125,424.7188 449.3125,426.8125 Q449.3125,428.9063 450,429.9844 Q450.6875,431.0469 452.0313,431.0469 Q452.6563,431.0469 453.25,430.7813 Q453.8438,430.5 454.4688,429.9219 L454.4688,432.6406 Z "/><text fill="#000000" font-family="sans-serif" font-size="12" lengthAdjust="spacingAndGlyphs" textLength="71" x="465.5" y="431.1807">EntryFrame</text><!--class QAManager::Gui::Part::Entry--><rect fill="#FEFECE" filter="url(#fs9hj3qy2rle8)" height="32" id="QAManager::Gui::Part::Entry" style="stroke: #A80036; stroke-width: 1.5;" width="64" x="414" y="319"/><ellipse cx="429" cy="335" fill="#ADD1B2" rx="11" ry="11" style="stroke: #A80036; stroke-width: 1.0;"/><path d="M431.9688,340.6406 Q431.3906,340.9375 430.75,341.0781 Q430.1094,341.2344 429.4063,341.2344 Q426.9063,341.2344 425.5781,339.5938 Q424.2656,337.9375 424.2656,334.8125 Q424.2656,331.6875 425.5781,330.0313 Q426.9063,328.375 429.4063,328.375 Q430.1094,328.375 430.75,328.5313 Q431.4063,328.6875 431.9688,328.9844 L431.9688,331.7031 Q431.3438,331.125 430.75,330.8594 Q430.1563,330.5781 429.5313,330.5781 Q428.1875,330.5781 427.5,331.6563 Q426.8125,332.7188 426.8125,334.8125 Q426.8125,336.9063 427.5,337.9844 Q428.1875,339.0469 429.5313,339.0469 Q430.1563,339.0469 430.75,338.7813 Q431.3438,338.5 431.9688,337.9219 L431.9688,340.6406 Z "/><text fill="#000000" font-family="sans-serif" font-size="12" lengthAdjust="spacingAndGlyphs" textLength="32" x="443" y="339.1807">Entry</text><!--link QAManager::Category to QAManager::Set--><path d="M110.3047,335 C120.2923,335 130.2799,335 140.2674,335 " fill="none" id="QAManager::Category-QAManager::Set" style="stroke: #A80036; stroke-width: 1.0;"/><polygon fill="#A80036" points="145.4903,335,136.4903,331,140.4903,335,136.4903,339,145.4903,335" style="stroke: #A80036; stroke-width: 1.0;"/><!--link QAManager::Category to QAManager::KV--><path d="M89.8636,351.0252 C113.6339,366.9877 150.1057,391.4797 175.1777,408.3164 " fill="none" id="QAManager::Category-QAManager::KV" style="stroke: #A80036; stroke-width: 1.0;"/><polygon fill="#A80036" points="179.4099,411.1585,174.1683,402.8203,175.259,408.371,169.7083,409.4617,179.4099,411.1585" style="stroke: #A80036; stroke-width: 1.0;"/><!--link QAManager::Set to QAManager::KV--><path d="M177.3998,351.0252 C182.5248,366.2348 190.2591,389.1882 195.885,405.8845 " fill="none" id="QAManager::Set-QAManager::KV" style="stroke: #A80036; stroke-width: 1.0;"/><polygon fill="#A80036" points="197.5581,410.8498,198.4746,401.0437,195.9614,406.1116,190.8935,403.5984,197.5581,410.8498" style="stroke: #A80036; stroke-width: 1.0;"/><!--link QAManager::KV to QAManager::QATypes--><path d="M212.0577,443.0252 C220.7286,458.3659 233.8521,481.5846 243.3084,498.3149 " fill="none" id="QAManager::KV-QAManager::QATypes" style="stroke: #A80036; stroke-width: 1.0;"/><polygon fill="#A80036" points="245.8716,502.8498,244.9251,493.0465,243.4112,498.497,237.9607,496.9831,245.8716,502.8498" style="stroke: #A80036; stroke-width: 1.0;"/><!--link Gnome::Gtk3::Dialog to QAManager::Gui::Dialog--><path d="M355.0655,94.4184 C350.3677,108.3605 345.2077,123.6738 341.4419,134.8498 " fill="none" id="Gnome::Gtk3::Dialog-QAManager::Gui::Dialog" style="stroke: #A80036; stroke-width: 1.0;"/><polygon fill="none" points="348.5803,91.7429,361.6002,75.0252,361.8474,96.2134,348.5803,91.7429" style="stroke: #A80036; stroke-width: 1.0;"/><!--link QAManager::Gui::Dialog to QAManager::Gui::Part::Set--><path d="M352.844,185.4366 C359.7901,199.6376 367.5053,215.4109 373.1004,226.8498 " fill="none" id="QAManager::Gui::Dialog-QAManager::Gui::Part::Set" style="stroke: #A80036; stroke-width: 1.0;"/><polygon fill="none" points="346.3381,188.0669,343.8384,167.0252,358.9143,181.9154,346.3381,188.0669" style="stroke: #A80036; stroke-width: 1.0;"/><!--link QAManager::Gui::Part::Set to QAManager::Set--><path d="M354.2689,246.8527 C320.2533,252.639 260.5703,265.8083 216,292 C205.8705,297.9526 196.3223,306.7288 188.726,314.8031 " fill="none" id="QAManager::Gui::Part::Set-QAManager::Set" style="stroke: #A80036; stroke-width: 1.0;"/><polygon fill="#A80036" points="185.1597,318.695,194.1891,314.7619,188.5377,315.0086,188.2909,309.3571,185.1597,318.695" style="stroke: #A80036; stroke-width: 1.0;"/><!--link QAManager::Gui::Part::Set to QAManager::Gui::Part::KV--><path d="M380.739,259.0069 C380.1982,292.1743 378.9552,368.4122 378.3474,405.6913 " fill="none" id="QAManager::Gui::Part::Set-QAManager::Gui::Part::KV" style="stroke: #A80036; stroke-width: 1.0;"/><polygon fill="#A80036" points="378.2625,410.8991,382.4088,401.9656,378.3441,405.8998,374.4099,401.835,378.2625,410.8991" style="stroke: #A80036; stroke-width: 1.0;"/><!--link QAManager::Gui::Frame to QAManager::Gui::Part::Set--><path d="M428.3751,171.549 C417.3056,188.2441 401.9081,211.4664 391.7083,226.8498 " fill="none" id="QAManager::Gui::Frame-QAManager::Gui::Part::Set" style="stroke: #A80036; stroke-width: 1.0;"/><polygon fill="#A80036" points="431.3746,167.0252,423.0673,172.3157,428.6115,171.1924,429.7348,176.7366,431.3746,167.0252" style="stroke: #A80036; stroke-width: 1.0;"/><!--link Gnome::Gtk3::Frame to QAManager::Gui::Frame--><path d="M461.0655,94.4184 C456.3677,108.3605 451.2077,123.6738 447.4419,134.8498 " fill="none" id="Gnome::Gtk3::Frame-QAManager::Gui::Frame" style="stroke: #A80036; stroke-width: 1.0;"/><polygon fill="none" points="454.5803,91.7429,467.6002,75.0252,467.8474,96.2134,454.5803,91.7429" style="stroke: #A80036; stroke-width: 1.0;"/><!--link QAManager::Gui::Part::KV to QAManager::QATypes--><path d="M356.575,443.0252 C335.4516,458.8248 303.1561,482.9808 280.6715,499.7986 " fill="none" id="QAManager::Gui::Part::KV-QAManager::QATypes" style="stroke: #A80036; stroke-width: 1.0;"/><polygon fill="#A80036" points="276.5921,502.8498,286.1949,500.6621,280.596,499.8549,281.4032,494.256,276.5921,502.8498" style="stroke: #A80036; stroke-width: 1.0;"/><!--link QAManager::Gui::Part::KV to QAManager::KV--><path d="M354.3412,427 C313.5853,427 272.8295,427 232.0736,427 " fill="none" id="QAManager::Gui::Part::KV-QAManager::KV" style="stroke: #A80036; stroke-width: 1.0;"/><polygon fill="#A80036" points="226.584,427,235.584,431,231.584,427,235.584,423,226.584,427" style="stroke: #A80036; stroke-width: 1.0;"/><!--link QAManager::Set to QAManager::Gui::Part::KV--><path d="M203.7235,348.2721 C238.771,363.0702 296.7699,387.9599 346,411 C348.7003,412.2638 351.513,413.6161 354.301,414.9794 " fill="none" id="QAManager::Set-QAManager::Gui::Part::KV" style="stroke: #A80036; stroke-width: 1.0;"/><polygon fill="#A80036" points="198.7228,346.1634,205.4613,353.3462,203.3299,348.1062,208.5699,345.9748,198.7228,346.1634" style="stroke: #A80036; stroke-width: 1.0;"/><!--link QAManager::Gui::Part::KV to QAManager::Gui::Part::GroupFrame--><path d="M390.0189,443.0252 C401.6228,458.497 419.2365,481.982 431.8069,498.7425 " fill="none" id="QAManager::Gui::Part::KV-QAManager::Gui::Part::GroupFrame" style="stroke: #A80036; stroke-width: 1.0;"/><polygon fill="#A80036" points="434.8873,502.8498,432.6871,493.2499,431.8872,498.8499,426.2872,498.05,434.8873,502.8498" style="stroke: #A80036; stroke-width: 1.0;"/><!--link QAManager::Gui::Part::KV to QAManager::Gui::Part::EntryFrame--><path d="M401.6328,427 C411.4965,427 421.3603,427 431.224,427 " fill="none" id="QAManager::Gui::Part::KV-QAManager::Gui::Part::EntryFrame" style="stroke: #A80036; stroke-width: 1.0;"/><polygon fill="#A80036" points="436.3821,427,427.3821,423,431.3821,427,427.3821,431,436.3821,427" style="stroke: #A80036; stroke-width: 1.0;"/><!--link Gnome::Gtk3::Frame to QAManager::Gui::Part::GroupFrame--><path d="M510.3081,87.8153 C548.4069,120.7943 602,178.6261 602,243 C602,243 602,243 602,335 C602,387 589.7172,402.5824 557,443 C536.0426,468.89 504.017,489.635 479.9168,502.8682 " fill="none" id="Gnome::Gtk3::Frame-QAManager::Gui::Part::GroupFrame" style="stroke: #A80036; stroke-width: 1.0;"/><polygon fill="none" points="505.8361,93.2006,494.8831,75.0613,514.7573,82.4111,505.8361,93.2006" style="stroke: #A80036; stroke-width: 1.0;"/><!--link Gnome::Gtk3::Frame to QAManager::Gui::Part::EntryFrame--><path d="M489.8436,93.7386 C491.5409,98.4412 493.0034,103.2753 494,108 C516.2905,213.6784 501.661,243.1448 496,351 C494.9152,371.6686 492.1818,395.369 490.2118,410.7312 " fill="none" id="Gnome::Gtk3::Frame-QAManager::Gui::Part::EntryFrame" style="stroke: #A80036; stroke-width: 1.0;"/><polygon fill="none" points="483.3617,96.3848,481.8841,75.2467,496.2211,90.8497,483.3617,96.3848" style="stroke: #A80036; stroke-width: 1.0;"/><!--link QAManager::Gui::Part::EntryFrame to QAManager::ValueRepr--><path d="M451.8375,410.8498 C419.8946,396.584 372.857,375.5769 336.3785,359.2855 " fill="none" id="QAManager::Gui::Part::EntryFrame-QAManager::ValueRepr" style="stroke: #A80036; stroke-width: 1.0;"/><polygon fill="none" points="333.2895,365.5724,317.8825,351.0252,338.9985,352.7893,333.2895,365.5724" style="stroke: #A80036; stroke-width: 1.0;"/><!--link QAManager::Gui::Part::Entry to QAManager::Gui::Part::EntryFrame--><path d="M461.7211,369.4366 C468.2041,383.6376 475.405,399.4109 480.6271,410.8498 " fill="none" id="QAManager::Gui::Part::Entry-QAManager::Gui::Part::EntryFrame" style="stroke: #A80036; stroke-width: 1.0;"/><polygon fill="none" points="455.2539,372.126,453.3158,351.0252,467.9896,366.3119,455.2539,372.126" style="stroke: #A80036; stroke-width: 1.0;"/><!--
@startuml
skinparam packageStyle rectangle
set namespaceSeparator ::
hide members


QAManager::Category -> QAManager::Set
QAManager::Category - -> QAManager::KV

QAManager::Set - -> QAManager::KV

QAManager::KV - -> QAManager::QATypes

Gnome::Gtk3::Dialog <|- - QAManager::Gui::Dialog
QAManager::Gui::Dialog <|- - QAManager::Gui::Part::Set

QAManager::Gui::Part::Set - -> QAManager::Set
QAManager::Gui::Part::Set - - -> QAManager::Gui::Part::KV

QAManager::Gui::Frame <- - QAManager::Gui::Part::Set
Gnome::Gtk3::Frame <|- - QAManager::Gui::Frame

QAManager::Gui::Part::KV - -> QAManager::QATypes
QAManager::Gui::Part::KV -> QAManager::KV
QAManager::Set <- - QAManager::Gui::Part::KV
QAManager::Gui::Part::KV - -> QAManager::Gui::Part::GroupFrame
QAManager::Gui::Part::KV -> QAManager::Gui::Part::EntryFrame

Gnome::Gtk3::Frame <|- - QAManager::Gui::Part::GroupFrame
Gnome::Gtk3::Frame <|- - QAManager::Gui::Part::EntryFrame
QAManager::Gui::Part::EntryFrame -|> QAManager::ValueRepr

QAManager::Gui::Part::Entry <|- - QAManager::Gui::Part::EntryFrame

@enduml

PlantUML version 1.2019.01(Sat Feb 09 16:32:04 CET 2019)
(LGPL source distribution)
Java Runtime: OpenJDK Runtime Environment
JVM: OpenJDK 64-Bit Server VM
Java Version: 1.8.0_265-b01
Operating System: Linux
OS Version: 5.8.6-101.fc31.x86_64
Default Encoding: UTF-8
Language: en
Country: null
--></g></svg>