<?xml version="1.0" encoding="UTF-8" standalone="no"?><svg xmlns="http://www.w3.org/2000/svg" xmlns:xlink="http://www.w3.org/1999/xlink" contentScriptType="application/ecmascript" contentStyleType="text/css" height="707px" preserveAspectRatio="none" style="width:497px;height:707px;" version="1.1" viewBox="0 0 497 707" width="497px" zoomAndPan="magnify"><defs><filter height="300%" id="fzopaj81h3600" width="300%" x="-1" y="-1"><feGaussianBlur result="blurOut" stdDeviation="2.0"/><feColorMatrix in="blurOut" result="blurOut2" type="matrix" values="0 0 0 0 0 0 0 0 0 0 0 0 0 0 0 0 0 0 .4 0"/><feOffset dx="4.0" dy="4.0" in="blurOut2" result="blurOut3"/><feBlend in="SourceGraphic" in2="blurOut3" mode="normal"/></filter></defs><g><!--cluster QAManager--><rect fill="#FFFFFF" filter="url(#fzopaj81h3600)" height="251" style="stroke: #000000; stroke-width: 1.5;" width="193" x="27.02" y="445"/><text fill="#000000" font-family="sans-serif" font-size="14" font-weight="bold" lengthAdjust="spacingAndGlyphs" textLength="91" x="78.02" y="459.9951">QAManager</text><!--cluster Gnome::Gtk3--><rect fill="#FFFFFF" filter="url(#fzopaj81h3600)" height="67" style="stroke: #000000; stroke-width: 1.5;" width="194" x="211.02" y="16"/><text fill="#000000" font-family="sans-serif" font-size="14" font-weight="bold" lengthAdjust="spacingAndGlyphs" textLength="105" x="255.52" y="30.9951">Gnome::Gtk3</text><!--cluster QAManager::Gui--><rect fill="#FFFFFF" filter="url(#fzopaj81h3600)" height="159" style="stroke: #000000; stroke-width: 1.5;" width="194" x="157.02" y="169"/><text fill="#000000" font-family="sans-serif" font-size="14" font-weight="bold" lengthAdjust="spacingAndGlyphs" textLength="129" x="189.52" y="183.9951">QAManager::Gui</text><!--cluster QAManager::Gui::Part--><rect fill="#FFFFFF" filter="url(#fzopaj81h3600)" height="251" style="stroke: #000000; stroke-width: 1.5;" width="202" x="238.02" y="353"/><text fill="#000000" font-family="sans-serif" font-size="14" font-weight="bold" lengthAdjust="spacingAndGlyphs" textLength="173" x="252.52" y="367.9951">QAManager::Gui::Part</text><!--cluster QAManager::App::Part--><rect fill="#FFFFFF" filter="url(#fzopaj81h3600)" height="67" style="stroke: #000000; stroke-width: 1.5;" width="194" x="228.02" y="629"/><text fill="#000000" font-family="sans-serif" font-size="14" font-weight="bold" lengthAdjust="spacingAndGlyphs" textLength="178" x="236.02" y="643.9951">QAManager::App::Part</text><!--class QAManager::Category--><rect fill="#FEFECE" filter="url(#fzopaj81h3600)" height="32" id="QAManager::Category" style="stroke: #A80036; stroke-width: 1.5;" width="88" x="35.02" y="472"/><ellipse cx="50.02" cy="488" fill="#ADD1B2" rx="11" ry="11" style="stroke: #A80036; stroke-width: 1.0;"/><path d="M52.9887,493.6406 Q52.4106,493.9375 51.77,494.0781 Q51.1294,494.2344 50.4262,494.2344 Q47.9262,494.2344 46.5981,492.5938 Q45.2856,490.9375 45.2856,487.8125 Q45.2856,484.6875 46.5981,483.0313 Q47.9262,481.375 50.4262,481.375 Q51.1294,481.375 51.77,481.5313 Q52.4262,481.6875 52.9887,481.9844 L52.9887,484.7031 Q52.3637,484.125 51.77,483.8594 Q51.1762,483.5781 50.5512,483.5781 Q49.2075,483.5781 48.52,484.6563 Q47.8325,485.7188 47.8325,487.8125 Q47.8325,489.9063 48.52,490.9844 Q49.2075,492.0469 50.5512,492.0469 Q51.1762,492.0469 51.77,491.7813 Q52.3637,491.5 52.9887,490.9219 L52.9887,493.6406 Z "/><text fill="#000000" font-family="sans-serif" font-size="12" lengthAdjust="spacingAndGlyphs" textLength="56" x="64.02" y="492.1807">Category</text><!--class QAManager::Set--><rect fill="#FEFECE" filter="url(#fzopaj81h3600)" height="32" id="QAManager::Set" style="stroke: #A80036; stroke-width: 1.5;" width="53" x="158.52" y="472"/><ellipse cx="173.52" cy="488" fill="#ADD1B2" rx="11" ry="11" style="stroke: #A80036; stroke-width: 1.0;"/><path d="M176.4888,493.6406 Q175.9106,493.9375 175.27,494.0781 Q174.6294,494.2344 173.9263,494.2344 Q171.4263,494.2344 170.0981,492.5938 Q168.7856,490.9375 168.7856,487.8125 Q168.7856,484.6875 170.0981,483.0313 Q171.4263,481.375 173.9263,481.375 Q174.6294,481.375 175.27,481.5313 Q175.9263,481.6875 176.4888,481.9844 L176.4888,484.7031 Q175.8638,484.125 175.27,483.8594 Q174.6763,483.5781 174.0513,483.5781 Q172.7075,483.5781 172.02,484.6563 Q171.3325,485.7188 171.3325,487.8125 Q171.3325,489.9063 172.02,490.9844 Q172.7075,492.0469 174.0513,492.0469 Q174.6763,492.0469 175.27,491.7813 Q175.8638,491.5 176.4888,490.9219 L176.4888,493.6406 Z "/><text fill="#000000" font-family="sans-serif" font-size="12" lengthAdjust="spacingAndGlyphs" textLength="21" x="187.52" y="492.1807">Set</text><!--class QAManager::KV--><rect fill="#FEFECE" filter="url(#fzopaj81h3600)" height="32" id="QAManager::KV" style="stroke: #A80036; stroke-width: 1.5;" width="47" x="97.52" y="564"/><ellipse cx="112.52" cy="580" fill="#ADD1B2" rx="11" ry="11" style="stroke: #A80036; stroke-width: 1.0;"/><path d="M115.4888,585.6406 Q114.9106,585.9375 114.27,586.0781 Q113.6294,586.2344 112.9263,586.2344 Q110.4263,586.2344 109.0981,584.5938 Q107.7856,582.9375 107.7856,579.8125 Q107.7856,576.6875 109.0981,575.0313 Q110.4263,573.375 112.9263,573.375 Q113.6294,573.375 114.27,573.5313 Q114.9263,573.6875 115.4888,573.9844 L115.4888,576.7031 Q114.8638,576.125 114.27,575.8594 Q113.6763,575.5781 113.0513,575.5781 Q111.7075,575.5781 111.02,576.6563 Q110.3325,577.7188 110.3325,579.8125 Q110.3325,581.9063 111.02,582.9844 Q111.7075,584.0469 113.0513,584.0469 Q113.6763,584.0469 114.27,583.7813 Q114.8638,583.5 115.4888,582.9219 L115.4888,585.6406 Z "/><text fill="#000000" font-family="sans-serif" font-size="12" lengthAdjust="spacingAndGlyphs" textLength="15" x="126.52" y="584.1807">KV</text><!--class QAManager::QATypes--><rect fill="#FEFECE" filter="url(#fzopaj81h3600)" height="32" id="QAManager::QATypes" style="stroke: #A80036; stroke-width: 1.5;" width="85" x="96.52" y="656"/><ellipse cx="111.52" cy="672" fill="#ADD1B2" rx="11" ry="11" style="stroke: #A80036; stroke-width: 1.0;"/><path d="M114.4888,677.6406 Q113.9106,677.9375 113.27,678.0781 Q112.6294,678.2344 111.9263,678.2344 Q109.4263,678.2344 108.0981,676.5938 Q106.7856,674.9375 106.7856,671.8125 Q106.7856,668.6875 108.0981,667.0313 Q109.4263,665.375 111.9263,665.375 Q112.6294,665.375 113.27,665.5313 Q113.9263,665.6875 114.4888,665.9844 L114.4888,668.7031 Q113.8638,668.125 113.27,667.8594 Q112.6763,667.5781 112.0513,667.5781 Q110.7075,667.5781 110.02,668.6563 Q109.3325,669.7188 109.3325,671.8125 Q109.3325,673.9063 110.02,674.9844 Q110.7075,676.0469 112.0513,676.0469 Q112.6763,676.0469 113.27,675.7813 Q113.8638,675.5 114.4888,674.9219 L114.4888,677.6406 Z "/><text fill="#000000" font-family="sans-serif" font-size="12" lengthAdjust="spacingAndGlyphs" textLength="53" x="125.52" y="676.1807">QATypes</text><!--class Gnome::Gtk3::Dialog--><rect fill="#FEFECE" filter="url(#fzopaj81h3600)" height="32" id="Gnome::Gtk3::Dialog" style="stroke: #A80036; stroke-width: 1.5;" width="71" x="219.52" y="43"/><ellipse cx="234.52" cy="59" fill="#ADD1B2" rx="11" ry="11" style="stroke: #A80036; stroke-width: 1.0;"/><path d="M237.4888,64.6406 Q236.9106,64.9375 236.27,65.0781 Q235.6294,65.2344 234.9263,65.2344 Q232.4263,65.2344 231.0981,63.5938 Q229.7856,61.9375 229.7856,58.8125 Q229.7856,55.6875 231.0981,54.0313 Q232.4263,52.375 234.9263,52.375 Q235.6294,52.375 236.27,52.5313 Q236.9263,52.6875 237.4888,52.9844 L237.4888,55.7031 Q236.8638,55.125 236.27,54.8594 Q235.6763,54.5781 235.0513,54.5781 Q233.7075,54.5781 233.02,55.6563 Q232.3325,56.7188 232.3325,58.8125 Q232.3325,60.9063 233.02,61.9844 Q233.7075,63.0469 235.0513,63.0469 Q235.6763,63.0469 236.27,62.7813 Q236.8638,62.5 237.4888,61.9219 L237.4888,64.6406 Z "/><text fill="#000000" font-family="sans-serif" font-size="12" lengthAdjust="spacingAndGlyphs" textLength="39" x="248.52" y="63.1807">Dialog</text><!--class Gnome::Gtk3::Frame--><rect fill="#FEFECE" filter="url(#fzopaj81h3600)" height="32" id="Gnome::Gtk3::Frame" style="stroke: #A80036; stroke-width: 1.5;" width="71" x="325.52" y="43"/><ellipse cx="340.52" cy="59" fill="#ADD1B2" rx="11" ry="11" style="stroke: #A80036; stroke-width: 1.0;"/><path d="M343.4888,64.6406 Q342.9106,64.9375 342.27,65.0781 Q341.6294,65.2344 340.9263,65.2344 Q338.4263,65.2344 337.0981,63.5938 Q335.7856,61.9375 335.7856,58.8125 Q335.7856,55.6875 337.0981,54.0313 Q338.4263,52.375 340.9263,52.375 Q341.6294,52.375 342.27,52.5313 Q342.9263,52.6875 343.4888,52.9844 L343.4888,55.7031 Q342.8638,55.125 342.27,54.8594 Q341.6763,54.5781 341.0513,54.5781 Q339.7075,54.5781 339.02,55.6563 Q338.3325,56.7188 338.3325,58.8125 Q338.3325,60.9063 339.02,61.9844 Q339.7075,63.0469 341.0513,63.0469 Q341.6763,63.0469 342.27,62.7813 Q342.8638,62.5 343.4888,61.9219 L343.4888,64.6406 Z "/><text fill="#000000" font-family="sans-serif" font-size="12" lengthAdjust="spacingAndGlyphs" textLength="39" x="354.52" y="63.1807">Frame</text><!--class QAManager::Gui::Dialog--><rect fill="#FEFECE" filter="url(#fzopaj81h3600)" height="32" id="QAManager::Gui::Dialog" style="stroke: #A80036; stroke-width: 1.5;" width="71" x="165.52" y="196"/><ellipse cx="180.52" cy="212" fill="#ADD1B2" rx="11" ry="11" style="stroke: #A80036; stroke-width: 1.0;"/><path d="M183.4888,217.6406 Q182.9106,217.9375 182.27,218.0781 Q181.6294,218.2344 180.9263,218.2344 Q178.4263,218.2344 177.0981,216.5938 Q175.7856,214.9375 175.7856,211.8125 Q175.7856,208.6875 177.0981,207.0313 Q178.4263,205.375 180.9263,205.375 Q181.6294,205.375 182.27,205.5313 Q182.9263,205.6875 183.4888,205.9844 L183.4888,208.7031 Q182.8638,208.125 182.27,207.8594 Q181.6763,207.5781 181.0513,207.5781 Q179.7075,207.5781 179.02,208.6563 Q178.3325,209.7188 178.3325,211.8125 Q178.3325,213.9063 179.02,214.9844 Q179.7075,216.0469 181.0513,216.0469 Q181.6763,216.0469 182.27,215.7813 Q182.8638,215.5 183.4888,214.9219 L183.4888,217.6406 Z "/><text fill="#000000" font-family="sans-serif" font-size="12" lengthAdjust="spacingAndGlyphs" textLength="39" x="194.52" y="216.1807">Dialog</text><!--class QAManager::Gui::DemoDialog--><rect fill="#FEFECE" filter="url(#fzopaj81h3600)" height="32" id="QAManager::Gui::DemoDialog" style="stroke: #A80036; stroke-width: 1.5;" width="107" x="165.52" y="288"/><ellipse cx="180.52" cy="304" fill="#ADD1B2" rx="11" ry="11" style="stroke: #A80036; stroke-width: 1.0;"/><path d="M183.4888,309.6406 Q182.9106,309.9375 182.27,310.0781 Q181.6294,310.2344 180.9263,310.2344 Q178.4263,310.2344 177.0981,308.5938 Q175.7856,306.9375 175.7856,303.8125 Q175.7856,300.6875 177.0981,299.0313 Q178.4263,297.375 180.9263,297.375 Q181.6294,297.375 182.27,297.5313 Q182.9263,297.6875 183.4888,297.9844 L183.4888,300.7031 Q182.8638,300.125 182.27,299.8594 Q181.6763,299.5781 181.0513,299.5781 Q179.7075,299.5781 179.02,300.6563 Q178.3325,301.7188 178.3325,303.8125 Q178.3325,305.9063 179.02,306.9844 Q179.7075,308.0469 181.0513,308.0469 Q181.6763,308.0469 182.27,307.7813 Q182.8638,307.5 183.4888,306.9219 L183.4888,309.6406 Z "/><text fill="#000000" font-family="sans-serif" font-size="12" lengthAdjust="spacingAndGlyphs" textLength="75" x="194.52" y="308.1807">DemoDialog</text><!--class QAManager::Gui::Frame--><rect fill="#FEFECE" filter="url(#fzopaj81h3600)" height="32" id="QAManager::Gui::Frame" style="stroke: #A80036; stroke-width: 1.5;" width="71" x="271.52" y="196"/><ellipse cx="286.52" cy="212" fill="#ADD1B2" rx="11" ry="11" style="stroke: #A80036; stroke-width: 1.0;"/><path d="M289.4888,217.6406 Q288.9106,217.9375 288.27,218.0781 Q287.6294,218.2344 286.9263,218.2344 Q284.4263,218.2344 283.0981,216.5938 Q281.7856,214.9375 281.7856,211.8125 Q281.7856,208.6875 283.0981,207.0313 Q284.4263,205.375 286.9263,205.375 Q287.6294,205.375 288.27,205.5313 Q288.9263,205.6875 289.4888,205.9844 L289.4888,208.7031 Q288.8638,208.125 288.27,207.8594 Q287.6763,207.5781 287.0513,207.5781 Q285.7075,207.5781 285.02,208.6563 Q284.3325,209.7188 284.3325,211.8125 Q284.3325,213.9063 285.02,214.9844 Q285.7075,216.0469 287.0513,216.0469 Q287.6763,216.0469 288.27,215.7813 Q288.8638,215.5 289.4888,214.9219 L289.4888,217.6406 Z "/><text fill="#000000" font-family="sans-serif" font-size="12" lengthAdjust="spacingAndGlyphs" textLength="39" x="300.52" y="216.1807">Frame</text><!--class QAManager::Gui::Part::Set--><rect fill="#FEFECE" filter="url(#fzopaj81h3600)" height="32" id="QAManager::Gui::Part::Set" style="stroke: #A80036; stroke-width: 1.5;" width="53" x="246.52" y="380"/><ellipse cx="261.52" cy="396" fill="#ADD1B2" rx="11" ry="11" style="stroke: #A80036; stroke-width: 1.0;"/><path d="M264.4888,401.6406 Q263.9106,401.9375 263.27,402.0781 Q262.6294,402.2344 261.9263,402.2344 Q259.4263,402.2344 258.0981,400.5938 Q256.7856,398.9375 256.7856,395.8125 Q256.7856,392.6875 258.0981,391.0313 Q259.4263,389.375 261.9263,389.375 Q262.6294,389.375 263.27,389.5313 Q263.9263,389.6875 264.4888,389.9844 L264.4888,392.7031 Q263.8638,392.125 263.27,391.8594 Q262.6763,391.5781 262.0513,391.5781 Q260.7075,391.5781 260.02,392.6563 Q259.3325,393.7188 259.3325,395.8125 Q259.3325,397.9063 260.02,398.9844 Q260.7075,400.0469 262.0513,400.0469 Q262.6763,400.0469 263.27,399.7813 Q263.8638,399.5 264.4888,398.9219 L264.4888,401.6406 Z "/><text fill="#000000" font-family="sans-serif" font-size="12" lengthAdjust="spacingAndGlyphs" textLength="21" x="275.52" y="400.1807">Set</text><!--class QAManager::Gui::Part::KV--><rect fill="#FEFECE" filter="url(#fzopaj81h3600)" height="32" id="QAManager::Gui::Part::KV" style="stroke: #A80036; stroke-width: 1.5;" width="47" x="246.52" y="472"/><ellipse cx="261.52" cy="488" fill="#ADD1B2" rx="11" ry="11" style="stroke: #A80036; stroke-width: 1.0;"/><path d="M264.4888,493.6406 Q263.9106,493.9375 263.27,494.0781 Q262.6294,494.2344 261.9263,494.2344 Q259.4263,494.2344 258.0981,492.5938 Q256.7856,490.9375 256.7856,487.8125 Q256.7856,484.6875 258.0981,483.0313 Q259.4263,481.375 261.9263,481.375 Q262.6294,481.375 263.27,481.5313 Q263.9263,481.6875 264.4888,481.9844 L264.4888,484.7031 Q263.8638,484.125 263.27,483.8594 Q262.6763,483.5781 262.0513,483.5781 Q260.7075,483.5781 260.02,484.6563 Q259.3325,485.7188 259.3325,487.8125 Q259.3325,489.9063 260.02,490.9844 Q260.7075,492.0469 262.0513,492.0469 Q262.6763,492.0469 263.27,491.7813 Q263.8638,491.5 264.4888,490.9219 L264.4888,493.6406 Z "/><text fill="#000000" font-family="sans-serif" font-size="12" lengthAdjust="spacingAndGlyphs" textLength="15" x="275.52" y="492.1807">KV</text><!--class QAManager::Gui::Part::GroupFrame--><rect fill="#FEFECE" filter="url(#fzopaj81h3600)" height="32" id="QAManager::Gui::Part::GroupFrame" style="stroke: #A80036; stroke-width: 1.5;" width="109" x="322.52" y="564"/><ellipse cx="337.52" cy="580" fill="#ADD1B2" rx="11" ry="11" style="stroke: #A80036; stroke-width: 1.0;"/><path d="M340.4888,585.6406 Q339.9106,585.9375 339.27,586.0781 Q338.6294,586.2344 337.9263,586.2344 Q335.4263,586.2344 334.0981,584.5938 Q332.7856,582.9375 332.7856,579.8125 Q332.7856,576.6875 334.0981,575.0313 Q335.4263,573.375 337.9263,573.375 Q338.6294,573.375 339.27,573.5313 Q339.9263,573.6875 340.4888,573.9844 L340.4888,576.7031 Q339.8638,576.125 339.27,575.8594 Q338.6763,575.5781 338.0513,575.5781 Q336.7075,575.5781 336.02,576.6563 Q335.3325,577.7188 335.3325,579.8125 Q335.3325,581.9063 336.02,582.9844 Q336.7075,584.0469 338.0513,584.0469 Q338.6763,584.0469 339.27,583.7813 Q339.8638,583.5 340.4888,582.9219 L340.4888,585.6406 Z "/><text fill="#000000" font-family="sans-serif" font-size="12" lengthAdjust="spacingAndGlyphs" textLength="77" x="351.52" y="584.1807">GroupFrame</text><!--class QAManager::Gui::Part::EntryFrame--><rect fill="#FEFECE" filter="url(#fzopaj81h3600)" height="32" id="QAManager::Gui::Part::EntryFrame" style="stroke: #A80036; stroke-width: 1.5;" width="103" x="328.52" y="472"/><ellipse cx="343.52" cy="488" fill="#ADD1B2" rx="11" ry="11" style="stroke: #A80036; stroke-width: 1.0;"/><path d="M346.4888,493.6406 Q345.9106,493.9375 345.27,494.0781 Q344.6294,494.2344 343.9263,494.2344 Q341.4263,494.2344 340.0981,492.5938 Q338.7856,490.9375 338.7856,487.8125 Q338.7856,484.6875 340.0981,483.0313 Q341.4263,481.375 343.9263,481.375 Q344.6294,481.375 345.27,481.5313 Q345.9263,481.6875 346.4888,481.9844 L346.4888,484.7031 Q345.8638,484.125 345.27,483.8594 Q344.6763,483.5781 344.0513,483.5781 Q342.7075,483.5781 342.02,484.6563 Q341.3325,485.7188 341.3325,487.8125 Q341.3325,489.9063 342.02,490.9844 Q342.7075,492.0469 344.0513,492.0469 Q344.6763,492.0469 345.27,491.7813 Q345.8638,491.5 346.4888,490.9219 L346.4888,493.6406 Z "/><text fill="#000000" font-family="sans-serif" font-size="12" lengthAdjust="spacingAndGlyphs" textLength="71" x="357.52" y="492.1807">EntryFrame</text><!--class QAManager::App::Part::ValueRepr--><rect fill="#FEFECE" filter="url(#fzopaj81h3600)" height="32" id="QAManager::App::Part::ValueRepr" style="stroke: #A80036; stroke-width: 1.5;" width="96" x="236.02" y="656"/><ellipse cx="251.02" cy="672" fill="#ADD1B2" rx="11" ry="11" style="stroke: #A80036; stroke-width: 1.0;"/><path d="M253.9888,677.6406 Q253.4106,677.9375 252.77,678.0781 Q252.1294,678.2344 251.4263,678.2344 Q248.9263,678.2344 247.5981,676.5938 Q246.2856,674.9375 246.2856,671.8125 Q246.2856,668.6875 247.5981,667.0313 Q248.9263,665.375 251.4263,665.375 Q252.1294,665.375 252.77,665.5313 Q253.4263,665.6875 253.9888,665.9844 L253.9888,668.7031 Q253.3638,668.125 252.77,667.8594 Q252.1763,667.5781 251.5513,667.5781 Q250.2075,667.5781 249.52,668.6563 Q248.8325,669.7188 248.8325,671.8125 Q248.8325,673.9063 249.52,674.9844 Q250.2075,676.0469 251.5513,676.0469 Q252.1763,676.0469 252.77,675.7813 Q253.3638,675.5 253.9888,674.9219 L253.9888,677.6406 Z "/><text fill="#000000" font-family="sans-serif" font-size="12" lengthAdjust="spacingAndGlyphs" textLength="64" x="265.02" y="676.1807">ValueRepr</text><!--link QAManager::Category to QAManager::Set--><path d="M123.3247,488 C133.3123,488 143.2999,488 153.2875,488 " fill="none" id="QAManager::Category-QAManager::Set" style="stroke: #A80036; stroke-width: 1.0;"/><polygon fill="#A80036" points="158.5103,488,149.5103,484,153.5103,488,149.5103,492,158.5103,488" style="stroke: #A80036; stroke-width: 1.0;"/><!--link QAManager::Category to QAManager::KV--><path d="M86.3359,504.0252 C93.2794,519.2348 103.7581,542.1882 111.3804,558.8845 " fill="none" id="QAManager::Category-QAManager::KV" style="stroke: #A80036; stroke-width: 1.0;"/><polygon fill="#A80036" points="113.6471,563.8498,113.5483,554.0014,111.5707,559.3013,106.2708,557.3237,113.6471,563.8498" style="stroke: #A80036; stroke-width: 1.0;"/><!--link QAManager::Set to QAManager::KV--><path d="M173.8721,504.0252 C163.1091,519.497 146.7717,542.982 135.1122,559.7425 " fill="none" id="QAManager::Set-QAManager::KV" style="stroke: #A80036; stroke-width: 1.0;"/><polygon fill="#A80036" points="132.255,563.8498,140.6781,558.7458,135.1103,559.7452,134.1109,554.1774,132.255,563.8498" style="stroke: #A80036; stroke-width: 1.0;"/><!--link QAManager::KV to QAManager::QATypes--><path d="M124.1554,596.0252 C127.1312,611.2348 131.6221,634.1882 134.8887,650.8845 " fill="none" id="QAManager::KV-QAManager::QATypes" style="stroke: #A80036; stroke-width: 1.0;"/><polygon fill="#A80036" points="135.8602,655.8498,138.0575,646.2492,134.9001,650.9429,130.2064,647.7854,135.8602,655.8498" style="stroke: #A80036; stroke-width: 1.0;"/><!--link Gnome::Gtk3::Dialog to QAManager::Gui::Dialog--><path d="M242.6281,94.1105 C231.3757,125.9923 215.2802,171.5962 206.7834,195.6705 " fill="none" id="Gnome::Gtk3::Dialog-QAManager::Gui::Dialog" style="stroke: #A80036; stroke-width: 1.0;"/><polygon fill="none" points="236.0857,91.6146,249.3431,75.0845,249.2876,96.2741,236.0857,91.6146" style="stroke: #A80036; stroke-width: 1.0;"/><!--link QAManager::Gui::Dialog to QAManager::Gui::DemoDialog--><path d="M208.0461,247.911 C210.7479,261.7202 213.6993,276.8053 215.8602,287.8498 " fill="none" id="QAManager::Gui::Dialog-QAManager::Gui::DemoDialog" style="stroke: #A80036; stroke-width: 1.0;"/><polygon fill="none" points="201.126,248.9971,204.1554,228.0252,214.8655,246.3089,201.126,248.9971" style="stroke: #A80036; stroke-width: 1.0;"/><!--link QAManager::Gui::DemoDialog to QAManager::Gui::Part::Set--><path d="M238.6595,337.4598 C247.1412,351.9101 256.6721,368.1479 263.5406,379.8498 " fill="none" id="QAManager::Gui::DemoDialog-QAManager::Gui::Part::Set" style="stroke: #A80036; stroke-width: 1.0;"/><polygon fill="none" points="232.5133,340.8169,228.4261,320.0252,244.5871,333.7301,232.5133,340.8169" style="stroke: #A80036; stroke-width: 1.0;"/><!--link QAManager::Gui::Part::Set to QAManager::Set--><path d="M257.6916,412.0252 C242.767,427.6281 220.0472,451.3807 203.9906,468.1672 " fill="none" id="QAManager::Gui::Part::Set-QAManager::Set" style="stroke: #A80036; stroke-width: 1.0;"/><polygon fill="#A80036" points="200.4681,471.8498,209.5797,468.111,203.9243,468.2366,203.7987,462.5812,200.4681,471.8498" style="stroke: #A80036; stroke-width: 1.0;"/><!--link QAManager::Gui::Part::Set to QAManager::KV--><path d="M246.2162,396.9807 C186.5855,399.7834 45.9255,410.0371 17.02,445 C0.3117,465.2098 5.1477,480.6194 17.02,504 C32.7474,534.9723 67.6782,556.3393 92.7183,568.3544 " fill="none" id="QAManager::Gui::Part::Set-QAManager::KV" style="stroke: #A80036; stroke-width: 1.0;"/><polygon fill="#A80036" points="97.2718,570.4892,90.821,563.0469,92.7447,568.3666,87.425,570.2903,97.2718,570.4892" style="stroke: #A80036; stroke-width: 1.0;"/><!--link QAManager::Gui::Part::Set to QAManager::Gui::Part::KV--><path d="M272.4975,412.0252 C272.0058,427.1037 271.2659,449.7931 270.7227,466.4514 " fill="none" id="QAManager::Gui::Part::Set-QAManager::Gui::Part::KV" style="stroke: #A80036; stroke-width: 1.0;"/><polygon fill="#A80036" points="270.5467,471.8498,274.838,462.985,270.7097,466.8525,266.8422,462.7242,270.5467,471.8498" style="stroke: #A80036; stroke-width: 1.0;"/><!--link QAManager::Gui::Frame to QAManager::Gui::Part::Set--><path d="M304.5496,233.2522 C301.6864,256.5973 296.5181,295.1429 290.02,328 C286.4787,345.9065 281.2509,366.1748 277.5288,379.8894 " fill="none" id="QAManager::Gui::Frame-QAManager::Gui::Part::Set" style="stroke: #A80036; stroke-width: 1.0;"/><polygon fill="#A80036" points="305.1593,228.2253,300.1045,236.6781,304.5572,233.1889,308.0463,237.6415,305.1593,228.2253" style="stroke: #A80036; stroke-width: 1.0;"/><!--link Gnome::Gtk3::Frame to QAManager::Gui::Frame--><path d="M348.6281,94.1105 C337.3757,125.9923 321.2802,171.5962 312.7834,195.6705 " fill="none" id="Gnome::Gtk3::Frame-QAManager::Gui::Frame" style="stroke: #A80036; stroke-width: 1.0;"/><polygon fill="none" points="342.0857,91.6146,355.3431,75.0845,355.2876,96.2741,342.0857,91.6146" style="stroke: #A80036; stroke-width: 1.0;"/><!--link QAManager::Gui::Part::KV to QAManager::QATypes--><path d="M258.6238,504.0069 C234.8165,537.4462 179.8401,614.6649 153.5439,651.6001 " fill="none" id="QAManager::Gui::Part::KV-QAManager::QATypes" style="stroke: #A80036; stroke-width: 1.0;"/><polygon fill="#A80036" points="150.4832,655.8991,158.9616,650.8875,153.3832,651.826,152.4447,646.2475,150.4832,655.8991" style="stroke: #A80036; stroke-width: 1.0;"/><!--link QAManager::Gui::Part::KV to QAManager::KV--><path d="M246.4105,502.5777 C220.0832,518.8335 177.5141,545.1178 149.3964,562.479 " fill="none" id="QAManager::Gui::Part::KV-QAManager::KV" style="stroke: #A80036; stroke-width: 1.0;"/><polygon fill="#A80036" points="145.0125,565.1859,154.7718,563.8609,149.2668,562.559,150.5687,557.054,145.0125,565.1859" style="stroke: #A80036; stroke-width: 1.0;"/><!--link QAManager::Gui::Part::KV to QAManager::Gui::Part::GroupFrame--><path d="M288.658,504.0252 C306.9574,519.7593 334.8951,543.7804 354.444,560.5889 " fill="none" id="QAManager::Gui::Part::KV-QAManager::Gui::Part::GroupFrame" style="stroke: #A80036; stroke-width: 1.0;"/><polygon fill="#A80036" points="358.2366,563.8498,354.0202,554.9491,354.4454,560.59,348.8045,561.0151,358.2366,563.8498" style="stroke: #A80036; stroke-width: 1.0;"/><!--link QAManager::Gui::Part::KV to QAManager::Gui::Part::EntryFrame--><path d="M293.6528,488 C303.5166,488 313.3803,488 323.244,488 " fill="none" id="QAManager::Gui::Part::KV-QAManager::Gui::Part::EntryFrame" style="stroke: #A80036; stroke-width: 1.0;"/><polygon fill="#A80036" points="328.4021,488,319.4021,484,323.4021,488,319.4021,492,328.4021,488" style="stroke: #A80036; stroke-width: 1.0;"/><!--link Gnome::Gtk3::Frame to QAManager::Gui::Part::GroupFrame--><path d="M403.9109,87.0714 C439.7457,114.2755 485.02,159.1111 485.02,212 C485.02,212 485.02,212 485.02,396 C485.02,446.5964 475.0363,460.6047 449.02,504 C435.0016,527.3828 412.6918,549.4564 396.6199,563.7272 " fill="none" id="Gnome::Gtk3::Frame-QAManager::Gui::Part::GroupFrame" style="stroke: #A80036; stroke-width: 1.0;"/><polygon fill="none" points="399.493,92.5173,387.3172,75.175,407.6502,81.1392,399.493,92.5173" style="stroke: #A80036; stroke-width: 1.0;"/><!--link Gnome::Gtk3::Frame to QAManager::Gui::Part::EntryFrame--><path d="M374.1784,94.1814 C384.4607,124.8425 397.02,170.7388 397.02,212 C397.02,212 397.02,212 397.02,304 C397.02,366.2362 387.2573,439.8131 382.5284,471.8015 " fill="none" id="Gnome::Gtk3::Frame-QAManager::Gui::Part::EntryFrame" style="stroke: #A80036; stroke-width: 1.0;"/><polygon fill="none" points="367.5458,96.4216,367.4561,75.2321,380.7401,91.7408,367.5458,96.4216" style="stroke: #A80036; stroke-width: 1.0;"/><!--link QAManager::Gui::Part::EntryFrame to QAManager::App::Part::ValueRepr--><path d="M358.0723,504.2097 C340.8877,518.1241 317.8206,539.7339 305.02,564 C293.3786,586.0686 288.1498,613.7348 285.8205,635.5405 " fill="none" id="QAManager::Gui::Part::EntryFrame-QAManager::App::Part::ValueRepr" style="stroke: #A80036; stroke-width: 1.0;"/><polygon fill="none" points="292.7869,636.2487,284.2953,655.6625,278.827,635.1906,292.7869,636.2487" style="stroke: #A80036; stroke-width: 1.0;"/><!--
@startuml
skinparam packageStyle rectangle
set namespaceSeparator ::
hide members

QAManager::Category -> QAManager::Set
QAManager::Category - -> QAManager::KV

QAManager::Set - -> QAManager::KV

QAManager::KV - -> QAManager::QATypes

Gnome::Gtk3::Dialog <|- - - QAManager::Gui::Dialog
QAManager::Gui::Dialog <|- - QAManager::Gui::DemoDialog
QAManager::Gui::DemoDialog <|- - QAManager::Gui::Part::Set

QAManager::Gui::Part::Set - -> QAManager::Set
QAManager::Gui::Part::Set - -> QAManager::KV
QAManager::Gui::Part::Set - -> QAManager::Gui::Part::KV

QAManager::Gui::Frame <- - QAManager::Gui::Part::Set 
Gnome::Gtk3::Frame <|- - QAManager::Gui::Frame

QAManager::Gui::Part::KV - -> QAManager::QATypes
QAManager::Gui::Part::KV - -> QAManager::KV
QAManager::Gui::Part::KV - -> QAManager::Gui::Part::GroupFrame
QAManager::Gui::Part::KV -> QAManager::Gui::Part::EntryFrame

Gnome::Gtk3::Frame <|- - QAManager::Gui::Part::GroupFrame
Gnome::Gtk3::Frame <|- - QAManager::Gui::Part::EntryFrame
QAManager::Gui::Part::EntryFrame - - -|> QAManager::App::Part::ValueRepr

@enduml

PlantUML version 1.2019.01(Sat Feb 09 16:32:04 CET 2019)
(LGPL source distribution)
Java Runtime: OpenJDK Runtime Environment
JVM: OpenJDK 64-Bit Server VM
Java Version: 1.8.0_265-b01
Operating System: Linux
OS Version: 5.8.6-101.fc31.x86_64
Default Encoding: UTF-8
Language: en
Country: null
--></g></svg>