<?xml version="1.0" encoding="UTF-8" standalone="no"?><svg xmlns="http://www.w3.org/2000/svg" xmlns:xlink="http://www.w3.org/1999/xlink" contentScriptType="application/ecmascript" contentStyleType="text/css" height="462px" preserveAspectRatio="none" style="width:625px;height:462px;" version="1.1" viewBox="0 0 625 462" width="625px" zoomAndPan="magnify"><defs><filter height="300%" id="fi68b3qovptt2" width="300%" x="-1" y="-1"><feGaussianBlur result="blurOut" stdDeviation="2.0"/><feColorMatrix in="blurOut" result="blurOut2" type="matrix" values="0 0 0 0 0 0 0 0 0 0 0 0 0 0 0 0 0 0 .4 0"/><feOffset dx="4.0" dy="4.0" in="blurOut2" result="blurOut3"/><feBlend in="SourceGraphic" in2="blurOut3" mode="normal"/></filter></defs><g><!--cluster QAManager::App--><rect fill="#FFFFFF" filter="url(#fi68b3qovptt2)" height="67" style="stroke: #000000; stroke-width: 1.5;" width="150" x="187" y="16"/><text fill="#000000" font-family="sans-serif" font-size="14" font-weight="bold" lengthAdjust="spacingAndGlyphs" textLength="134" x="195" y="30.9951">QAManager::App</text><!--cluster QAManager::App::Page--><rect fill="#FFFFFF" filter="url(#fi68b3qovptt2)" height="67" style="stroke: #000000; stroke-width: 1.5;" width="201" x="155" y="108"/><text fill="#000000" font-family="sans-serif" font-size="14" font-weight="bold" lengthAdjust="spacingAndGlyphs" textLength="185" x="163" y="122.9951">QAManager::App::Page</text><!--cluster QAManager--><rect fill="#FFFFFF" filter="url(#fi68b3qovptt2)" height="251" style="stroke: #000000; stroke-width: 1.5;" width="193" x="14" y="200"/><text fill="#000000" font-family="sans-serif" font-size="14" font-weight="bold" lengthAdjust="spacingAndGlyphs" textLength="91" x="65" y="214.9951">QAManager</text><!--cluster QAManager::Gui--><rect fill="#FFFFFF" filter="url(#fi68b3qovptt2)" height="67" style="stroke: #000000; stroke-width: 1.5;" width="317" x="297" y="200"/><text fill="#000000" font-family="sans-serif" font-size="14" font-weight="bold" lengthAdjust="spacingAndGlyphs" textLength="129" x="391" y="214.9951">QAManager::Gui</text><!--cluster Gnome::Gtk3--><rect fill="#FFFFFF" filter="url(#fi68b3qovptt2)" height="67" style="stroke: #000000; stroke-width: 1.5;" width="236" x="365" y="16"/><text fill="#000000" font-family="sans-serif" font-size="14" font-weight="bold" lengthAdjust="spacingAndGlyphs" textLength="105" x="430.5" y="30.9951">Gnome::Gtk3</text><!--class QAManager::App::Application--><rect fill="#FEFECE" filter="url(#fi68b3qovptt2)" height="32" id="QAManager::App::Application" style="stroke: #A80036; stroke-width: 1.5;" width="101" x="204.5" y="43"/><ellipse cx="219.5" cy="59" fill="#ADD1B2" rx="11" ry="11" style="stroke: #A80036; stroke-width: 1.0;"/><path d="M222.4688,64.6406 Q221.8906,64.9375 221.25,65.0781 Q220.6094,65.2344 219.9063,65.2344 Q217.4063,65.2344 216.0781,63.5938 Q214.7656,61.9375 214.7656,58.8125 Q214.7656,55.6875 216.0781,54.0313 Q217.4063,52.375 219.9063,52.375 Q220.6094,52.375 221.25,52.5313 Q221.9063,52.6875 222.4688,52.9844 L222.4688,55.7031 Q221.8438,55.125 221.25,54.8594 Q220.6563,54.5781 220.0313,54.5781 Q218.6875,54.5781 218,55.6563 Q217.3125,56.7188 217.3125,58.8125 Q217.3125,60.9063 218,61.9844 Q218.6875,63.0469 220.0313,63.0469 Q220.6563,63.0469 221.25,62.7813 Q221.8438,62.5 222.4688,61.9219 L222.4688,64.6406 Z "/><text fill="#000000" font-family="sans-serif" font-size="12" lengthAdjust="spacingAndGlyphs" textLength="69" x="233.5" y="63.1807">Application</text><!--class QAManager::App::Page::Set--><rect fill="#FEFECE" filter="url(#fi68b3qovptt2)" height="32" id="QAManager::App::Page::Set" style="stroke: #A80036; stroke-width: 1.5;" width="53" x="228.5" y="135"/><ellipse cx="243.5" cy="151" fill="#ADD1B2" rx="11" ry="11" style="stroke: #A80036; stroke-width: 1.0;"/><path d="M246.4688,156.6406 Q245.8906,156.9375 245.25,157.0781 Q244.6094,157.2344 243.9063,157.2344 Q241.4063,157.2344 240.0781,155.5938 Q238.7656,153.9375 238.7656,150.8125 Q238.7656,147.6875 240.0781,146.0313 Q241.4063,144.375 243.9063,144.375 Q244.6094,144.375 245.25,144.5313 Q245.9063,144.6875 246.4688,144.9844 L246.4688,147.7031 Q245.8438,147.125 245.25,146.8594 Q244.6563,146.5781 244.0313,146.5781 Q242.6875,146.5781 242,147.6563 Q241.3125,148.7188 241.3125,150.8125 Q241.3125,152.9063 242,153.9844 Q242.6875,155.0469 244.0313,155.0469 Q244.6563,155.0469 245.25,154.7813 Q245.8438,154.5 246.4688,153.9219 L246.4688,156.6406 Z "/><text fill="#000000" font-family="sans-serif" font-size="12" lengthAdjust="spacingAndGlyphs" textLength="21" x="257.5" y="155.1807">Set</text><!--class QAManager::Category--><rect fill="#FEFECE" filter="url(#fi68b3qovptt2)" height="32" id="QAManager::Category" style="stroke: #A80036; stroke-width: 1.5;" width="88" x="22" y="227"/><ellipse cx="37" cy="243" fill="#ADD1B2" rx="11" ry="11" style="stroke: #A80036; stroke-width: 1.0;"/><path d="M39.9688,248.6406 Q39.3906,248.9375 38.75,249.0781 Q38.1094,249.2344 37.4063,249.2344 Q34.9063,249.2344 33.5781,247.5938 Q32.2656,245.9375 32.2656,242.8125 Q32.2656,239.6875 33.5781,238.0313 Q34.9063,236.375 37.4063,236.375 Q38.1094,236.375 38.75,236.5313 Q39.4063,236.6875 39.9688,236.9844 L39.9688,239.7031 Q39.3438,239.125 38.75,238.8594 Q38.1563,238.5781 37.5313,238.5781 Q36.1875,238.5781 35.5,239.6563 Q34.8125,240.7188 34.8125,242.8125 Q34.8125,244.9063 35.5,245.9844 Q36.1875,247.0469 37.5313,247.0469 Q38.1563,247.0469 38.75,246.7813 Q39.3438,246.5 39.9688,245.9219 L39.9688,248.6406 Z "/><text fill="#000000" font-family="sans-serif" font-size="12" lengthAdjust="spacingAndGlyphs" textLength="56" x="51" y="247.1807">Category</text><!--class QAManager::Set--><rect fill="#FEFECE" filter="url(#fi68b3qovptt2)" height="32" id="QAManager::Set" style="stroke: #A80036; stroke-width: 1.5;" width="53" x="145.5" y="227"/><ellipse cx="160.5" cy="243" fill="#ADD1B2" rx="11" ry="11" style="stroke: #A80036; stroke-width: 1.0;"/><path d="M163.4688,248.6406 Q162.8906,248.9375 162.25,249.0781 Q161.6094,249.2344 160.9063,249.2344 Q158.4063,249.2344 157.0781,247.5938 Q155.7656,245.9375 155.7656,242.8125 Q155.7656,239.6875 157.0781,238.0313 Q158.4063,236.375 160.9063,236.375 Q161.6094,236.375 162.25,236.5313 Q162.9063,236.6875 163.4688,236.9844 L163.4688,239.7031 Q162.8438,239.125 162.25,238.8594 Q161.6563,238.5781 161.0313,238.5781 Q159.6875,238.5781 159,239.6563 Q158.3125,240.7188 158.3125,242.8125 Q158.3125,244.9063 159,245.9844 Q159.6875,247.0469 161.0313,247.0469 Q161.6563,247.0469 162.25,246.7813 Q162.8438,246.5 163.4688,245.9219 L163.4688,248.6406 Z "/><text fill="#000000" font-family="sans-serif" font-size="12" lengthAdjust="spacingAndGlyphs" textLength="21" x="174.5" y="247.1807">Set</text><!--class QAManager::KV--><rect fill="#FEFECE" filter="url(#fi68b3qovptt2)" height="32" id="QAManager::KV" style="stroke: #A80036; stroke-width: 1.5;" width="47" x="140.5" y="319"/><ellipse cx="155.5" cy="335" fill="#ADD1B2" rx="11" ry="11" style="stroke: #A80036; stroke-width: 1.0;"/><path d="M158.4688,340.6406 Q157.8906,340.9375 157.25,341.0781 Q156.6094,341.2344 155.9063,341.2344 Q153.4063,341.2344 152.0781,339.5938 Q150.7656,337.9375 150.7656,334.8125 Q150.7656,331.6875 152.0781,330.0313 Q153.4063,328.375 155.9063,328.375 Q156.6094,328.375 157.25,328.5313 Q157.9063,328.6875 158.4688,328.9844 L158.4688,331.7031 Q157.8438,331.125 157.25,330.8594 Q156.6563,330.5781 156.0313,330.5781 Q154.6875,330.5781 154,331.6563 Q153.3125,332.7188 153.3125,334.8125 Q153.3125,336.9063 154,337.9844 Q154.6875,339.0469 156.0313,339.0469 Q156.6563,339.0469 157.25,338.7813 Q157.8438,338.5 158.4688,337.9219 L158.4688,340.6406 Z "/><text fill="#000000" font-family="sans-serif" font-size="12" lengthAdjust="spacingAndGlyphs" textLength="15" x="169.5" y="339.1807">KV</text><!--class QAManager::QATypes--><rect fill="#FEFECE" filter="url(#fi68b3qovptt2)" height="32" id="QAManager::QATypes" style="stroke: #A80036; stroke-width: 1.5;" width="85" x="113.5" y="411"/><ellipse cx="128.5" cy="427" fill="#ADD1B2" rx="11" ry="11" style="stroke: #A80036; stroke-width: 1.0;"/><path d="M131.4688,432.6406 Q130.8906,432.9375 130.25,433.0781 Q129.6094,433.2344 128.9063,433.2344 Q126.4063,433.2344 125.0781,431.5938 Q123.7656,429.9375 123.7656,426.8125 Q123.7656,423.6875 125.0781,422.0313 Q126.4063,420.375 128.9063,420.375 Q129.6094,420.375 130.25,420.5313 Q130.9063,420.6875 131.4688,420.9844 L131.4688,423.7031 Q130.8438,423.125 130.25,422.8594 Q129.6563,422.5781 129.0313,422.5781 Q127.6875,422.5781 127,423.6563 Q126.3125,424.7188 126.3125,426.8125 Q126.3125,428.9063 127,429.9844 Q127.6875,431.0469 129.0313,431.0469 Q129.6563,431.0469 130.25,430.7813 Q130.8438,430.5 131.4688,429.9219 L131.4688,432.6406 Z "/><text fill="#000000" font-family="sans-serif" font-size="12" lengthAdjust="spacingAndGlyphs" textLength="53" x="142.5" y="431.1807">QATypes</text><!--class QAManager::Gui::DeleteMsgDialog--><rect fill="#FEFECE" filter="url(#fi68b3qovptt2)" height="32" id="QAManager::Gui::DeleteMsgDialog" style="stroke: #A80036; stroke-width: 1.5;" width="137" x="468.5" y="227"/><ellipse cx="483.5" cy="243" fill="#ADD1B2" rx="11" ry="11" style="stroke: #A80036; stroke-width: 1.0;"/><path d="M486.4688,248.6406 Q485.8906,248.9375 485.25,249.0781 Q484.6094,249.2344 483.9063,249.2344 Q481.4063,249.2344 480.0781,247.5938 Q478.7656,245.9375 478.7656,242.8125 Q478.7656,239.6875 480.0781,238.0313 Q481.4063,236.375 483.9063,236.375 Q484.6094,236.375 485.25,236.5313 Q485.9063,236.6875 486.4688,236.9844 L486.4688,239.7031 Q485.8438,239.125 485.25,238.8594 Q484.6563,238.5781 484.0313,238.5781 Q482.6875,238.5781 482,239.6563 Q481.3125,240.7188 481.3125,242.8125 Q481.3125,244.9063 482,245.9844 Q482.6875,247.0469 484.0313,247.0469 Q484.6563,247.0469 485.25,246.7813 Q485.8438,246.5 486.4688,245.9219 L486.4688,248.6406 Z "/><text fill="#000000" font-family="sans-serif" font-size="12" lengthAdjust="spacingAndGlyphs" textLength="105" x="497.5" y="247.1807">DeleteMsgDialog</text><!--class QAManager::Gui::SetDemoDialog--><rect fill="#FEFECE" filter="url(#fi68b3qovptt2)" height="32" id="QAManager::Gui::SetDemoDialog" style="stroke: #A80036; stroke-width: 1.5;" width="128" x="305" y="227"/><ellipse cx="320" cy="243" fill="#ADD1B2" rx="11" ry="11" style="stroke: #A80036; stroke-width: 1.0;"/><path d="M322.9688,248.6406 Q322.3906,248.9375 321.75,249.0781 Q321.1094,249.2344 320.4063,249.2344 Q317.9063,249.2344 316.5781,247.5938 Q315.2656,245.9375 315.2656,242.8125 Q315.2656,239.6875 316.5781,238.0313 Q317.9063,236.375 320.4063,236.375 Q321.1094,236.375 321.75,236.5313 Q322.4063,236.6875 322.9688,236.9844 L322.9688,239.7031 Q322.3438,239.125 321.75,238.8594 Q321.1563,238.5781 320.5313,238.5781 Q319.1875,238.5781 318.5,239.6563 Q317.8125,240.7188 317.8125,242.8125 Q317.8125,244.9063 318.5,245.9844 Q319.1875,247.0469 320.5313,247.0469 Q321.1563,247.0469 321.75,246.7813 Q322.3438,246.5 322.9688,245.9219 L322.9688,248.6406 Z "/><text fill="#000000" font-family="sans-serif" font-size="12" lengthAdjust="spacingAndGlyphs" textLength="96" x="334" y="247.1807">SetDemoDialog</text><!--class Gnome::Gtk3::Grid--><rect fill="#FEFECE" filter="url(#fi68b3qovptt2)" height="32" id="Gnome::Gtk3::Grid" style="stroke: #A80036; stroke-width: 1.5;" width="57" x="373.5" y="43"/><ellipse cx="388.5" cy="59" fill="#ADD1B2" rx="11" ry="11" style="stroke: #A80036; stroke-width: 1.0;"/><path d="M391.4688,64.6406 Q390.8906,64.9375 390.25,65.0781 Q389.6094,65.2344 388.9063,65.2344 Q386.4063,65.2344 385.0781,63.5938 Q383.7656,61.9375 383.7656,58.8125 Q383.7656,55.6875 385.0781,54.0313 Q386.4063,52.375 388.9063,52.375 Q389.6094,52.375 390.25,52.5313 Q390.9063,52.6875 391.4688,52.9844 L391.4688,55.7031 Q390.8438,55.125 390.25,54.8594 Q389.6563,54.5781 389.0313,54.5781 Q387.6875,54.5781 387,55.6563 Q386.3125,56.7188 386.3125,58.8125 Q386.3125,60.9063 387,61.9844 Q387.6875,63.0469 389.0313,63.0469 Q389.6563,63.0469 390.25,62.7813 Q390.8438,62.5 391.4688,61.9219 L391.4688,64.6406 Z "/><text fill="#000000" font-family="sans-serif" font-size="12" lengthAdjust="spacingAndGlyphs" textLength="25" x="402.5" y="63.1807">Grid</text><!--class Gnome::Gtk3::MessageDialog--><rect fill="#FEFECE" filter="url(#fi68b3qovptt2)" height="32" id="Gnome::Gtk3::MessageDialog" style="stroke: #A80036; stroke-width: 1.5;" width="127" x="465.5" y="43"/><ellipse cx="480.5" cy="59" fill="#ADD1B2" rx="11" ry="11" style="stroke: #A80036; stroke-width: 1.0;"/><path d="M483.4688,64.6406 Q482.8906,64.9375 482.25,65.0781 Q481.6094,65.2344 480.9063,65.2344 Q478.4063,65.2344 477.0781,63.5938 Q475.7656,61.9375 475.7656,58.8125 Q475.7656,55.6875 477.0781,54.0313 Q478.4063,52.375 480.9063,52.375 Q481.6094,52.375 482.25,52.5313 Q482.9063,52.6875 483.4688,52.9844 L483.4688,55.7031 Q482.8438,55.125 482.25,54.8594 Q481.6563,54.5781 481.0313,54.5781 Q479.6875,54.5781 479,55.6563 Q478.3125,56.7188 478.3125,58.8125 Q478.3125,60.9063 479,61.9844 Q479.6875,63.0469 481.0313,63.0469 Q481.6563,63.0469 482.25,62.7813 Q482.8438,62.5 483.4688,61.9219 L483.4688,64.6406 Z "/><text fill="#000000" font-family="sans-serif" font-size="12" lengthAdjust="spacingAndGlyphs" textLength="95" x="494.5" y="63.1807">MessageDialog</text><!--class application--><rect fill="#FEFECE" filter="url(#fi68b3qovptt2)" height="32" id="application" style="stroke: #A80036; stroke-width: 1.5;" width="101" x="68.5" y="43"/><ellipse cx="83.5" cy="59" fill="#ADD1B2" rx="11" ry="11" style="stroke: #A80036; stroke-width: 1.0;"/><path d="M86.4688,64.6406 Q85.8906,64.9375 85.25,65.0781 Q84.6094,65.2344 83.9063,65.2344 Q81.4063,65.2344 80.0781,63.5938 Q78.7656,61.9375 78.7656,58.8125 Q78.7656,55.6875 80.0781,54.0313 Q81.4063,52.375 83.9063,52.375 Q84.6094,52.375 85.25,52.5313 Q85.9063,52.6875 86.4688,52.9844 L86.4688,55.7031 Q85.8438,55.125 85.25,54.8594 Q84.6563,54.5781 84.0313,54.5781 Q82.6875,54.5781 82,55.6563 Q81.3125,56.7188 81.3125,58.8125 Q81.3125,60.9063 82,61.9844 Q82.6875,63.0469 84.0313,63.0469 Q84.6563,63.0469 85.25,62.7813 Q85.8438,62.5 86.4688,61.9219 L86.4688,64.6406 Z "/><text fill="#000000" font-family="sans-serif" font-size="12" lengthAdjust="spacingAndGlyphs" textLength="69" x="97.5" y="63.1807">application</text><!--link application to QAManager::App::Application--><path d="M169.7344,59 C179.5668,59 189.3993,59 199.2318,59 " fill="none" id="application-QAManager::App::Application" style="stroke: #A80036; stroke-width: 1.0;"/><polygon fill="#A80036" points="204.3735,59,195.3735,55,199.3735,59,195.3735,63,204.3735,59" style="stroke: #A80036; stroke-width: 1.0;"/><!--link QAManager::App::Application to QAManager::App::Page::Set--><path d="M255,75.0252 C255,90.1037 255,112.7931 255,129.4514 " fill="none" id="QAManager::App::Application-QAManager::App::Page::Set" style="stroke: #A80036; stroke-width: 1.0;"/><polygon fill="#A80036" points="255,134.8498,259,125.8498,255,129.8498,251,125.8498,255,134.8498" style="stroke: #A80036; stroke-width: 1.0;"/><!--link QAManager::App::Page::Set to QAManager::Category--><path d="M228.4179,159.1953 C202.1522,167.7642 161.2022,182.4051 128,200 C115.1252,206.8228 101.7333,215.8348 90.7045,223.8454 " fill="none" id="QAManager::App::Page::Set-QAManager::Category" style="stroke: #A80036; stroke-width: 1.0;"/><polygon fill="#A80036" points="86.4441,226.975,96.0655,224.8704,90.4737,224.0149,91.3292,218.4231,86.4441,226.975" style="stroke: #A80036; stroke-width: 1.0;"/><!--link QAManager::App::Page::Set to QAManager::Set--><path d="M240.5425,167.0252 C226.5842,182.497 205.3966,205.982 190.2758,222.7425 " fill="none" id="QAManager::App::Page::Set-QAManager::Set" style="stroke: #A80036; stroke-width: 1.0;"/><polygon fill="#A80036" points="186.5703,226.8498,195.5691,222.847,189.9197,223.1374,189.6293,217.488,186.5703,226.8498" style="stroke: #A80036; stroke-width: 1.0;"/><!--link QAManager::App::Page::Set to QAManager::KV--><path d="M251.3826,167.056 C245.806,190.0854 233.8513,233.4184 216,267 C206.7701,284.3632 193.1903,301.943 182.2227,314.8773 " fill="none" id="QAManager::App::Page::Set-QAManager::KV" style="stroke: #A80036; stroke-width: 1.0;"/><polygon fill="#A80036" points="178.9105,318.7369,187.8072,314.512,182.1667,314.9426,181.7362,309.3021,178.9105,318.7369" style="stroke: #A80036; stroke-width: 1.0;"/><!--link QAManager::App::Page::Set to QAManager::Gui::DeleteMsgDialog--><path d="M281.5474,155.7202 C319.7516,162.9399 392.1155,178.2172 451,200 C469.0191,206.6657 488.2188,216.0292 503.8955,224.3175 " fill="none" id="QAManager::App::Page::Set-QAManager::Gui::DeleteMsgDialog" style="stroke: #A80036; stroke-width: 1.0;"/><polygon fill="#A80036" points="508.6424,226.851,502.586,219.0844,504.2314,224.4967,498.8191,226.1421,508.6424,226.851" style="stroke: #A80036; stroke-width: 1.0;"/><!--link QAManager::App::Page::Set to QAManager::Gui::SetDemoDialog--><path d="M274.8573,167.0252 C294.3539,182.7593 324.1192,206.7804 344.9471,223.5889 " fill="none" id="QAManager::App::Page::Set-QAManager::Gui::SetDemoDialog" style="stroke: #A80036; stroke-width: 1.0;"/><polygon fill="#A80036" points="348.9878,226.8498,344.4961,218.0848,345.0968,223.7097,339.472,224.3104,348.9878,226.8498" style="stroke: #A80036; stroke-width: 1.0;"/><!--link Gnome::Gtk3::Grid to QAManager::App::Page::Set--><path d="M359.1817,85.7979 C333.7899,101.6893 302.444,121.3071 280.8052,134.8498 " fill="none" id="Gnome::Gtk3::Grid-QAManager::App::Page::Set" style="stroke: #A80036; stroke-width: 1.0;"/><polygon fill="none" points="355.7274,79.7018,376.3946,75.0252,363.1547,91.5693,355.7274,79.7018" style="stroke: #A80036; stroke-width: 1.0;"/><!--link QAManager::Category to QAManager::Set--><path d="M110.3047,243 C120.2923,243 130.2799,243 140.2674,243 " fill="none" id="QAManager::Category-QAManager::Set" style="stroke: #A80036; stroke-width: 1.0;"/><polygon fill="#A80036" points="145.4903,243,136.4903,239,140.4903,243,136.4903,247,145.4903,243" style="stroke: #A80036; stroke-width: 1.0;"/><!--link QAManager::Category to QAManager::KV--><path d="M83.0703,259.0252 C99.6908,274.6281 124.9925,298.3807 142.8737,315.1672 " fill="none" id="QAManager::Category-QAManager::KV" style="stroke: #A80036; stroke-width: 1.0;"/><polygon fill="#A80036" points="146.7965,318.8498,142.9726,309.7736,143.1512,315.4276,137.4971,315.6061,146.7965,318.8498" style="stroke: #A80036; stroke-width: 1.0;"/><!--link QAManager::Set to QAManager::KV--><path d="M170.6065,259.0252 C169.2953,274.1037 167.3223,296.7931 165.8738,313.4514 " fill="none" id="QAManager::Set-QAManager::KV" style="stroke: #A80036; stroke-width: 1.0;"/><polygon fill="#A80036" points="165.4044,318.8498,170.1693,310.2303,165.8377,313.8686,162.1994,309.537,165.4044,318.8498" style="stroke: #A80036; stroke-width: 1.0;"/><!--link QAManager::KV to QAManager::QATypes--><path d="M162.6065,351.0252 C161.2953,366.1037 159.3223,388.7931 157.8738,405.4514 " fill="none" id="QAManager::KV-QAManager::QATypes" style="stroke: #A80036; stroke-width: 1.0;"/><polygon fill="#A80036" points="157.4044,410.8498,162.1693,402.2303,157.8377,405.8686,154.1994,401.537,157.4044,410.8498" style="stroke: #A80036; stroke-width: 1.0;"/><!--link Gnome::Gtk3::MessageDialog to QAManager::Gui::DeleteMsgDialog--><path d="M530.5767,95.2647 C532.3137,135.2158 535.0291,197.6702 536.3,226.8991 " fill="none" id="Gnome::Gtk3::MessageDialog-QAManager::Gui::DeleteMsgDialog" style="stroke: #A80036; stroke-width: 1.0;"/><polygon fill="none" points="523.5714,95.2921,529.696,75.0069,537.5582,94.6839,523.5714,95.2921" style="stroke: #A80036; stroke-width: 1.0;"/><!--
@startuml
skinparam packageStyle rectangle
set namespaceSeparator ::
hide members

application -> QAManager::App::Application

QAManager::App::Application - -> QAManager::App::Page::Set



QAManager::App::Page::Set - -> QAManager::Category
QAManager::App::Page::Set - -> QAManager::Set
QAManager::App::Page::Set - -> QAManager::KV
QAManager::App::Page::Set - -> QAManager::Gui::DeleteMsgDialog
QAManager::App::Page::Set - -> QAManager::Gui::SetDemoDialog

Gnome::Gtk3::Grid <|- - QAManager::App::Page::Set


QAManager::Category -> QAManager::Set
QAManager::Category - -> QAManager::KV



QAManager::Set - -> QAManager::KV

QAManager::KV - -> QAManager::QATypes


Gnome::Gtk3::MessageDialog <|- - QAManager::Gui::DeleteMsgDialog




@enduml

PlantUML version 1.2019.01(Sat Feb 09 16:32:04 CET 2019)
(LGPL source distribution)
Java Runtime: OpenJDK Runtime Environment
JVM: OpenJDK 64-Bit Server VM
Java Version: 1.8.0_265-b01
Operating System: Linux
OS Version: 5.7.15-100.fc31.x86_64
Default Encoding: UTF-8
Language: en
Country: null
--></g></svg>