<?xml version="1.0" encoding="UTF-8" standalone="no"?><svg xmlns="http://www.w3.org/2000/svg" xmlns:xlink="http://www.w3.org/1999/xlink" contentScriptType="application/ecmascript" contentStyleType="text/css" height="370px" preserveAspectRatio="none" style="width:623px;height:370px;" version="1.1" viewBox="0 0 623 370" width="623px" zoomAndPan="magnify"><defs><filter height="300%" id="f15m2xb3qovbox" width="300%" x="-1" y="-1"><feGaussianBlur result="blurOut" stdDeviation="2.0"/><feColorMatrix in="blurOut" result="blurOut2" type="matrix" values="0 0 0 0 0 0 0 0 0 0 0 0 0 0 0 0 0 0 .4 0"/><feOffset dx="4.0" dy="4.0" in="blurOut2" result="blurOut3"/><feBlend in="SourceGraphic" in2="blurOut3" mode="normal"/></filter></defs><g><!--cluster QAManager--><rect fill="#FFFFFF" filter="url(#f15m2xb3qovbox)" height="343" style="stroke: #000000; stroke-width: 1.5;" width="598" x="14" y="16"/><text fill="#000000" font-family="sans-serif" font-size="14" font-weight="bold" lengthAdjust="spacingAndGlyphs" textLength="91" x="267.5" y="30.9951">QAManager</text><!--class QAManager--><rect fill="#FEFECE" filter="url(#f15m2xb3qovbox)" height="32" id="QAManager" style="stroke: #A80036; stroke-width: 1.5;" width="104" x="248" y="43"/><ellipse cx="263" cy="59" fill="#ADD1B2" rx="11" ry="11" style="stroke: #A80036; stroke-width: 1.0;"/><path d="M265.9688,64.6406 Q265.3906,64.9375 264.75,65.0781 Q264.1094,65.2344 263.4063,65.2344 Q260.9063,65.2344 259.5781,63.5938 Q258.2656,61.9375 258.2656,58.8125 Q258.2656,55.6875 259.5781,54.0313 Q260.9063,52.375 263.4063,52.375 Q264.1094,52.375 264.75,52.5313 Q265.4063,52.6875 265.9688,52.9844 L265.9688,55.7031 Q265.3438,55.125 264.75,54.8594 Q264.1563,54.5781 263.5313,54.5781 Q262.1875,54.5781 261.5,55.6563 Q260.8125,56.7188 260.8125,58.8125 Q260.8125,60.9063 261.5,61.9844 Q262.1875,63.0469 263.5313,63.0469 Q264.1563,63.0469 264.75,62.7813 Q265.3438,62.5 265.9688,61.9219 L265.9688,64.6406 Z "/><text fill="#000000" font-family="sans-serif" font-size="12" lengthAdjust="spacingAndGlyphs" textLength="72" x="277" y="63.1807">QAManager</text><!--class QAManager::Category--><rect fill="#FEFECE" filter="url(#f15m2xb3qovbox)" height="32" id="QAManager::Category" style="stroke: #A80036; stroke-width: 1.5;" width="168" x="22" y="135"/><ellipse cx="37" cy="151" fill="#ADD1B2" rx="11" ry="11" style="stroke: #A80036; stroke-width: 1.0;"/><path d="M39.9688,156.6406 Q39.3906,156.9375 38.75,157.0781 Q38.1094,157.2344 37.4063,157.2344 Q34.9063,157.2344 33.5781,155.5938 Q32.2656,153.9375 32.2656,150.8125 Q32.2656,147.6875 33.5781,146.0313 Q34.9063,144.375 37.4063,144.375 Q38.1094,144.375 38.75,144.5313 Q39.4063,144.6875 39.9688,144.9844 L39.9688,147.7031 Q39.3438,147.125 38.75,146.8594 Q38.1563,146.5781 37.5313,146.5781 Q36.1875,146.5781 35.5,147.6563 Q34.8125,148.7188 34.8125,150.8125 Q34.8125,152.9063 35.5,153.9844 Q36.1875,155.0469 37.5313,155.0469 Q38.1563,155.0469 38.75,154.7813 Q39.3438,154.5 39.9688,153.9219 L39.9688,156.6406 Z "/><text fill="#000000" font-family="sans-serif" font-size="12" lengthAdjust="spacingAndGlyphs" textLength="136" x="51" y="155.1807">QAManager::Category</text><!--class QAManager::Sheet--><rect fill="#FEFECE" filter="url(#f15m2xb3qovbox)" height="32" id="QAManager::Sheet" style="stroke: #A80036; stroke-width: 1.5;" width="149" x="225.5" y="135"/><ellipse cx="240.5" cy="151" fill="#ADD1B2" rx="11" ry="11" style="stroke: #A80036; stroke-width: 1.0;"/><path d="M243.4688,156.6406 Q242.8906,156.9375 242.25,157.0781 Q241.6094,157.2344 240.9063,157.2344 Q238.4063,157.2344 237.0781,155.5938 Q235.7656,153.9375 235.7656,150.8125 Q235.7656,147.6875 237.0781,146.0313 Q238.4063,144.375 240.9063,144.375 Q241.6094,144.375 242.25,144.5313 Q242.9063,144.6875 243.4688,144.9844 L243.4688,147.7031 Q242.8438,147.125 242.25,146.8594 Q241.6563,146.5781 241.0313,146.5781 Q239.6875,146.5781 239,147.6563 Q238.3125,148.7188 238.3125,150.8125 Q238.3125,152.9063 239,153.9844 Q239.6875,155.0469 241.0313,155.0469 Q241.6563,155.0469 242.25,154.7813 Q242.8438,154.5 243.4688,153.9219 L243.4688,156.6406 Z "/><text fill="#000000" font-family="sans-serif" font-size="12" lengthAdjust="spacingAndGlyphs" textLength="117" x="254.5" y="155.1807">QAManager::Sheet</text><!--class QAManager::Gui::TopLevel--><rect fill="#FEFECE" filter="url(#f15m2xb3qovbox)" height="32" id="QAManager::Gui::TopLevel" style="stroke: #A80036; stroke-width: 1.5;" width="194" x="410" y="135"/><ellipse cx="425" cy="151" fill="#ADD1B2" rx="11" ry="11" style="stroke: #A80036; stroke-width: 1.0;"/><path d="M427.9688,156.6406 Q427.3906,156.9375 426.75,157.0781 Q426.1094,157.2344 425.4063,157.2344 Q422.9063,157.2344 421.5781,155.5938 Q420.2656,153.9375 420.2656,150.8125 Q420.2656,147.6875 421.5781,146.0313 Q422.9063,144.375 425.4063,144.375 Q426.1094,144.375 426.75,144.5313 Q427.4063,144.6875 427.9688,144.9844 L427.9688,147.7031 Q427.3438,147.125 426.75,146.8594 Q426.1563,146.5781 425.5313,146.5781 Q424.1875,146.5781 423.5,147.6563 Q422.8125,148.7188 422.8125,150.8125 Q422.8125,152.9063 423.5,153.9844 Q424.1875,155.0469 425.5313,155.0469 Q426.1563,155.0469 426.75,154.7813 Q427.3438,154.5 427.9688,153.9219 L427.9688,156.6406 Z "/><text fill="#000000" font-family="sans-serif" font-size="12" lengthAdjust="spacingAndGlyphs" textLength="162" x="439" y="155.1807">QAManager::Gui::TopLevel</text><!--class QAManager::Gui::Main--><rect fill="#FEFECE" filter="url(#f15m2xb3qovbox)" height="32" id="QAManager::Gui::Main" style="stroke: #A80036; stroke-width: 1.5;" width="169" x="363.5" y="227"/><ellipse cx="378.5" cy="243" fill="#ADD1B2" rx="11" ry="11" style="stroke: #A80036; stroke-width: 1.0;"/><path d="M381.4688,248.6406 Q380.8906,248.9375 380.25,249.0781 Q379.6094,249.2344 378.9063,249.2344 Q376.4063,249.2344 375.0781,247.5938 Q373.7656,245.9375 373.7656,242.8125 Q373.7656,239.6875 375.0781,238.0313 Q376.4063,236.375 378.9063,236.375 Q379.6094,236.375 380.25,236.5313 Q380.9063,236.6875 381.4688,236.9844 L381.4688,239.7031 Q380.8438,239.125 380.25,238.8594 Q379.6563,238.5781 379.0313,238.5781 Q377.6875,238.5781 377,239.6563 Q376.3125,240.7188 376.3125,242.8125 Q376.3125,244.9063 377,245.9844 Q377.6875,247.0469 379.0313,247.0469 Q379.6563,247.0469 380.25,246.7813 Q380.8438,246.5 381.4688,245.9219 L381.4688,248.6406 Z "/><text fill="#000000" font-family="sans-serif" font-size="12" lengthAdjust="spacingAndGlyphs" textLength="137" x="392.5" y="247.1807">QAManager::Gui::Main</text><!--class QAManager::QATypes--><rect fill="#FEFECE" filter="url(#f15m2xb3qovbox)" height="32" id="QAManager::QATypes" style="stroke: #A80036; stroke-width: 1.5;" width="165" x="365.5" y="319"/><ellipse cx="380.5" cy="335" fill="#ADD1B2" rx="11" ry="11" style="stroke: #A80036; stroke-width: 1.0;"/><path d="M383.4688,340.6406 Q382.8906,340.9375 382.25,341.0781 Q381.6094,341.2344 380.9063,341.2344 Q378.4063,341.2344 377.0781,339.5938 Q375.7656,337.9375 375.7656,334.8125 Q375.7656,331.6875 377.0781,330.0313 Q378.4063,328.375 380.9063,328.375 Q381.6094,328.375 382.25,328.5313 Q382.9063,328.6875 383.4688,328.9844 L383.4688,331.7031 Q382.8438,331.125 382.25,330.8594 Q381.6563,330.5781 381.0313,330.5781 Q379.6875,330.5781 379,331.6563 Q378.3125,332.7188 378.3125,334.8125 Q378.3125,336.9063 379,337.9844 Q379.6875,339.0469 381.0313,339.0469 Q381.6563,339.0469 382.25,338.7813 Q382.8438,338.5 383.4688,337.9219 L383.4688,340.6406 Z "/><text fill="#000000" font-family="sans-serif" font-size="12" lengthAdjust="spacingAndGlyphs" textLength="133" x="394.5" y="339.1807">QAManager::QATypes</text><!--class QAManager::Set--><rect fill="#FEFECE" filter="url(#f15m2xb3qovbox)" height="32" id="QAManager::Set" style="stroke: #A80036; stroke-width: 1.5;" width="133" x="118.5" y="319"/><ellipse cx="133.5" cy="335" fill="#ADD1B2" rx="11" ry="11" style="stroke: #A80036; stroke-width: 1.0;"/><path d="M136.4688,340.6406 Q135.8906,340.9375 135.25,341.0781 Q134.6094,341.2344 133.9063,341.2344 Q131.4063,341.2344 130.0781,339.5938 Q128.7656,337.9375 128.7656,334.8125 Q128.7656,331.6875 130.0781,330.0313 Q131.4063,328.375 133.9063,328.375 Q134.6094,328.375 135.25,328.5313 Q135.9063,328.6875 136.4688,328.9844 L136.4688,331.7031 Q135.8438,331.125 135.25,330.8594 Q134.6563,330.5781 134.0313,330.5781 Q132.6875,330.5781 132,331.6563 Q131.3125,332.7188 131.3125,334.8125 Q131.3125,336.9063 132,337.9844 Q132.6875,339.0469 134.0313,339.0469 Q134.6563,339.0469 135.25,338.7813 Q135.8438,338.5 136.4688,337.9219 L136.4688,340.6406 Z "/><text fill="#000000" font-family="sans-serif" font-size="12" lengthAdjust="spacingAndGlyphs" textLength="101" x="147.5" y="339.1807">QAManager::Set</text><!--class QAManager::KV--><rect fill="#FEFECE" filter="url(#f15m2xb3qovbox)" height="32" id="QAManager::KV" style="stroke: #A80036; stroke-width: 1.5;" width="127" x="142.5" y="227"/><ellipse cx="157.5" cy="243" fill="#ADD1B2" rx="11" ry="11" style="stroke: #A80036; stroke-width: 1.0;"/><path d="M160.4688,248.6406 Q159.8906,248.9375 159.25,249.0781 Q158.6094,249.2344 157.9063,249.2344 Q155.4063,249.2344 154.0781,247.5938 Q152.7656,245.9375 152.7656,242.8125 Q152.7656,239.6875 154.0781,238.0313 Q155.4063,236.375 157.9063,236.375 Q158.6094,236.375 159.25,236.5313 Q159.9063,236.6875 160.4688,236.9844 L160.4688,239.7031 Q159.8438,239.125 159.25,238.8594 Q158.6563,238.5781 158.0313,238.5781 Q156.6875,238.5781 156,239.6563 Q155.3125,240.7188 155.3125,242.8125 Q155.3125,244.9063 156,245.9844 Q156.6875,247.0469 158.0313,247.0469 Q158.6563,247.0469 159.25,246.7813 Q159.8438,246.5 160.4688,245.9219 L160.4688,248.6406 Z "/><text fill="#000000" font-family="sans-serif" font-size="12" lengthAdjust="spacingAndGlyphs" textLength="95" x="171.5" y="247.1807">QAManager::KV</text><!--link QAManager to QAManager::Category--><path d="M254.3931,80.628 C223.4817,95.287 182.7799,114.5889 151.823,129.2695 " fill="none" id="QAManager-QAManager::Category" style="stroke: #A80036; stroke-width: 1.0;"/><polygon fill="#A80036" points="140.0559,134.8498,149.9018,134.6075,144.5736,132.7073,146.4738,127.3792,140.0559,134.8498" style="stroke: #A80036; stroke-width: 1.0;"/><line style="stroke: #A80036; stroke-width: 1.0;" x1="144.5736" x2="151.8021" y1="132.7073" y2="129.2794"/><polygon fill="#A80036" points="266.2078,75.0252,259.0726,73.982,255.3653,80.1671,262.5005,81.2103,266.2078,75.0252" style="stroke: #A80036; stroke-width: 1.0;"/><!--link QAManager to QAManager::Sheet--><path d="M300,88.1374 C300,98.8746 300,111.0344 300,121.779 " fill="none" id="QAManager-QAManager::Sheet" style="stroke: #A80036; stroke-width: 1.0;"/><polygon fill="#A80036" points="300,134.8498,304,125.8498,300,129.8498,296,125.8498,300,134.8498" style="stroke: #A80036; stroke-width: 1.0;"/><line style="stroke: #A80036; stroke-width: 1.0;" x1="300" x2="300.0001" y1="129.8498" y2="121.8498"/><polygon fill="#A80036" points="300,75.0252,296,81.0252,300,87.0252,304,81.0252,300,75.0252" style="stroke: #A80036; stroke-width: 1.0;"/><!--link QAManager to QAManager::Gui::TopLevel--><path d="M348.1744,80.4108 C381.343,95.1524 425.2479,114.6657 458.4888,129.4395 " fill="none" id="QAManager-QAManager::Gui::TopLevel" style="stroke: #A80036; stroke-width: 1.0;"/><polygon fill="#A80036" points="470.662,134.8498,464.0623,127.5393,466.0929,132.8191,460.8131,134.8498,470.662,134.8498" style="stroke: #A80036; stroke-width: 1.0;"/><line style="stroke: #A80036; stroke-width: 1.0;" x1="466.0929" x2="458.7825" y1="132.8191" y2="129.57"/><polygon fill="#A80036" points="336.0566,75.0252,339.9149,81.1173,347.0223,79.8989,343.164,73.8068,336.0566,75.0252" style="stroke: #A80036; stroke-width: 1.0;"/><!--link QAManager::Category to QAManager::Set--><path d="M107.2502,180.0678 C109.1127,202.4786 113.7082,233.797 125,259 C133.2707,277.4599 147.0222,295.357 159.2749,309.142 " fill="none" id="QAManager::Category-QAManager::Set" style="stroke: #A80036; stroke-width: 1.0;"/><polygon fill="#A80036" points="168.237,318.8232,165.0584,309.5014,164.8404,315.154,159.1877,314.936,168.237,318.8232" style="stroke: #A80036; stroke-width: 1.0;"/><line style="stroke: #A80036; stroke-width: 1.0;" x1="164.8404" x2="159.4056" y1="315.154" y2="309.2832"/><polygon fill="#A80036" points="106.3931,167.0904,102.7973,173.341,107.184,179.0643,110.7799,172.8137,106.3931,167.0904" style="stroke: #A80036; stroke-width: 1.0;"/><!--link QAManager::Category to QAManager::KV--><path d="M133.1347,175.9639 C147.2976,188.9938 164.5802,204.8937 178.7588,217.9381 " fill="none" id="QAManager::Category-QAManager::KV" style="stroke: #A80036; stroke-width: 1.0;"/><polygon fill="#A80036" points="188.4454,226.8498,184.5302,217.8126,184.7657,223.4645,179.1138,223.7,188.4454,226.8498" style="stroke: #A80036; stroke-width: 1.0;"/><line style="stroke: #A80036; stroke-width: 1.0;" x1="184.7657" x2="178.8783" y1="223.4645" y2="218.048"/><polygon fill="#A80036" points="123.4187,167.0252,125.1261,174.0313,132.2499,175.1498,130.5425,168.1438,123.4187,167.0252" style="stroke: #A80036; stroke-width: 1.0;"/><!--link QAManager::Gui::TopLevel to QAManager::Gui::Main--><path d="M489.5169,178.2618 C481.9136,190.1177 473.0258,203.9767 465.4287,215.8231 " fill="none" id="QAManager::Gui::TopLevel-QAManager::Gui::Main" style="stroke: #A80036; stroke-width: 1.0;"/><polygon fill="#A80036" points="458.3572,226.8498,466.5828,221.4332,461.0564,222.6409,459.8486,217.1145,458.3572,226.8498" style="stroke: #A80036; stroke-width: 1.0;"/><line style="stroke: #A80036; stroke-width: 1.0;" x1="461.0564" x2="465.3751" y1="222.6409" y2="215.9068"/><polygon fill="#A80036" points="496.723,167.0252,490.1169,169.9165,490.245,177.1265,496.8511,174.2352,496.723,167.0252" style="stroke: #A80036; stroke-width: 1.0;"/><!--link QAManager::Gui::Main to QAManager::QATypes--><path d="M448,272.1374 C448,282.8746 448,295.0344 448,305.779 " fill="none" id="QAManager::Gui::Main-QAManager::QATypes" style="stroke: #A80036; stroke-width: 1.0;"/><polygon fill="#A80036" points="448,318.8498,452,309.8498,448,313.8498,444,309.8498,448,318.8498" style="stroke: #A80036; stroke-width: 1.0;"/><line style="stroke: #A80036; stroke-width: 1.0;" x1="448" x2="448.0001" y1="313.8498" y2="305.8498"/><polygon fill="#A80036" points="448,259.0252,444,265.0252,448,271.0252,452,265.0252,448,259.0252" style="stroke: #A80036; stroke-width: 1.0;"/><!--link QAManager::Gui::Main to QAManager::Set--><path d="M389.8675,263.3353 C346.3901,278.5442 287.1765,299.2577 243.5894,314.5049 " fill="none" id="QAManager::Gui::Main-QAManager::Set" style="stroke: #A80036; stroke-width: 1.0;"/><polygon fill="#A80036" points="231.1686,318.8498,240.9846,319.6538,235.8882,317.1989,238.3431,312.1024,231.1686,318.8498" style="stroke: #A80036; stroke-width: 1.0;"/><line style="stroke: #A80036; stroke-width: 1.0;" x1="235.8882" x2="243.4395" y1="317.1989" y2="314.5572"/><polygon fill="#A80036" points="402.1889,259.0252,395.2046,257.2307,390.862,262.9876,397.8462,264.782,402.1889,259.0252" style="stroke: #A80036; stroke-width: 1.0;"/><!--
@startuml
skinparam packageStyle rectangle
hide members

package QAManager {
  class QAManager
  class QAManager::Category
  class QAManager::Sheet
  class QAManager::Gui::TopLevel
  class QAManager::Gui::Main
  class QAManager::QATypes
  class QAManager::Set
  class QAManager::KV
}

QAManager *- -> QAManager::Category
QAManager *- -> QAManager::Sheet
QAManager *- -> QAManager::Gui::TopLevel

QAManager::Category *- -> QAManager::Set
QAManager::Category *- -> QAManager::KV

QAManager::Gui::TopLevel *- -> QAManager::Gui::Main

QAManager::Gui::Main *- -> QAManager::QATypes
QAManager::Gui::Main *- -> QAManager::Set


@enduml

PlantUML version 1.2019.01(Sat Feb 09 16:32:04 CET 2019)
(LGPL source distribution)
Java Runtime: OpenJDK Runtime Environment
JVM: OpenJDK 64-Bit Server VM
Java Version: 1.8.0_265-b01
Operating System: Linux
OS Version: 5.7.15-100.fc31.x86_64
Default Encoding: UTF-8
Language: en
Country: null
--></g></svg>