<?xml version="1.0" encoding="UTF-8" standalone="no"?><svg xmlns="http://www.w3.org/2000/svg" xmlns:xlink="http://www.w3.org/1999/xlink" contentScriptType="application/ecmascript" contentStyleType="text/css" height="370px" preserveAspectRatio="none" style="width:766px;height:370px;" version="1.1" viewBox="0 0 766 370" width="766px" zoomAndPan="magnify"><defs><filter height="300%" id="f1v1q81acvwylp" width="300%" x="-1" y="-1"><feGaussianBlur result="blurOut" stdDeviation="2.0"/><feColorMatrix in="blurOut" result="blurOut2" type="matrix" values="0 0 0 0 0 0 0 0 0 0 0 0 0 0 0 0 0 0 .4 0"/><feOffset dx="4.0" dy="4.0" in="blurOut2" result="blurOut3"/><feBlend in="SourceGraphic" in2="blurOut3" mode="normal"/></filter></defs><g><!--cluster QAManager--><rect fill="#FFFFFF" filter="url(#f1v1q81acvwylp)" height="251" style="stroke: #000000; stroke-width: 1.5;" width="193" x="562.352" y="108"/><text fill="#000000" font-family="sans-serif" font-size="14" font-weight="bold" lengthAdjust="spacingAndGlyphs" textLength="91" x="613.352" y="122.9951">QAManager</text><!--cluster QAManager::Gui--><rect fill="#FFFFFF" filter="url(#f1v1q81acvwylp)" height="67" style="stroke: #000000; stroke-width: 1.5;" width="145" x="488.352" y="16"/><text fill="#000000" font-family="sans-serif" font-size="14" font-weight="bold" lengthAdjust="spacingAndGlyphs" textLength="129" x="496.352" y="30.9951">QAManager::Gui</text><!--cluster QAManager::Gui::Part--><rect fill="#FFFFFF" filter="url(#f1v1q81acvwylp)" height="251" style="stroke: #000000; stroke-width: 1.5;" width="264" x="290.352" y="108"/><text fill="#000000" font-family="sans-serif" font-size="14" font-weight="bold" lengthAdjust="spacingAndGlyphs" textLength="173" x="335.852" y="122.9951">QAManager::Gui::Part</text><!--cluster Gnome::Gtk3--><rect fill="#FFFFFF" filter="url(#f1v1q81acvwylp)" height="67" style="stroke: #000000; stroke-width: 1.5;" width="194" x="138.352" y="16"/><text fill="#000000" font-family="sans-serif" font-size="14" font-weight="bold" lengthAdjust="spacingAndGlyphs" textLength="105" x="182.852" y="30.9951">Gnome::Gtk3</text><!--cluster QAManager::App::Part--><rect fill="#FFFFFF" filter="url(#f1v1q81acvwylp)" height="67" style="stroke: #000000; stroke-width: 1.5;" width="194" x="88.352" y="108"/><text fill="#000000" font-family="sans-serif" font-size="14" font-weight="bold" lengthAdjust="spacingAndGlyphs" textLength="178" x="96.352" y="122.9951">QAManager::App::Part</text><!--class QAManager::Category--><rect fill="#FEFECE" filter="url(#f1v1q81acvwylp)" height="32" id="QAManager::Category" style="stroke: #A80036; stroke-width: 1.5;" width="88" x="570.352" y="135"/><ellipse cx="585.352" cy="151" fill="#ADD1B2" rx="11" ry="11" style="stroke: #A80036; stroke-width: 1.0;"/><path d="M588.3208,156.6406 Q587.7426,156.9375 587.102,157.0781 Q586.4614,157.2344 585.7583,157.2344 Q583.2583,157.2344 581.9301,155.5938 Q580.6176,153.9375 580.6176,150.8125 Q580.6176,147.6875 581.9301,146.0313 Q583.2583,144.375 585.7583,144.375 Q586.4614,144.375 587.102,144.5313 Q587.7583,144.6875 588.3208,144.9844 L588.3208,147.7031 Q587.6958,147.125 587.102,146.8594 Q586.5083,146.5781 585.8833,146.5781 Q584.5395,146.5781 583.852,147.6563 Q583.1645,148.7188 583.1645,150.8125 Q583.1645,152.9063 583.852,153.9844 Q584.5395,155.0469 585.8833,155.0469 Q586.5083,155.0469 587.102,154.7813 Q587.6958,154.5 588.3208,153.9219 L588.3208,156.6406 Z "/><text fill="#000000" font-family="sans-serif" font-size="12" lengthAdjust="spacingAndGlyphs" textLength="56" x="599.352" y="155.1807">Category</text><!--class QAManager::Set--><rect fill="#FEFECE" filter="url(#f1v1q81acvwylp)" height="32" id="QAManager::Set" style="stroke: #A80036; stroke-width: 1.5;" width="53" x="693.852" y="135"/><ellipse cx="708.852" cy="151" fill="#ADD1B2" rx="11" ry="11" style="stroke: #A80036; stroke-width: 1.0;"/><path d="M711.8208,156.6406 Q711.2426,156.9375 710.602,157.0781 Q709.9614,157.2344 709.2583,157.2344 Q706.7583,157.2344 705.4301,155.5938 Q704.1176,153.9375 704.1176,150.8125 Q704.1176,147.6875 705.4301,146.0313 Q706.7583,144.375 709.2583,144.375 Q709.9614,144.375 710.602,144.5313 Q711.2583,144.6875 711.8208,144.9844 L711.8208,147.7031 Q711.1958,147.125 710.602,146.8594 Q710.0083,146.5781 709.3833,146.5781 Q708.0395,146.5781 707.352,147.6563 Q706.6645,148.7188 706.6645,150.8125 Q706.6645,152.9063 707.352,153.9844 Q708.0395,155.0469 709.3833,155.0469 Q710.0083,155.0469 710.602,154.7813 Q711.1958,154.5 711.8208,153.9219 L711.8208,156.6406 Z "/><text fill="#000000" font-family="sans-serif" font-size="12" lengthAdjust="spacingAndGlyphs" textLength="21" x="722.852" y="155.1807">Set</text><!--class QAManager::KV--><rect fill="#FEFECE" filter="url(#f1v1q81acvwylp)" height="32" id="QAManager::KV" style="stroke: #A80036; stroke-width: 1.5;" width="47" x="590.852" y="227"/><ellipse cx="605.852" cy="243" fill="#ADD1B2" rx="11" ry="11" style="stroke: #A80036; stroke-width: 1.0;"/><path d="M608.8208,248.6406 Q608.2426,248.9375 607.602,249.0781 Q606.9614,249.2344 606.2583,249.2344 Q603.7583,249.2344 602.4301,247.5938 Q601.1176,245.9375 601.1176,242.8125 Q601.1176,239.6875 602.4301,238.0313 Q603.7583,236.375 606.2583,236.375 Q606.9614,236.375 607.602,236.5313 Q608.2583,236.6875 608.8208,236.9844 L608.8208,239.7031 Q608.1958,239.125 607.602,238.8594 Q607.0083,238.5781 606.3833,238.5781 Q605.0395,238.5781 604.352,239.6563 Q603.6645,240.7188 603.6645,242.8125 Q603.6645,244.9063 604.352,245.9844 Q605.0395,247.0469 606.3833,247.0469 Q607.0083,247.0469 607.602,246.7813 Q608.1958,246.5 608.8208,245.9219 L608.8208,248.6406 Z "/><text fill="#000000" font-family="sans-serif" font-size="12" lengthAdjust="spacingAndGlyphs" textLength="15" x="619.852" y="247.1807">KV</text><!--class QAManager::QATypes--><rect fill="#FEFECE" filter="url(#f1v1q81acvwylp)" height="32" id="QAManager::QATypes" style="stroke: #A80036; stroke-width: 1.5;" width="85" x="580.852" y="319"/><ellipse cx="595.852" cy="335" fill="#ADD1B2" rx="11" ry="11" style="stroke: #A80036; stroke-width: 1.0;"/><path d="M598.8208,340.6406 Q598.2426,340.9375 597.602,341.0781 Q596.9614,341.2344 596.2583,341.2344 Q593.7583,341.2344 592.4301,339.5938 Q591.1176,337.9375 591.1176,334.8125 Q591.1176,331.6875 592.4301,330.0313 Q593.7583,328.375 596.2583,328.375 Q596.9614,328.375 597.602,328.5313 Q598.2583,328.6875 598.8208,328.9844 L598.8208,331.7031 Q598.1958,331.125 597.602,330.8594 Q597.0083,330.5781 596.3833,330.5781 Q595.0395,330.5781 594.352,331.6563 Q593.6645,332.7188 593.6645,334.8125 Q593.6645,336.9063 594.352,337.9844 Q595.0395,339.0469 596.3833,339.0469 Q597.0083,339.0469 597.602,338.7813 Q598.1958,338.5 598.8208,337.9219 L598.8208,340.6406 Z "/><text fill="#000000" font-family="sans-serif" font-size="12" lengthAdjust="spacingAndGlyphs" textLength="53" x="609.852" y="339.1807">QATypes</text><!--class QAManager::Gui::SetDemoDialog--><rect fill="#FEFECE" filter="url(#f1v1q81acvwylp)" height="32" id="QAManager::Gui::SetDemoDialog" style="stroke: #A80036; stroke-width: 1.5;" width="128" x="497.352" y="43"/><ellipse cx="512.352" cy="59" fill="#ADD1B2" rx="11" ry="11" style="stroke: #A80036; stroke-width: 1.0;"/><path d="M515.3208,64.6406 Q514.7426,64.9375 514.102,65.0781 Q513.4614,65.2344 512.7583,65.2344 Q510.2583,65.2344 508.9301,63.5938 Q507.6176,61.9375 507.6176,58.8125 Q507.6176,55.6875 508.9301,54.0313 Q510.2583,52.375 512.7583,52.375 Q513.4614,52.375 514.102,52.5313 Q514.7583,52.6875 515.3208,52.9844 L515.3208,55.7031 Q514.6958,55.125 514.102,54.8594 Q513.5083,54.5781 512.8833,54.5781 Q511.5395,54.5781 510.852,55.6563 Q510.1645,56.7188 510.1645,58.8125 Q510.1645,60.9063 510.852,61.9844 Q511.5395,63.0469 512.8833,63.0469 Q513.5083,63.0469 514.102,62.7813 Q514.6958,62.5 515.3208,61.9219 L515.3208,64.6406 Z "/><text fill="#000000" font-family="sans-serif" font-size="12" lengthAdjust="spacingAndGlyphs" textLength="96" x="526.352" y="63.1807">SetDemoDialog</text><!--class QAManager::Gui::Part::Dialog--><rect fill="#FEFECE" filter="url(#f1v1q81acvwylp)" height="32" id="QAManager::Gui::Part::Dialog" style="stroke: #A80036; stroke-width: 1.5;" width="71" x="372.852" y="135"/><ellipse cx="387.852" cy="151" fill="#ADD1B2" rx="11" ry="11" style="stroke: #A80036; stroke-width: 1.0;"/><path d="M390.8208,156.6406 Q390.2426,156.9375 389.602,157.0781 Q388.9614,157.2344 388.2583,157.2344 Q385.7583,157.2344 384.4301,155.5938 Q383.1176,153.9375 383.1176,150.8125 Q383.1176,147.6875 384.4301,146.0313 Q385.7583,144.375 388.2583,144.375 Q388.9614,144.375 389.602,144.5313 Q390.2583,144.6875 390.8208,144.9844 L390.8208,147.7031 Q390.1958,147.125 389.602,146.8594 Q389.0083,146.5781 388.3833,146.5781 Q387.0395,146.5781 386.352,147.6563 Q385.6645,148.7188 385.6645,150.8125 Q385.6645,152.9063 386.352,153.9844 Q387.0395,155.0469 388.3833,155.0469 Q389.0083,155.0469 389.602,154.7813 Q390.1958,154.5 390.8208,153.9219 L390.8208,156.6406 Z "/><text fill="#000000" font-family="sans-serif" font-size="12" lengthAdjust="spacingAndGlyphs" textLength="39" x="401.852" y="155.1807">Dialog</text><!--class QAManager::Gui::Part::Set--><rect fill="#FEFECE" filter="url(#f1v1q81acvwylp)" height="32" id="QAManager::Gui::Part::Set" style="stroke: #A80036; stroke-width: 1.5;" width="53" x="481.852" y="135"/><ellipse cx="496.852" cy="151" fill="#ADD1B2" rx="11" ry="11" style="stroke: #A80036; stroke-width: 1.0;"/><path d="M499.8208,156.6406 Q499.2426,156.9375 498.602,157.0781 Q497.9614,157.2344 497.2583,157.2344 Q494.7583,157.2344 493.4301,155.5938 Q492.1176,153.9375 492.1176,150.8125 Q492.1176,147.6875 493.4301,146.0313 Q494.7583,144.375 497.2583,144.375 Q497.9614,144.375 498.602,144.5313 Q499.2583,144.6875 499.8208,144.9844 L499.8208,147.7031 Q499.1958,147.125 498.602,146.8594 Q498.0083,146.5781 497.3833,146.5781 Q496.0395,146.5781 495.352,147.6563 Q494.6645,148.7188 494.6645,150.8125 Q494.6645,152.9063 495.352,153.9844 Q496.0395,155.0469 497.3833,155.0469 Q498.0083,155.0469 498.602,154.7813 Q499.1958,154.5 499.8208,153.9219 L499.8208,156.6406 Z "/><text fill="#000000" font-family="sans-serif" font-size="12" lengthAdjust="spacingAndGlyphs" textLength="21" x="510.852" y="155.1807">Set</text><!--class QAManager::Gui::Part::KV--><rect fill="#FEFECE" filter="url(#f1v1q81acvwylp)" height="32" id="QAManager::Gui::Part::KV" style="stroke: #A80036; stroke-width: 1.5;" width="47" x="484.852" y="227"/><ellipse cx="499.852" cy="243" fill="#ADD1B2" rx="11" ry="11" style="stroke: #A80036; stroke-width: 1.0;"/><path d="M502.8208,248.6406 Q502.2426,248.9375 501.602,249.0781 Q500.9614,249.2344 500.2583,249.2344 Q497.7583,249.2344 496.4301,247.5938 Q495.1176,245.9375 495.1176,242.8125 Q495.1176,239.6875 496.4301,238.0313 Q497.7583,236.375 500.2583,236.375 Q500.9614,236.375 501.602,236.5313 Q502.2583,236.6875 502.8208,236.9844 L502.8208,239.7031 Q502.1958,239.125 501.602,238.8594 Q501.0083,238.5781 500.3833,238.5781 Q499.0395,238.5781 498.352,239.6563 Q497.6645,240.7188 497.6645,242.8125 Q497.6645,244.9063 498.352,245.9844 Q499.0395,247.0469 500.3833,247.0469 Q501.0083,247.0469 501.602,246.7813 Q502.1958,246.5 502.8208,245.9219 L502.8208,248.6406 Z "/><text fill="#000000" font-family="sans-serif" font-size="12" lengthAdjust="spacingAndGlyphs" textLength="15" x="513.852" y="247.1807">KV</text><!--class QAManager::Gui::Part::Frame--><rect fill="#FEFECE" filter="url(#f1v1q81acvwylp)" height="32" id="QAManager::Gui::Part::Frame" style="stroke: #A80036; stroke-width: 1.5;" width="71" x="338.852" y="227"/><ellipse cx="353.852" cy="243" fill="#ADD1B2" rx="11" ry="11" style="stroke: #A80036; stroke-width: 1.0;"/><path d="M356.8208,248.6406 Q356.2426,248.9375 355.602,249.0781 Q354.9614,249.2344 354.2583,249.2344 Q351.7583,249.2344 350.4301,247.5938 Q349.1176,245.9375 349.1176,242.8125 Q349.1176,239.6875 350.4301,238.0313 Q351.7583,236.375 354.2583,236.375 Q354.9614,236.375 355.602,236.5313 Q356.2583,236.6875 356.8208,236.9844 L356.8208,239.7031 Q356.1958,239.125 355.602,238.8594 Q355.0083,238.5781 354.3833,238.5781 Q353.0395,238.5781 352.352,239.6563 Q351.6645,240.7188 351.6645,242.8125 Q351.6645,244.9063 352.352,245.9844 Q353.0395,247.0469 354.3833,247.0469 Q355.0083,247.0469 355.602,246.7813 Q356.1958,246.5 356.8208,245.9219 L356.8208,248.6406 Z "/><text fill="#000000" font-family="sans-serif" font-size="12" lengthAdjust="spacingAndGlyphs" textLength="39" x="367.852" y="247.1807">Frame</text><!--class QAManager::Gui::Part::GroupFrame--><rect fill="#FEFECE" filter="url(#f1v1q81acvwylp)" height="32" id="QAManager::Gui::Part::GroupFrame" style="stroke: #A80036; stroke-width: 1.5;" width="109" x="298.852" y="319"/><ellipse cx="313.852" cy="335" fill="#ADD1B2" rx="11" ry="11" style="stroke: #A80036; stroke-width: 1.0;"/><path d="M316.8208,340.6406 Q316.2426,340.9375 315.602,341.0781 Q314.9614,341.2344 314.2583,341.2344 Q311.7583,341.2344 310.4301,339.5938 Q309.1176,337.9375 309.1176,334.8125 Q309.1176,331.6875 310.4301,330.0313 Q311.7583,328.375 314.2583,328.375 Q314.9614,328.375 315.602,328.5313 Q316.2583,328.6875 316.8208,328.9844 L316.8208,331.7031 Q316.1958,331.125 315.602,330.8594 Q315.0083,330.5781 314.3833,330.5781 Q313.0395,330.5781 312.352,331.6563 Q311.6645,332.7188 311.6645,334.8125 Q311.6645,336.9063 312.352,337.9844 Q313.0395,339.0469 314.3833,339.0469 Q315.0083,339.0469 315.602,338.7813 Q316.1958,338.5 316.8208,337.9219 L316.8208,340.6406 Z "/><text fill="#000000" font-family="sans-serif" font-size="12" lengthAdjust="spacingAndGlyphs" textLength="77" x="327.852" y="339.1807">GroupFrame</text><!--class QAManager::Gui::Part::EntryFrame--><rect fill="#FEFECE" filter="url(#f1v1q81acvwylp)" height="32" id="QAManager::Gui::Part::EntryFrame" style="stroke: #A80036; stroke-width: 1.5;" width="103" x="442.852" y="319"/><ellipse cx="457.852" cy="335" fill="#ADD1B2" rx="11" ry="11" style="stroke: #A80036; stroke-width: 1.0;"/><path d="M460.8208,340.6406 Q460.2426,340.9375 459.602,341.0781 Q458.9614,341.2344 458.2583,341.2344 Q455.7583,341.2344 454.4301,339.5938 Q453.1176,337.9375 453.1176,334.8125 Q453.1176,331.6875 454.4301,330.0313 Q455.7583,328.375 458.2583,328.375 Q458.9614,328.375 459.602,328.5313 Q460.2583,328.6875 460.8208,328.9844 L460.8208,331.7031 Q460.1958,331.125 459.602,330.8594 Q459.0083,330.5781 458.3833,330.5781 Q457.0395,330.5781 456.352,331.6563 Q455.6645,332.7188 455.6645,334.8125 Q455.6645,336.9063 456.352,337.9844 Q457.0395,339.0469 458.3833,339.0469 Q459.0083,339.0469 459.602,338.7813 Q460.1958,338.5 460.8208,337.9219 L460.8208,340.6406 Z "/><text fill="#000000" font-family="sans-serif" font-size="12" lengthAdjust="spacingAndGlyphs" textLength="71" x="471.852" y="339.1807">EntryFrame</text><!--class Gnome::Gtk3::Dialog--><rect fill="#FEFECE" filter="url(#f1v1q81acvwylp)" height="32" id="Gnome::Gtk3::Dialog" style="stroke: #A80036; stroke-width: 1.5;" width="71" x="252.852" y="43"/><ellipse cx="267.852" cy="59" fill="#ADD1B2" rx="11" ry="11" style="stroke: #A80036; stroke-width: 1.0;"/><path d="M270.8208,64.6406 Q270.2426,64.9375 269.602,65.0781 Q268.9614,65.2344 268.2583,65.2344 Q265.7583,65.2344 264.4301,63.5938 Q263.1176,61.9375 263.1176,58.8125 Q263.1176,55.6875 264.4301,54.0313 Q265.7583,52.375 268.2583,52.375 Q268.9614,52.375 269.602,52.5313 Q270.2583,52.6875 270.8208,52.9844 L270.8208,55.7031 Q270.1958,55.125 269.602,54.8594 Q269.0083,54.5781 268.3833,54.5781 Q267.0395,54.5781 266.352,55.6563 Q265.6645,56.7188 265.6645,58.8125 Q265.6645,60.9063 266.352,61.9844 Q267.0395,63.0469 268.3833,63.0469 Q269.0083,63.0469 269.602,62.7813 Q270.1958,62.5 270.8208,61.9219 L270.8208,64.6406 Z "/><text fill="#000000" font-family="sans-serif" font-size="12" lengthAdjust="spacingAndGlyphs" textLength="39" x="281.852" y="63.1807">Dialog</text><!--class Gnome::Gtk3::Frame--><rect fill="#FEFECE" filter="url(#f1v1q81acvwylp)" height="32" id="Gnome::Gtk3::Frame" style="stroke: #A80036; stroke-width: 1.5;" width="71" x="146.852" y="43"/><ellipse cx="161.852" cy="59" fill="#ADD1B2" rx="11" ry="11" style="stroke: #A80036; stroke-width: 1.0;"/><path d="M164.8208,64.6406 Q164.2426,64.9375 163.602,65.0781 Q162.9614,65.2344 162.2583,65.2344 Q159.7583,65.2344 158.4301,63.5938 Q157.1176,61.9375 157.1176,58.8125 Q157.1176,55.6875 158.4301,54.0313 Q159.7583,52.375 162.2583,52.375 Q162.9614,52.375 163.602,52.5313 Q164.2583,52.6875 164.8208,52.9844 L164.8208,55.7031 Q164.1958,55.125 163.602,54.8594 Q163.0083,54.5781 162.3833,54.5781 Q161.0395,54.5781 160.352,55.6563 Q159.6645,56.7188 159.6645,58.8125 Q159.6645,60.9063 160.352,61.9844 Q161.0395,63.0469 162.3833,63.0469 Q163.0083,63.0469 163.602,62.7813 Q164.1958,62.5 164.8208,61.9219 L164.8208,64.6406 Z "/><text fill="#000000" font-family="sans-serif" font-size="12" lengthAdjust="spacingAndGlyphs" textLength="39" x="175.852" y="63.1807">Frame</text><!--class QAManager::App::Part::ValueRepr--><rect fill="#FEFECE" filter="url(#f1v1q81acvwylp)" height="32" id="QAManager::App::Part::ValueRepr" style="stroke: #A80036; stroke-width: 1.5;" width="96" x="134.352" y="135"/><ellipse cx="149.352" cy="151" fill="#ADD1B2" rx="11" ry="11" style="stroke: #A80036; stroke-width: 1.0;"/><path d="M152.3208,156.6406 Q151.7426,156.9375 151.102,157.0781 Q150.4614,157.2344 149.7583,157.2344 Q147.2583,157.2344 145.9301,155.5938 Q144.6176,153.9375 144.6176,150.8125 Q144.6176,147.6875 145.9301,146.0313 Q147.2583,144.375 149.7583,144.375 Q150.4614,144.375 151.102,144.5313 Q151.7583,144.6875 152.3208,144.9844 L152.3208,147.7031 Q151.6958,147.125 151.102,146.8594 Q150.5083,146.5781 149.8833,146.5781 Q148.5395,146.5781 147.852,147.6563 Q147.1645,148.7188 147.1645,150.8125 Q147.1645,152.9063 147.852,153.9844 Q148.5395,155.0469 149.8833,155.0469 Q150.5083,155.0469 151.102,154.7813 Q151.6958,154.5 152.3208,153.9219 L152.3208,156.6406 Z "/><text fill="#000000" font-family="sans-serif" font-size="12" lengthAdjust="spacingAndGlyphs" textLength="64" x="163.352" y="155.1807">ValueRepr</text><!--link QAManager::Category to QAManager::Set--><path d="M658.6567,151 C668.6442,151 678.6318,151 688.6194,151 " fill="none" id="QAManager::Category-QAManager::Set" style="stroke: #A80036; stroke-width: 1.0;"/><polygon fill="#A80036" points="693.8423,151,684.8423,147,688.8423,151,684.8423,155,693.8423,151" style="stroke: #A80036; stroke-width: 1.0;"/><!--link QAManager::Category to QAManager::KV--><path d="M614.352,167.0252 C614.352,182.1037 614.352,204.7931 614.352,221.4514 " fill="none" id="QAManager::Category-QAManager::KV" style="stroke: #A80036; stroke-width: 1.0;"/><polygon fill="#A80036" points="614.352,226.8498,618.352,217.8498,614.352,221.8498,610.352,217.8498,614.352,226.8498" style="stroke: #A80036; stroke-width: 1.0;"/><!--link QAManager::Set to QAManager::KV--><path d="M701.8882,167.0252 C683.9109,182.6281 656.5438,206.3807 637.2029,223.1672 " fill="none" id="QAManager::Set-QAManager::KV" style="stroke: #A80036; stroke-width: 1.0;"/><polygon fill="#A80036" points="632.9598,226.8498,642.3787,223.9716,636.736,223.5725,637.135,217.9297,632.9598,226.8498" style="stroke: #A80036; stroke-width: 1.0;"/><!--link QAManager::KV to QAManager::QATypes--><path d="M615.9197,259.0252 C617.3947,274.1037 619.6143,296.7931 621.244,313.4514 " fill="none" id="QAManager::KV-QAManager::QATypes" style="stroke: #A80036; stroke-width: 1.0;"/><polygon fill="#A80036" points="621.7721,318.8498,624.8768,309.5031,621.2852,313.8736,616.9148,310.282,621.7721,318.8498" style="stroke: #A80036; stroke-width: 1.0;"/><!--link QAManager::Gui::SetDemoDialog to QAManager::Category--><path d="M570.5839,75.0252 C579.4215,90.3659 592.7974,113.5846 602.4356,130.3149 " fill="none" id="QAManager::Gui::SetDemoDialog-QAManager::Category" style="stroke: #A80036; stroke-width: 1.0;"/><polygon fill="#A80036" points="605.048,134.8498,604.0213,125.0546,602.5521,130.5173,597.0893,129.0481,605.048,134.8498" style="stroke: #A80036; stroke-width: 1.0;"/><!--link QAManager::Gui::SetDemoDialog to QAManager::Set--><path d="M609.8171,75.0467 C631.1549,83.2478 655.952,94.3899 676.352,108 C685.9728,114.4187 695.3268,123.1005 702.9185,130.9826 " fill="none" id="QAManager::Gui::SetDemoDialog-QAManager::Set" style="stroke: #A80036; stroke-width: 1.0;"/><polygon fill="#A80036" points="706.4972,134.7743,703.2287,125.4836,703.0653,131.1381,697.4108,130.9747,706.4972,134.7743" style="stroke: #A80036; stroke-width: 1.0;"/><!--link QAManager::Gui::SetDemoDialog to QAManager::Gui::Part::Dialog--><path d="M525.461,75.1507 C506.7812,84.0452 483.838,95.748 464.352,108 C453.093,115.0792 441.3184,123.8818 431.4878,131.6753 " fill="none" id="QAManager::Gui::SetDemoDialog-QAManager::Gui::Part::Dialog" style="stroke: #A80036; stroke-width: 1.0;"/><polygon fill="#A80036" points="427.4009,134.9456,436.9272,132.4456,431.3049,131.8216,431.9288,126.1993,427.4009,134.9456" style="stroke: #A80036; stroke-width: 1.0;"/><!--link QAManager::Gui::SetDemoDialog to QAManager::Gui::Part::Set--><path d="M552.1201,75.0252 C543.2825,90.3659 529.9065,113.5846 520.2684,130.3149 " fill="none" id="QAManager::Gui::SetDemoDialog-QAManager::Gui::Part::Set" style="stroke: #A80036; stroke-width: 1.0;"/><polygon fill="#A80036" points="517.6559,134.8498,525.6147,129.0482,520.1519,130.5174,518.6828,125.0546,517.6559,134.8498" style="stroke: #A80036; stroke-width: 1.0;"/><!--link Gnome::Gtk3::Dialog to QAManager::Gui::Part::Dialog--><path d="M325.129,87.1957 C345.5176,102.827 370.1367,121.7016 387.2865,134.8498 " fill="none" id="Gnome::Gtk3::Dialog-QAManager::Gui::Part::Dialog" style="stroke: #A80036; stroke-width: 1.0;"/><polygon fill="none" points="320.8675,92.7491,309.2544,75.0252,329.3856,81.6386,320.8675,92.7491" style="stroke: #A80036; stroke-width: 1.0;"/><!--link QAManager::Gui::Part::Set to QAManager::Set--><path d="M520.3348,134.866 C531.7619,121.0676 550.3796,102.3812 571.852,95.5 C608.6741,83.6998 622.0299,83.6998 658.852,95.5 C677.9663,101.6255 694.5178,117.5671 705.62,130.8014 " fill="none" id="QAManager::Gui::Part::Set-QAManager::Set" style="stroke: #A80036; stroke-width: 1.0;"/><polygon fill="#A80036" points="708.8873,134.8079,706.299,125.3052,705.7272,130.9331,700.0993,130.3614,708.8873,134.8079" style="stroke: #A80036; stroke-width: 1.0;"/><!--link QAManager::Gui::Part::Set to QAManager::KV--><path d="M526.8158,167.0252 C544.7931,182.6281 572.1601,206.3807 591.5011,223.1672 " fill="none" id="QAManager::Gui::Part::Set-QAManager::KV" style="stroke: #A80036; stroke-width: 1.0;"/><polygon fill="#A80036" points="595.7441,226.8498,591.5691,217.9297,591.968,223.5724,586.3252,223.9714,595.7441,226.8498" style="stroke: #A80036; stroke-width: 1.0;"/><!--link QAManager::Gui::Part::Set to QAManager::Gui::Part::KV--><path d="M508.352,167.0252 C508.352,182.1037 508.352,204.7931 508.352,221.4514 " fill="none" id="QAManager::Gui::Part::Set-QAManager::Gui::Part::KV" style="stroke: #A80036; stroke-width: 1.0;"/><polygon fill="#A80036" points="508.352,226.8498,512.352,217.8498,508.352,221.8498,504.352,217.8498,508.352,226.8498" style="stroke: #A80036; stroke-width: 1.0;"/><!--link QAManager::Gui::Part::Set to QAManager::Gui::Part::Frame--><path d="M485.011,167.0252 C461.903,182.8904 426.5226,207.1814 402.0149,224.0076 " fill="none" id="QAManager::Gui::Part::Set-QAManager::Gui::Part::Frame" style="stroke: #A80036; stroke-width: 1.0;"/><polygon fill="#A80036" points="397.8751,226.8498,407.5587,225.0532,401.9971,224.0197,403.0305,218.458,397.8751,226.8498" style="stroke: #A80036; stroke-width: 1.0;"/><!--link Gnome::Gtk3::Frame to QAManager::Gui::Part::Frame--><path d="M236.2556,83.4071 C263.2104,95.6202 290.1972,107.8643 290.352,108 C329.3654,142.2218 356.3796,198.9867 367.9783,226.7285 " fill="none" id="Gnome::Gtk3::Frame-QAManager::Gui::Part::Frame" style="stroke: #A80036; stroke-width: 1.0;"/><polygon fill="none" points="233.2597,89.7348,217.9299,75.106,239.0364,76.9821,233.2597,89.7348" style="stroke: #A80036; stroke-width: 1.0;"/><!--link QAManager::Gui::Part::KV to QAManager::QATypes--><path d="M528.3835,259.0252 C548.0511,274.7593 578.0775,298.7804 599.0881,315.5889 " fill="none" id="QAManager::Gui::Part::KV-QAManager::QATypes" style="stroke: #A80036; stroke-width: 1.0;"/><polygon fill="#A80036" points="603.1642,318.8498,598.6352,310.104,599.2599,315.7263,593.6376,316.351,603.1642,318.8498" style="stroke: #A80036; stroke-width: 1.0;"/><!--link QAManager::Gui::Part::KV to QAManager::KV--><path d="M531.9535,243 C549.8022,243 567.6508,243 585.4995,243 " fill="none" id="QAManager::Gui::Part::KV-QAManager::KV" style="stroke: #A80036; stroke-width: 1.0;"/><polygon fill="#A80036" points="590.5337,243,581.5337,239,585.5337,243,581.5337,247,590.5337,243" style="stroke: #A80036; stroke-width: 1.0;"/><!--link QAManager::Gui::Part::KV to QAManager::Gui::Part::GroupFrame--><path d="M484.8108,256.9728 C458.2023,272.7663 414.7469,298.5592 385.141,316.1317 " fill="none" id="QAManager::Gui::Part::KV-QAManager::Gui::Part::GroupFrame" style="stroke: #A80036; stroke-width: 1.0;"/><polygon fill="#A80036" points="380.513,318.8786,390.294,317.7248,384.8127,316.3266,386.2109,310.8453,380.513,318.8786" style="stroke: #A80036; stroke-width: 1.0;"/><!--link QAManager::Gui::Part::KV to QAManager::Gui::Part::EntryFrame--><path d="M505.9134,259.0252 C503.5989,274.2348 500.1059,297.1882 497.5652,313.8845 " fill="none" id="QAManager::Gui::Part::KV-QAManager::Gui::Part::EntryFrame" style="stroke: #A80036; stroke-width: 1.0;"/><polygon fill="#A80036" points="496.8096,318.8498,502.1182,310.5541,497.5619,313.9067,494.2092,309.3504,496.8096,318.8498" style="stroke: #A80036; stroke-width: 1.0;"/><!--link Gnome::Gtk3::Frame to QAManager::Gui::Part::GroupFrame--><path d="M127.0984,70.5161 C90.5311,79.3867 47.3578,92.6972 36.352,108 C-2.8327,162.4836 -5.2044,206.303 36.352,259 C68.4174,299.6617 216.6268,321.026 298.5451,329.9039 " fill="none" id="Gnome::Gtk3::Frame-QAManager::Gui::Part::GroupFrame" style="stroke: #A80036; stroke-width: 1.0;"/><polygon fill="none" points="125.6985,63.6554,146.7579,66.0015,128.8319,77.3003,125.6985,63.6554" style="stroke: #A80036; stroke-width: 1.0;"/><!--link Gnome::Gtk3::Frame to QAManager::Gui::Part::EntryFrame--><path d="M127.4131,73.9345 C110.661,81.3434 94.1083,92.2139 84.352,108 C68.6969,133.3305 67.5538,150.4127 84.352,175 C126.3778,236.5129 342.2683,297.1492 442.7674,322.5536 " fill="none" id="Gnome::Gtk3::Frame-QAManager::Gui::Part::EntryFrame" style="stroke: #A80036; stroke-width: 1.0;"/><polygon fill="none" points="125.2305,67.2777,146.4158,66.8517,130.1201,80.3961,125.2305,67.2777" style="stroke: #A80036; stroke-width: 1.0;"/><!--link Gnome::Gtk3::Frame to QAManager::App::Part::ValueRepr--><path d="M182.352,95.4048 C182.352,109.0788 182.352,123.9368 182.352,134.8498 " fill="none" id="Gnome::Gtk3::Frame-QAManager::App::Part::ValueRepr" style="stroke: #A80036; stroke-width: 1.0;"/><polygon fill="none" points="175.3521,95.0252,182.352,75.0252,189.3521,95.0251,175.3521,95.0252" style="stroke: #A80036; stroke-width: 1.0;"/><!--
@startuml
skinparam packageStyle rectangle
set namespaceSeparator ::
hide members








QAManager::Category -> QAManager::Set
QAManager::Category - -> QAManager::KV



QAManager::Set - -> QAManager::KV

QAManager::KV - -> QAManager::QATypes



QAManager::Gui::SetDemoDialog - -> QAManager::Category
QAManager::Gui::SetDemoDialog - -> QAManager::Set
QAManager::Gui::SetDemoDialog - -> QAManager::Gui::Part::Dialog
QAManager::Gui::SetDemoDialog - -> QAManager::Gui::Part::Set

Gnome::Gtk3::Dialog <|- - QAManager::Gui::Part::Dialog

QAManager::Gui::Part::Set -> QAManager::Set
QAManager::Gui::Part::Set - -> QAManager::KV
QAManager::Gui::Part::Set - -> QAManager::Gui::Part::KV
QAManager::Gui::Part::Set - -> QAManager::Gui::Part::Frame

Gnome::Gtk3::Frame <|- - QAManager::Gui::Part::Frame

QAManager::Gui::Part::KV - -> QAManager::QATypes
QAManager::Gui::Part::KV -> QAManager::KV
QAManager::Gui::Part::KV - -> QAManager::Gui::Part::GroupFrame
QAManager::Gui::Part::KV - -> QAManager::Gui::Part::EntryFrame

Gnome::Gtk3::Frame <|- - QAManager::Gui::Part::GroupFrame
Gnome::Gtk3::Frame <|- - QAManager::Gui::Part::EntryFrame
Gnome::Gtk3::Frame <|- - QAManager::App::Part::ValueRepr

@enduml

PlantUML version 1.2019.01(Sat Feb 09 16:32:04 CET 2019)
(LGPL source distribution)
Java Runtime: OpenJDK Runtime Environment
JVM: OpenJDK 64-Bit Server VM
Java Version: 1.8.0_265-b01
Operating System: Linux
OS Version: 5.7.15-100.fc31.x86_64
Default Encoding: UTF-8
Language: en
Country: null
--></g></svg>