<?xml version="1.0" encoding="UTF-8" standalone="no"?><svg xmlns="http://www.w3.org/2000/svg" xmlns:xlink="http://www.w3.org/1999/xlink" contentScriptType="application/ecmascript" contentStyleType="text/css" height="676px" preserveAspectRatio="none" style="width:605px;height:676px;" version="1.1" viewBox="0 0 605 676" width="605px" zoomAndPan="magnify"><defs><filter height="300%" id="f167lawhv595i8" width="300%" x="-1" y="-1"><feGaussianBlur result="blurOut" stdDeviation="2.0"/><feColorMatrix in="blurOut" result="blurOut2" type="matrix" values="0 0 0 0 0 0 0 0 0 0 0 0 0 0 0 0 0 0 .4 0"/><feOffset dx="4.0" dy="4.0" in="blurOut2" result="blurOut3"/><feBlend in="SourceGraphic" in2="blurOut3" mode="normal"/></filter></defs><g><!--cluster QAManager--><rect fill="#FFFFFF" filter="url(#f167lawhv595i8)" height="251" style="stroke: #000000; stroke-width: 1.5;" width="324" x="14" y="414"/><text fill="#000000" font-family="sans-serif" font-size="14" font-weight="bold" lengthAdjust="spacingAndGlyphs" textLength="91" x="130.5" y="428.9951">QAManager</text><!--cluster Gnome::Gtk3--><rect fill="#FFFFFF" filter="url(#f167lawhv595i8)" height="67" style="stroke: #000000; stroke-width: 1.5;" width="194" x="320" y="16"/><text fill="#000000" font-family="sans-serif" font-size="14" font-weight="bold" lengthAdjust="spacingAndGlyphs" textLength="105" x="364.5" y="30.9951">Gnome::Gtk3</text><!--cluster QAManager::Gui--><rect fill="#FFFFFF" filter="url(#f167lawhv595i8)" height="67" style="stroke: #000000; stroke-width: 1.5;" width="194" x="258" y="169"/><text fill="#000000" font-family="sans-serif" font-size="14" font-weight="bold" lengthAdjust="spacingAndGlyphs" textLength="129" x="290.5" y="183.9951">QAManager::Gui</text><!--cluster QAManager::Gui::Part--><rect fill="#FFFFFF" filter="url(#f167lawhv595i8)" height="343" style="stroke: #000000; stroke-width: 1.5;" width="202" x="346" y="322"/><text fill="#000000" font-family="sans-serif" font-size="14" font-weight="bold" lengthAdjust="spacingAndGlyphs" textLength="173" x="360.5" y="336.9951">QAManager::Gui::Part</text><!--class QAManager::Category--><rect fill="#FEFECE" filter="url(#f167lawhv595i8)" height="32" id="QAManager::Category" style="stroke: #A80036; stroke-width: 1.5;" width="88" x="22" y="441"/><ellipse cx="37" cy="457" fill="#ADD1B2" rx="11" ry="11" style="stroke: #A80036; stroke-width: 1.0;"/><path d="M39.9688,462.6406 Q39.3906,462.9375 38.75,463.0781 Q38.1094,463.2344 37.4063,463.2344 Q34.9063,463.2344 33.5781,461.5938 Q32.2656,459.9375 32.2656,456.8125 Q32.2656,453.6875 33.5781,452.0313 Q34.9063,450.375 37.4063,450.375 Q38.1094,450.375 38.75,450.5313 Q39.4063,450.6875 39.9688,450.9844 L39.9688,453.7031 Q39.3438,453.125 38.75,452.8594 Q38.1563,452.5781 37.5313,452.5781 Q36.1875,452.5781 35.5,453.6563 Q34.8125,454.7188 34.8125,456.8125 Q34.8125,458.9063 35.5,459.9844 Q36.1875,461.0469 37.5313,461.0469 Q38.1563,461.0469 38.75,460.7813 Q39.3438,460.5 39.9688,459.9219 L39.9688,462.6406 Z "/><text fill="#000000" font-family="sans-serif" font-size="12" lengthAdjust="spacingAndGlyphs" textLength="56" x="51" y="461.1807">Category</text><!--class QAManager::Set--><rect fill="#FEFECE" filter="url(#f167lawhv595i8)" height="32" id="QAManager::Set" style="stroke: #A80036; stroke-width: 1.5;" width="53" x="145.5" y="441"/><ellipse cx="160.5" cy="457" fill="#ADD1B2" rx="11" ry="11" style="stroke: #A80036; stroke-width: 1.0;"/><path d="M163.4688,462.6406 Q162.8906,462.9375 162.25,463.0781 Q161.6094,463.2344 160.9063,463.2344 Q158.4063,463.2344 157.0781,461.5938 Q155.7656,459.9375 155.7656,456.8125 Q155.7656,453.6875 157.0781,452.0313 Q158.4063,450.375 160.9063,450.375 Q161.6094,450.375 162.25,450.5313 Q162.9063,450.6875 163.4688,450.9844 L163.4688,453.7031 Q162.8438,453.125 162.25,452.8594 Q161.6563,452.5781 161.0313,452.5781 Q159.6875,452.5781 159,453.6563 Q158.3125,454.7188 158.3125,456.8125 Q158.3125,458.9063 159,459.9844 Q159.6875,461.0469 161.0313,461.0469 Q161.6563,461.0469 162.25,460.7813 Q162.8438,460.5 163.4688,459.9219 L163.4688,462.6406 Z "/><text fill="#000000" font-family="sans-serif" font-size="12" lengthAdjust="spacingAndGlyphs" textLength="21" x="174.5" y="461.1807">Set</text><!--class QAManager::KV--><rect fill="#FEFECE" filter="url(#f167lawhv595i8)" height="32" id="QAManager::KV" style="stroke: #A80036; stroke-width: 1.5;" width="47" x="179.5" y="533"/><ellipse cx="194.5" cy="549" fill="#ADD1B2" rx="11" ry="11" style="stroke: #A80036; stroke-width: 1.0;"/><path d="M197.4688,554.6406 Q196.8906,554.9375 196.25,555.0781 Q195.6094,555.2344 194.9063,555.2344 Q192.4063,555.2344 191.0781,553.5938 Q189.7656,551.9375 189.7656,548.8125 Q189.7656,545.6875 191.0781,544.0313 Q192.4063,542.375 194.9063,542.375 Q195.6094,542.375 196.25,542.5313 Q196.9063,542.6875 197.4688,542.9844 L197.4688,545.7031 Q196.8438,545.125 196.25,544.8594 Q195.6563,544.5781 195.0313,544.5781 Q193.6875,544.5781 193,545.6563 Q192.3125,546.7188 192.3125,548.8125 Q192.3125,550.9063 193,551.9844 Q193.6875,553.0469 195.0313,553.0469 Q195.6563,553.0469 196.25,552.7813 Q196.8438,552.5 197.4688,551.9219 L197.4688,554.6406 Z "/><text fill="#000000" font-family="sans-serif" font-size="12" lengthAdjust="spacingAndGlyphs" textLength="15" x="208.5" y="553.1807">KV</text><!--class QAManager::QATypes--><rect fill="#FEFECE" filter="url(#f167lawhv595i8)" height="32" id="QAManager::QATypes" style="stroke: #A80036; stroke-width: 1.5;" width="85" x="212.5" y="625"/><ellipse cx="227.5" cy="641" fill="#ADD1B2" rx="11" ry="11" style="stroke: #A80036; stroke-width: 1.0;"/><path d="M230.4688,646.6406 Q229.8906,646.9375 229.25,647.0781 Q228.6094,647.2344 227.9063,647.2344 Q225.4063,647.2344 224.0781,645.5938 Q222.7656,643.9375 222.7656,640.8125 Q222.7656,637.6875 224.0781,636.0313 Q225.4063,634.375 227.9063,634.375 Q228.6094,634.375 229.25,634.5313 Q229.9063,634.6875 230.4688,634.9844 L230.4688,637.7031 Q229.8438,637.125 229.25,636.8594 Q228.6563,636.5781 228.0313,636.5781 Q226.6875,636.5781 226,637.6563 Q225.3125,638.7188 225.3125,640.8125 Q225.3125,642.9063 226,643.9844 Q226.6875,645.0469 228.0313,645.0469 Q228.6563,645.0469 229.25,644.7813 Q229.8438,644.5 230.4688,643.9219 L230.4688,646.6406 Z "/><text fill="#000000" font-family="sans-serif" font-size="12" lengthAdjust="spacingAndGlyphs" textLength="53" x="241.5" y="645.1807">QATypes</text><!--class QAManager::ValueRepr--><rect fill="#FEFECE" filter="url(#f167lawhv595i8)" height="32" id="QAManager::ValueRepr" style="stroke: #A80036; stroke-width: 1.5;" width="96" x="234" y="441"/><ellipse cx="249" cy="457" fill="#ADD1B2" rx="11" ry="11" style="stroke: #A80036; stroke-width: 1.0;"/><path d="M251.9688,462.6406 Q251.3906,462.9375 250.75,463.0781 Q250.1094,463.2344 249.4063,463.2344 Q246.9063,463.2344 245.5781,461.5938 Q244.2656,459.9375 244.2656,456.8125 Q244.2656,453.6875 245.5781,452.0313 Q246.9063,450.375 249.4063,450.375 Q250.1094,450.375 250.75,450.5313 Q251.4063,450.6875 251.9688,450.9844 L251.9688,453.7031 Q251.3438,453.125 250.75,452.8594 Q250.1563,452.5781 249.5313,452.5781 Q248.1875,452.5781 247.5,453.6563 Q246.8125,454.7188 246.8125,456.8125 Q246.8125,458.9063 247.5,459.9844 Q248.1875,461.0469 249.5313,461.0469 Q250.1563,461.0469 250.75,460.7813 Q251.3438,460.5 251.9688,459.9219 L251.9688,462.6406 Z "/><text fill="#000000" font-family="sans-serif" font-size="12" lengthAdjust="spacingAndGlyphs" textLength="64" x="263" y="461.1807">ValueRepr</text><!--class Gnome::Gtk3::Dialog--><rect fill="#FEFECE" filter="url(#f167lawhv595i8)" height="32" id="Gnome::Gtk3::Dialog" style="stroke: #A80036; stroke-width: 1.5;" width="71" x="328.5" y="43"/><ellipse cx="343.5" cy="59" fill="#ADD1B2" rx="11" ry="11" style="stroke: #A80036; stroke-width: 1.0;"/><path d="M346.4688,64.6406 Q345.8906,64.9375 345.25,65.0781 Q344.6094,65.2344 343.9063,65.2344 Q341.4063,65.2344 340.0781,63.5938 Q338.7656,61.9375 338.7656,58.8125 Q338.7656,55.6875 340.0781,54.0313 Q341.4063,52.375 343.9063,52.375 Q344.6094,52.375 345.25,52.5313 Q345.9063,52.6875 346.4688,52.9844 L346.4688,55.7031 Q345.8438,55.125 345.25,54.8594 Q344.6563,54.5781 344.0313,54.5781 Q342.6875,54.5781 342,55.6563 Q341.3125,56.7188 341.3125,58.8125 Q341.3125,60.9063 342,61.9844 Q342.6875,63.0469 344.0313,63.0469 Q344.6563,63.0469 345.25,62.7813 Q345.8438,62.5 346.4688,61.9219 L346.4688,64.6406 Z "/><text fill="#000000" font-family="sans-serif" font-size="12" lengthAdjust="spacingAndGlyphs" textLength="39" x="357.5" y="63.1807">Dialog</text><!--class Gnome::Gtk3::Frame--><rect fill="#FEFECE" filter="url(#f167lawhv595i8)" height="32" id="Gnome::Gtk3::Frame" style="stroke: #A80036; stroke-width: 1.5;" width="71" x="434.5" y="43"/><ellipse cx="449.5" cy="59" fill="#ADD1B2" rx="11" ry="11" style="stroke: #A80036; stroke-width: 1.0;"/><path d="M452.4688,64.6406 Q451.8906,64.9375 451.25,65.0781 Q450.6094,65.2344 449.9063,65.2344 Q447.4063,65.2344 446.0781,63.5938 Q444.7656,61.9375 444.7656,58.8125 Q444.7656,55.6875 446.0781,54.0313 Q447.4063,52.375 449.9063,52.375 Q450.6094,52.375 451.25,52.5313 Q451.9063,52.6875 452.4688,52.9844 L452.4688,55.7031 Q451.8438,55.125 451.25,54.8594 Q450.6563,54.5781 450.0313,54.5781 Q448.6875,54.5781 448,55.6563 Q447.3125,56.7188 447.3125,58.8125 Q447.3125,60.9063 448,61.9844 Q448.6875,63.0469 450.0313,63.0469 Q450.6563,63.0469 451.25,62.7813 Q451.8438,62.5 452.4688,61.9219 L452.4688,64.6406 Z "/><text fill="#000000" font-family="sans-serif" font-size="12" lengthAdjust="spacingAndGlyphs" textLength="39" x="463.5" y="63.1807">Frame</text><!--class QAManager::Gui::Dialog--><rect fill="#FEFECE" filter="url(#f167lawhv595i8)" height="32" id="QAManager::Gui::Dialog" style="stroke: #A80036; stroke-width: 1.5;" width="71" x="266.5" y="196"/><ellipse cx="281.5" cy="212" fill="#ADD1B2" rx="11" ry="11" style="stroke: #A80036; stroke-width: 1.0;"/><path d="M284.4688,217.6406 Q283.8906,217.9375 283.25,218.0781 Q282.6094,218.2344 281.9063,218.2344 Q279.4063,218.2344 278.0781,216.5938 Q276.7656,214.9375 276.7656,211.8125 Q276.7656,208.6875 278.0781,207.0313 Q279.4063,205.375 281.9063,205.375 Q282.6094,205.375 283.25,205.5313 Q283.9063,205.6875 284.4688,205.9844 L284.4688,208.7031 Q283.8438,208.125 283.25,207.8594 Q282.6563,207.5781 282.0313,207.5781 Q280.6875,207.5781 280,208.6563 Q279.3125,209.7188 279.3125,211.8125 Q279.3125,213.9063 280,214.9844 Q280.6875,216.0469 282.0313,216.0469 Q282.6563,216.0469 283.25,215.7813 Q283.8438,215.5 284.4688,214.9219 L284.4688,217.6406 Z "/><text fill="#000000" font-family="sans-serif" font-size="12" lengthAdjust="spacingAndGlyphs" textLength="39" x="295.5" y="216.1807">Dialog</text><!--class QAManager::Gui::Frame--><rect fill="#FEFECE" filter="url(#f167lawhv595i8)" height="32" id="QAManager::Gui::Frame" style="stroke: #A80036; stroke-width: 1.5;" width="71" x="372.5" y="196"/><ellipse cx="387.5" cy="212" fill="#ADD1B2" rx="11" ry="11" style="stroke: #A80036; stroke-width: 1.0;"/><path d="M390.4688,217.6406 Q389.8906,217.9375 389.25,218.0781 Q388.6094,218.2344 387.9063,218.2344 Q385.4063,218.2344 384.0781,216.5938 Q382.7656,214.9375 382.7656,211.8125 Q382.7656,208.6875 384.0781,207.0313 Q385.4063,205.375 387.9063,205.375 Q388.6094,205.375 389.25,205.5313 Q389.9063,205.6875 390.4688,205.9844 L390.4688,208.7031 Q389.8438,208.125 389.25,207.8594 Q388.6563,207.5781 388.0313,207.5781 Q386.6875,207.5781 386,208.6563 Q385.3125,209.7188 385.3125,211.8125 Q385.3125,213.9063 386,214.9844 Q386.6875,216.0469 388.0313,216.0469 Q388.6563,216.0469 389.25,215.7813 Q389.8438,215.5 390.4688,214.9219 L390.4688,217.6406 Z "/><text fill="#000000" font-family="sans-serif" font-size="12" lengthAdjust="spacingAndGlyphs" textLength="39" x="401.5" y="216.1807">Frame</text><!--class QAManager::Gui::Part::Set--><rect fill="#FEFECE" filter="url(#f167lawhv595i8)" height="32" id="QAManager::Gui::Part::Set" style="stroke: #A80036; stroke-width: 1.5;" width="53" x="354.5" y="349"/><ellipse cx="369.5" cy="365" fill="#ADD1B2" rx="11" ry="11" style="stroke: #A80036; stroke-width: 1.0;"/><path d="M372.4688,370.6406 Q371.8906,370.9375 371.25,371.0781 Q370.6094,371.2344 369.9063,371.2344 Q367.4063,371.2344 366.0781,369.5938 Q364.7656,367.9375 364.7656,364.8125 Q364.7656,361.6875 366.0781,360.0313 Q367.4063,358.375 369.9063,358.375 Q370.6094,358.375 371.25,358.5313 Q371.9063,358.6875 372.4688,358.9844 L372.4688,361.7031 Q371.8438,361.125 371.25,360.8594 Q370.6563,360.5781 370.0313,360.5781 Q368.6875,360.5781 368,361.6563 Q367.3125,362.7188 367.3125,364.8125 Q367.3125,366.9063 368,367.9844 Q368.6875,369.0469 370.0313,369.0469 Q370.6563,369.0469 371.25,368.7813 Q371.8438,368.5 372.4688,367.9219 L372.4688,370.6406 Z "/><text fill="#000000" font-family="sans-serif" font-size="12" lengthAdjust="spacingAndGlyphs" textLength="21" x="383.5" y="369.1807">Set</text><!--class QAManager::Gui::Part::KV--><rect fill="#FEFECE" filter="url(#f167lawhv595i8)" height="32" id="QAManager::Gui::Part::KV" style="stroke: #A80036; stroke-width: 1.5;" width="47" x="354.5" y="533"/><ellipse cx="369.5" cy="549" fill="#ADD1B2" rx="11" ry="11" style="stroke: #A80036; stroke-width: 1.0;"/><path d="M372.4688,554.6406 Q371.8906,554.9375 371.25,555.0781 Q370.6094,555.2344 369.9063,555.2344 Q367.4063,555.2344 366.0781,553.5938 Q364.7656,551.9375 364.7656,548.8125 Q364.7656,545.6875 366.0781,544.0313 Q367.4063,542.375 369.9063,542.375 Q370.6094,542.375 371.25,542.5313 Q371.9063,542.6875 372.4688,542.9844 L372.4688,545.7031 Q371.8438,545.125 371.25,544.8594 Q370.6563,544.5781 370.0313,544.5781 Q368.6875,544.5781 368,545.6563 Q367.3125,546.7188 367.3125,548.8125 Q367.3125,550.9063 368,551.9844 Q368.6875,553.0469 370.0313,553.0469 Q370.6563,553.0469 371.25,552.7813 Q371.8438,552.5 372.4688,551.9219 L372.4688,554.6406 Z "/><text fill="#000000" font-family="sans-serif" font-size="12" lengthAdjust="spacingAndGlyphs" textLength="15" x="383.5" y="553.1807">KV</text><!--class QAManager::Gui::Part::GroupFrame--><rect fill="#FEFECE" filter="url(#f167lawhv595i8)" height="32" id="QAManager::Gui::Part::GroupFrame" style="stroke: #A80036; stroke-width: 1.5;" width="109" x="392.5" y="625"/><ellipse cx="407.5" cy="641" fill="#ADD1B2" rx="11" ry="11" style="stroke: #A80036; stroke-width: 1.0;"/><path d="M410.4688,646.6406 Q409.8906,646.9375 409.25,647.0781 Q408.6094,647.2344 407.9063,647.2344 Q405.4063,647.2344 404.0781,645.5938 Q402.7656,643.9375 402.7656,640.8125 Q402.7656,637.6875 404.0781,636.0313 Q405.4063,634.375 407.9063,634.375 Q408.6094,634.375 409.25,634.5313 Q409.9063,634.6875 410.4688,634.9844 L410.4688,637.7031 Q409.8438,637.125 409.25,636.8594 Q408.6563,636.5781 408.0313,636.5781 Q406.6875,636.5781 406,637.6563 Q405.3125,638.7188 405.3125,640.8125 Q405.3125,642.9063 406,643.9844 Q406.6875,645.0469 408.0313,645.0469 Q408.6563,645.0469 409.25,644.7813 Q409.8438,644.5 410.4688,643.9219 L410.4688,646.6406 Z "/><text fill="#000000" font-family="sans-serif" font-size="12" lengthAdjust="spacingAndGlyphs" textLength="77" x="421.5" y="645.1807">GroupFrame</text><!--class QAManager::Gui::Part::EntryFrame--><rect fill="#FEFECE" filter="url(#f167lawhv595i8)" height="32" id="QAManager::Gui::Part::EntryFrame" style="stroke: #A80036; stroke-width: 1.5;" width="103" x="436.5" y="533"/><ellipse cx="451.5" cy="549" fill="#ADD1B2" rx="11" ry="11" style="stroke: #A80036; stroke-width: 1.0;"/><path d="M454.4688,554.6406 Q453.8906,554.9375 453.25,555.0781 Q452.6094,555.2344 451.9063,555.2344 Q449.4063,555.2344 448.0781,553.5938 Q446.7656,551.9375 446.7656,548.8125 Q446.7656,545.6875 448.0781,544.0313 Q449.4063,542.375 451.9063,542.375 Q452.6094,542.375 453.25,542.5313 Q453.9063,542.6875 454.4688,542.9844 L454.4688,545.7031 Q453.8438,545.125 453.25,544.8594 Q452.6563,544.5781 452.0313,544.5781 Q450.6875,544.5781 450,545.6563 Q449.3125,546.7188 449.3125,548.8125 Q449.3125,550.9063 450,551.9844 Q450.6875,553.0469 452.0313,553.0469 Q452.6563,553.0469 453.25,552.7813 Q453.8438,552.5 454.4688,551.9219 L454.4688,554.6406 Z "/><text fill="#000000" font-family="sans-serif" font-size="12" lengthAdjust="spacingAndGlyphs" textLength="71" x="465.5" y="553.1807">EntryFrame</text><!--link QAManager::Category to QAManager::Set--><path d="M110.3047,457 C120.2923,457 130.2799,457 140.2674,457 " fill="none" id="QAManager::Category-QAManager::Set" style="stroke: #A80036; stroke-width: 1.0;"/><polygon fill="#A80036" points="145.4903,457,136.4903,453,140.4903,457,136.4903,461,145.4903,457" style="stroke: #A80036; stroke-width: 1.0;"/><!--link QAManager::Category to QAManager::KV--><path d="M89.8636,473.0252 C113.6339,488.9877 150.1057,513.4797 175.1777,530.3164 " fill="none" id="QAManager::Category-QAManager::KV" style="stroke: #A80036; stroke-width: 1.0;"/><polygon fill="#A80036" points="179.4099,533.1585,174.1683,524.8203,175.259,530.371,169.7083,531.4617,179.4099,533.1585" style="stroke: #A80036; stroke-width: 1.0;"/><!--link QAManager::Set to QAManager::KV--><path d="M177.3998,473.0252 C182.5248,488.2348 190.2591,511.1882 195.885,527.8845 " fill="none" id="QAManager::Set-QAManager::KV" style="stroke: #A80036; stroke-width: 1.0;"/><polygon fill="#A80036" points="197.5581,532.8498,198.4746,523.0437,195.9614,528.1116,190.8935,525.5984,197.5581,532.8498" style="stroke: #A80036; stroke-width: 1.0;"/><!--link QAManager::KV to QAManager::QATypes--><path d="M212.0577,565.0252 C220.7286,580.3659 233.8521,603.5846 243.3084,620.3149 " fill="none" id="QAManager::KV-QAManager::QATypes" style="stroke: #A80036; stroke-width: 1.0;"/><polygon fill="#A80036" points="245.8716,624.8498,244.9251,615.0465,243.4112,620.497,237.9607,618.9831,245.8716,624.8498" style="stroke: #A80036; stroke-width: 1.0;"/><!--link Gnome::Gtk3::Dialog to QAManager::Gui::Dialog--><path d="M349.9573,93.6538 C337.0298,125.5554 318.4195,171.481 308.6172,195.6705 " fill="none" id="Gnome::Gtk3::Dialog-QAManager::Gui::Dialog" style="stroke: #A80036; stroke-width: 1.0;"/><polygon fill="none" points="343.4832,90.9915,357.4821,75.0845,356.4583,96.2494,343.4832,90.9915" style="stroke: #A80036; stroke-width: 1.0;"/><!--link QAManager::Gui::Dialog to QAManager::Gui::Part::Set--><path d="M319.6583,246.1991 C336.1391,278.1175 360.019,324.3658 372.5684,348.6705 " fill="none" id="QAManager::Gui::Dialog-QAManager::Gui::Part::Set" style="stroke: #A80036; stroke-width: 1.0;"/><polygon fill="none" points="313.2611,249.067,310.3051,228.0845,325.7008,242.6438,313.2611,249.067" style="stroke: #A80036; stroke-width: 1.0;"/><!--link QAManager::Gui::Part::Set to QAManager::Set--><path d="M354.2689,368.8527 C320.2533,374.639 260.5703,387.8083 216,414 C205.8705,419.9526 196.3223,428.7288 188.726,436.8031 " fill="none" id="QAManager::Gui::Part::Set-QAManager::Set" style="stroke: #A80036; stroke-width: 1.0;"/><polygon fill="#A80036" points="185.1597,440.695,194.1891,436.7619,188.5377,437.0086,188.2909,431.3571,185.1597,440.695" style="stroke: #A80036; stroke-width: 1.0;"/><!--link QAManager::Gui::Part::Set to QAManager::Gui::Part::KV--><path d="M380.739,381.0069 C380.1982,414.1743 378.9552,490.4122 378.3474,527.6913 " fill="none" id="QAManager::Gui::Part::Set-QAManager::Gui::Part::KV" style="stroke: #A80036; stroke-width: 1.0;"/><polygon fill="#A80036" points="378.2625,532.8991,382.4088,523.9656,378.3441,527.8998,374.4099,523.835,378.2625,532.8991" style="stroke: #A80036; stroke-width: 1.0;"/><!--link QAManager::Gui::Frame to QAManager::Gui::Part::Set--><path d="M404.2635,233.1737 C398.8139,264.0543 388.8009,320.795 383.8817,348.6705 " fill="none" id="QAManager::Gui::Frame-QAManager::Gui::Part::Set" style="stroke: #A80036; stroke-width: 1.0;"/><polygon fill="#A80036" points="405.1616,228.0845,399.6583,236.2523,404.2926,233.0084,407.5365,237.6427,405.1616,228.0845" style="stroke: #A80036; stroke-width: 1.0;"/><!--link Gnome::Gtk3::Frame to QAManager::Gui::Frame--><path d="M455.9573,93.6538 C443.0298,125.5554 424.4195,171.481 414.6172,195.6705 " fill="none" id="Gnome::Gtk3::Frame-QAManager::Gui::Frame" style="stroke: #A80036; stroke-width: 1.0;"/><polygon fill="none" points="449.4832,90.9915,463.4821,75.0845,462.4583,96.2494,449.4832,90.9915" style="stroke: #A80036; stroke-width: 1.0;"/><!--link QAManager::Gui::Part::KV to QAManager::QATypes--><path d="M356.575,565.0252 C335.4516,580.8248 303.1561,604.9808 280.6715,621.7986 " fill="none" id="QAManager::Gui::Part::KV-QAManager::QATypes" style="stroke: #A80036; stroke-width: 1.0;"/><polygon fill="#A80036" points="276.5921,624.8498,286.1949,622.6621,280.596,621.8549,281.4032,616.256,276.5921,624.8498" style="stroke: #A80036; stroke-width: 1.0;"/><!--link QAManager::Gui::Part::KV to QAManager::KV--><path d="M354.3412,549 C313.5853,549 272.8295,549 232.0736,549 " fill="none" id="QAManager::Gui::Part::KV-QAManager::KV" style="stroke: #A80036; stroke-width: 1.0;"/><polygon fill="#A80036" points="226.584,549,235.584,553,231.584,549,235.584,545,226.584,549" style="stroke: #A80036; stroke-width: 1.0;"/><!--link QAManager::Set to QAManager::Gui::Part::KV--><path d="M203.7235,470.2721 C238.771,485.0702 296.7699,509.9599 346,533 C348.7003,534.2638 351.513,535.6161 354.301,536.9794 " fill="none" id="QAManager::Set-QAManager::Gui::Part::KV" style="stroke: #A80036; stroke-width: 1.0;"/><polygon fill="#A80036" points="198.7228,468.1634,205.4613,475.3462,203.3299,470.1062,208.5699,467.9748,198.7228,468.1634" style="stroke: #A80036; stroke-width: 1.0;"/><!--link QAManager::Gui::Part::KV to QAManager::Gui::Part::GroupFrame--><path d="M390.0189,565.0252 C401.6228,580.497 419.2365,603.982 431.8069,620.7425 " fill="none" id="QAManager::Gui::Part::KV-QAManager::Gui::Part::GroupFrame" style="stroke: #A80036; stroke-width: 1.0;"/><polygon fill="#A80036" points="434.8873,624.8498,432.6871,615.2499,431.8872,620.8499,426.2872,620.05,434.8873,624.8498" style="stroke: #A80036; stroke-width: 1.0;"/><!--link QAManager::Gui::Part::KV to QAManager::Gui::Part::EntryFrame--><path d="M401.6328,549 C411.4965,549 421.3603,549 431.224,549 " fill="none" id="QAManager::Gui::Part::KV-QAManager::Gui::Part::EntryFrame" style="stroke: #A80036; stroke-width: 1.0;"/><polygon fill="#A80036" points="436.3821,549,427.3821,545,431.3821,549,427.3821,553,436.3821,549" style="stroke: #A80036; stroke-width: 1.0;"/><!--link Gnome::Gtk3::Frame to QAManager::Gui::Part::GroupFrame--><path d="M512.2489,86.9239 C547.8409,114.1598 593,159.1333 593,212 C593,212 593,212 593,457 C593,507.5964 587.377,524.5372 557,565 C537.2109,591.3595 505.5307,611.86 481.2398,624.891 " fill="none" id="Gnome::Gtk3::Frame-QAManager::Gui::Part::GroupFrame" style="stroke: #A80036; stroke-width: 1.0;"/><polygon fill="none" points="507.892,92.4118,495.7848,75.0216,516.0941,81.0661,507.892,92.4118" style="stroke: #A80036; stroke-width: 1.0;"/><!--link Gnome::Gtk3::Frame to QAManager::Gui::Part::EntryFrame--><path d="M479.9807,94.8684 C487.6713,125.6765 497,171.4121 497,212 C497,212 497,212 497,365 C497,427.0463 491.8315,500.7212 489.328,532.7681 " fill="none" id="Gnome::Gtk3::Frame-QAManager::Gui::Part::EntryFrame" style="stroke: #A80036; stroke-width: 1.0;"/><polygon fill="none" points="473.1677,96.4851,474.8271,75.3605,486.7033,92.9092,473.1677,96.4851" style="stroke: #A80036; stroke-width: 1.0;"/><!--link QAManager::Gui::Part::EntryFrame to QAManager::ValueRepr--><path d="M451.8375,532.8498 C419.8946,518.584 372.857,497.5769 336.3785,481.2855 " fill="none" id="QAManager::Gui::Part::EntryFrame-QAManager::ValueRepr" style="stroke: #A80036; stroke-width: 1.0;"/><polygon fill="none" points="333.2895,487.5724,317.8825,473.0252,338.9985,474.7893,333.2895,487.5724" style="stroke: #A80036; stroke-width: 1.0;"/><!--
@startuml
skinparam packageStyle rectangle
set namespaceSeparator ::
hide members

QAManager::Category -> QAManager::Set
QAManager::Category - -> QAManager::KV

QAManager::Set - -> QAManager::KV

QAManager::KV - -> QAManager::QATypes

Gnome::Gtk3::Dialog <|- - - QAManager::Gui::Dialog
QAManager::Gui::Dialog <|- - - QAManager::Gui::Part::Set

QAManager::Gui::Part::Set - -> QAManager::Set
QAManager::Gui::Part::Set - - -> QAManager::Gui::Part::KV

QAManager::Gui::Frame <- - QAManager::Gui::Part::Set
Gnome::Gtk3::Frame <|- - QAManager::Gui::Frame

QAManager::Gui::Part::KV - -> QAManager::QATypes
QAManager::Gui::Part::KV -> QAManager::KV
QAManager::Set <- - QAManager::Gui::Part::KV
QAManager::Gui::Part::KV - -> QAManager::Gui::Part::GroupFrame
QAManager::Gui::Part::KV -> QAManager::Gui::Part::EntryFrame

Gnome::Gtk3::Frame <|- - QAManager::Gui::Part::GroupFrame
Gnome::Gtk3::Frame <|- - QAManager::Gui::Part::EntryFrame
QAManager::Gui::Part::EntryFrame -|> QAManager::ValueRepr

@enduml

PlantUML version 1.2019.01(Sat Feb 09 16:32:04 CET 2019)
(LGPL source distribution)
Java Runtime: OpenJDK Runtime Environment
JVM: OpenJDK 64-Bit Server VM
Java Version: 1.8.0_265-b01
Operating System: Linux
OS Version: 5.8.6-101.fc31.x86_64
Default Encoding: UTF-8
Language: en
Country: null
--></g></svg>